<svg id="Layer_1" data-name="Layer 1" xmlns="http://www.w3.org/2000/svg" viewBox="0 0 871.6 538.9"><defs><style>.cls-1{fill:#80650f;}.cls-2{fill:#ffc91f;}.cls-3,.cls-5{fill:none;}.cls-3{stroke:#757575;stroke-miterlimit:10;}.cls-4{fill:#9e9e9e;}.cls-6{isolation:isolate;}</style></defs><path class="cls-1" d="M424.1,138.4c3.8-.3,7.5-.4,11.3-.4v37.4c-2.8,0-5.7.1-8.5.3Z"/><path class="cls-2" d="M435.4,137.9A149.72,149.72,0,0,1,585.1,284.7c1.6,81.5-62.5,149.3-144,152.4A149.61,149.61,0,0,1,286,296.1c-4.6-81.4,56.8-151.6,138.1-157.7l2.8,37.3a112.52,112.52,0,1,0,8.5-.3Z"/><path class="cls-3" d="M623.8,420.7H591.1l-150.3,9"/><path class="cls-4" d="M442.8,429.7a2,2,0,1,0-2,2,2,2,0,0,0,2-2"/><rect class="cls-5" x="249.5" y="136.8" width="35.2" height="13.5"/><g class="cls-6"><path d="M255.28,148.27a8.61,8.61,0,0,1-2.75-.4,6.27,6.27,0,0,1-2.12-1.14l.54-1.19a9.23,9.23,0,0,0,1.28.79,5.76,5.76,0,0,0,1.38.47,8.49,8.49,0,0,0,1.67.15,3.91,3.91,0,0,0,2.39-.6,1.91,1.91,0,0,0,.78-1.59,1.57,1.57,0,0,0-.55-1.3,4.27,4.27,0,0,0-1.9-.73l-1.9-.38a5.28,5.28,0,0,1-2.62-1.18,2.91,2.91,0,0,1-.86-2.21,3.43,3.43,0,0,1,.59-2,3.85,3.85,0,0,1,1.66-1.32,6.16,6.16,0,0,1,2.48-.47,7.25,7.25,0,0,1,2.48.41,5.22,5.22,0,0,1,1.92,1.18l-.52,1.16a5.56,5.56,0,0,0-1.79-1.09,6,6,0,0,0-2.11-.34,3.87,3.87,0,0,0-2.34.64,2.06,2.06,0,0,0-.86,1.75,1.8,1.8,0,0,0,.54,1.39,3.8,3.8,0,0,0,1.79.75l1.92.38a5.86,5.86,0,0,1,2.72,1.14,2.69,2.69,0,0,1,.87,2.14,3.15,3.15,0,0,1-.57,1.86,3.65,3.65,0,0,1-1.62,1.27A6.34,6.34,0,0,1,255.28,148.27Z"/><path d="M262.05,137v-1.64h1.81V137Zm.18,11.16V139h1.47v9.09Z"/><path d="M266.54,148.11v-7c0-.34,0-.69,0-1s-.07-.71-.1-1.06h1.41l.18,2h-.22a3.23,3.23,0,0,1,1.15-1.59,3.19,3.19,0,0,1,1.91-.56,3,3,0,0,1,1.86.54,2.75,2.75,0,0,1,1,1.68h-.27a3.15,3.15,0,0,1,1.21-1.63,3.56,3.56,0,0,1,2-.59,2.83,2.83,0,0,1,2.26.86,4,4,0,0,1,.76,2.7v5.69h-1.46v-5.6a3,3,0,0,0-.46-1.87,1.7,1.7,0,0,0-1.44-.59,2.23,2.23,0,0,0-1.81.79,3.17,3.17,0,0,0-.66,2.11v5.16h-1.46v-5.6a3,3,0,0,0-.46-1.87,1.71,1.71,0,0,0-1.45-.59,2.19,2.19,0,0,0-1.79.79A3.22,3.22,0,0,0,268,143v5.16Z"/></g><rect class="cls-5" x="250.5" y="158.2" width="35.2" height="18.5"/><g class="cls-6"><path d="M252.05,167.1v-.86h2v-6.79h.53l-2.34,1.46v-1l2.08-1.32h.73v7.65h1.88v.86Z"/><path d="M259,168.48l-.46-.35a1.84,1.84,0,0,0,.43-.64,1.72,1.72,0,0,0,.1-.6l.22.21h-.8v-1.23h1.23v.87a3.11,3.11,0,0,1-.06.62,2,2,0,0,1-.23.57A2.36,2.36,0,0,1,259,168.48Z"/><path d="M261.55,167.1v-.75l3-3.15a5.45,5.45,0,0,0,.89-1.18,2.52,2.52,0,0,0,.29-1.16,1.37,1.37,0,0,0-.46-1.12,2,2,0,0,0-1.32-.38,3.2,3.2,0,0,0-1.25.24,3.59,3.59,0,0,0-1.11.74l-.36-.78a3.33,3.33,0,0,1,1.23-.78,4.23,4.23,0,0,1,1.58-.3,3.57,3.57,0,0,1,1.47.27,1.89,1.89,0,0,1,.91.78,2.32,2.32,0,0,1,.31,1.25,3.19,3.19,0,0,1-.39,1.53,6.88,6.88,0,0,1-1.14,1.51l-2.67,2.7v-.28h4.57v.86Z"/><path d="M270.47,163.7a1.87,1.87,0,0,1-1.54-.7,3,3,0,0,1-.56-1.91,2.88,2.88,0,0,1,.57-1.91,2.05,2.05,0,0,1,3.07,0,2.94,2.94,0,0,1,.56,1.91A3,3,0,0,1,272,163,1.86,1.86,0,0,1,270.47,163.7Zm0-.7a1.08,1.08,0,0,0,.93-.48,3.29,3.29,0,0,0,0-2.87,1.09,1.09,0,0,0-.93-.47,1.07,1.07,0,0,0-.91.47,3.31,3.31,0,0,0,0,2.88A1.07,1.07,0,0,0,270.47,163Zm.86,4.1h-.88l5.05-8.51h.89Zm5,.11a1.9,1.9,0,0,1-1.55-.69,3,3,0,0,1-.56-1.93,2.88,2.88,0,0,1,.57-1.91,1.89,1.89,0,0,1,1.54-.67,1.87,1.87,0,0,1,1.54.68,2.93,2.93,0,0,1,.56,1.9,3,3,0,0,1-.56,1.92A1.86,1.86,0,0,1,276.36,167.21Zm0-.7a1,1,0,0,0,.91-.48,2.55,2.55,0,0,0,.33-1.44,2.46,2.46,0,0,0-.33-1.42,1,1,0,0,0-.91-.48,1.06,1.06,0,0,0-.92.48,2.55,2.55,0,0,0-.32,1.42,2.66,2.66,0,0,0,.32,1.45A1.07,1.07,0,0,0,276.36,166.51Z"/></g><rect class="cls-5" x="586.2" y="424.7" width="42.3" height="18.5"/><g class="cls-6"><path d="M589.2,433.73a3.62,3.62,0,0,1-1.34-.28,3.34,3.34,0,0,1-1.12-.75l.38-.78a3,3,0,0,0,1,.7,2.86,2.86,0,0,0,1.1.23,2.19,2.19,0,0,0,1.87-.88,4.32,4.32,0,0,0,.66-2.62v-1.13h.12a2.68,2.68,0,0,1-.41,1.19,2.28,2.28,0,0,1-.89.77,2.59,2.59,0,0,1-1.2.27,2.81,2.81,0,0,1-1.37-.34,2.39,2.39,0,0,1-.93-1,3,3,0,0,1,0-2.81,2.54,2.54,0,0,1,1-1,2.81,2.81,0,0,1,1.43-.36,3.15,3.15,0,0,1,1.77.49,3,3,0,0,1,1.09,1.42,6,6,0,0,1,.38,2.24,6.55,6.55,0,0,1-.42,2.49,3.5,3.5,0,0,1-1.21,1.56A3.34,3.34,0,0,1,589.2,433.73Zm.38-4.12a2,2,0,0,0,1-.24,1.65,1.65,0,0,0,.65-.66,2.14,2.14,0,0,0,0-2,1.65,1.65,0,0,0-.65-.66,2,2,0,0,0-1-.24,2,2,0,0,0-1,.24,1.74,1.74,0,0,0-.66.66,2.22,2.22,0,0,0,0,2,1.74,1.74,0,0,0,.66.66A2,2,0,0,0,589.58,429.61Z"/><path d="M597,433.73a3.61,3.61,0,0,1-2.25-.62,2.28,2.28,0,0,1-.26-3.21,2.31,2.31,0,0,1,1.44-.71v.18a2.21,2.21,0,0,1-1.29-.74,2.18,2.18,0,0,1,.27-3A3.31,3.31,0,0,1,597,425a4,4,0,0,1,1.54.27,2.26,2.26,0,0,1,1,.78,2.09,2.09,0,0,1,.34,1.22,2.12,2.12,0,0,1-.45,1.36,2,2,0,0,1-1.26.73v-.17a2.27,2.27,0,0,1,1,.37,2.06,2.06,0,0,1,.66.75,2.26,2.26,0,0,1,.24,1.05,2.11,2.11,0,0,1-.8,1.75A3.65,3.65,0,0,1,597,433.73Zm0-.82a2.59,2.59,0,0,0,1.59-.4,1.43,1.43,0,0,0,.52-1.21,1.4,1.4,0,0,0-.52-1.19,2.66,2.66,0,0,0-1.59-.39,2.63,2.63,0,0,0-1.58.39,1.41,1.41,0,0,0-.53,1.19,1.43,1.43,0,0,0,.53,1.21A2.59,2.59,0,0,0,597,432.91Zm0-4a2.17,2.17,0,0,0,1.41-.41,1.55,1.55,0,0,0,0-2.26,2.17,2.17,0,0,0-1.41-.41,2.13,2.13,0,0,0-1.4.41,1.55,1.55,0,0,0,0,2.26A2.13,2.13,0,0,0,597,428.9Z"/><path d="M601.9,435l-.46-.35a1.84,1.84,0,0,0,.43-.64,1.7,1.7,0,0,0,.1-.59l.22.2h-.8v-1.23h1.24v.87a3.1,3.1,0,0,1-.07.62,2.32,2.32,0,0,1-.22.57A2.41,2.41,0,0,1,601.9,435Z"/><path d="M607,433.73a3.62,3.62,0,0,1-2.26-.62,2.11,2.11,0,0,1-.8-1.75,2,2,0,0,1,.55-1.46,2.31,2.31,0,0,1,1.43-.71v.18a2.21,2.21,0,0,1-1.29-.74,2,2,0,0,1-.48-1.36,2,2,0,0,1,.76-1.67A3.29,3.29,0,0,1,607,425a4,4,0,0,1,1.53.27,2.2,2.2,0,0,1,1,.78,2.09,2.09,0,0,1,.35,1.22,2.12,2.12,0,0,1-.45,1.36,2,2,0,0,1-1.27.73v-.17a2.19,2.19,0,0,1,1,.37,2.09,2.09,0,0,1,.67.75,2.38,2.38,0,0,1,.23,1.05,2.1,2.1,0,0,1-.79,1.75A3.65,3.65,0,0,1,607,433.73Zm0-.82a2.57,2.57,0,0,0,1.58-.4,1.43,1.43,0,0,0,.53-1.21,1.41,1.41,0,0,0-.53-1.19,3.42,3.42,0,0,0-3.17,0,1.61,1.61,0,0,0,0,2.4A2.57,2.57,0,0,0,607,432.91Zm0-4a2.13,2.13,0,0,0,1.4-.41,1.55,1.55,0,0,0,0-2.26,2.13,2.13,0,0,0-1.4-.41,2.17,2.17,0,0,0-1.41.41,1.55,1.55,0,0,0,0,2.26A2.17,2.17,0,0,0,607,428.9Z"/><path d="M613.34,430.22a1.87,1.87,0,0,1-1.54-.7,3,3,0,0,1-.56-1.91,2.88,2.88,0,0,1,.57-1.91,1.88,1.88,0,0,1,1.53-.69,1.86,1.86,0,0,1,1.54.69,2.88,2.88,0,0,1,.56,1.91,2.92,2.92,0,0,1-.56,1.91A1.84,1.84,0,0,1,613.34,430.22Zm0-.7a1.08,1.08,0,0,0,.93-.48,2.52,2.52,0,0,0,.33-1.43,2.55,2.55,0,0,0-.33-1.44,1.09,1.09,0,0,0-.93-.47,1.07,1.07,0,0,0-.91.47,3.31,3.31,0,0,0,0,2.88A1.07,1.07,0,0,0,613.34,429.52Zm.86,4.1h-.88l5.06-8.51h.88Zm5,.11a1.9,1.9,0,0,1-1.55-.69,3,3,0,0,1-.56-1.93,2.88,2.88,0,0,1,.57-1.91,1.9,1.9,0,0,1,1.54-.67,1.85,1.85,0,0,1,1.54.68,2.87,2.87,0,0,1,.56,1.9,3,3,0,0,1-.56,1.93A1.86,1.86,0,0,1,619.23,433.73Zm0-.7a1,1,0,0,0,.91-.48,2.47,2.47,0,0,0,.34-1.44,2.38,2.38,0,0,0-.34-1.42,1,1,0,0,0-.91-.47,1,1,0,0,0-.91.47,2.46,2.46,0,0,0-.33,1.42,2.57,2.57,0,0,0,.33,1.45A1,1,0,0,0,619.23,433Z"/></g><rect class="cls-5" x="420" y="410.9" width="42.3" height="18.5"/><rect class="cls-5" x="585.1" y="403.6" width="35.2" height="18.5"/><g class="cls-6"><path d="M586.66,417V404.18h1.18L596,415.05h-.42V404.18H597V417h-1.15l-8.19-10.87h.4V417Z"/><path d="M603.49,417.11a3.89,3.89,0,0,1-2.12-.57,3.79,3.79,0,0,1-1.41-1.62,6.75,6.75,0,0,1,0-5.05,3.71,3.71,0,0,1,1.41-1.61,3.88,3.88,0,0,1,2.12-.56,3.61,3.61,0,0,1,2.13.62A3,3,0,0,1,606.8,410h-.22l.2-2.15h1.42c0,.35-.07.7-.1,1.06s-.05.7-.05,1v7h-1.47v-2.14h.2a2.87,2.87,0,0,1-1.19,1.69A3.67,3.67,0,0,1,603.49,417.11Zm-2-10.84-.84-.06a3.07,3.07,0,0,1,.62-1.78,1.65,1.65,0,0,1,1.32-.63,1.49,1.49,0,0,1,.73.18,4,4,0,0,1,.77.57,3.63,3.63,0,0,0,.65.49,1,1,0,0,0,.48.14c.61,0,1-.48,1.12-1.43l.83.05a3.17,3.17,0,0,1-.6,1.79,1.67,1.67,0,0,1-1.32.62,1.54,1.54,0,0,1-.72-.18,4,4,0,0,1-.8-.58,3.61,3.61,0,0,0-.62-.48,1,1,0,0,0-.5-.13.87.87,0,0,0-.75.37A2.16,2.16,0,0,0,601.5,406.27Zm2.28,9.65a2.56,2.56,0,0,0,2.06-.9,4.91,4.91,0,0,0,0-5.25,2.56,2.56,0,0,0-2.06-.9,2.58,2.58,0,0,0-2.06.9,4.86,4.86,0,0,0,0,5.25A2.58,2.58,0,0,0,603.78,415.92Z"/><path d="M614.62,417.11a4.42,4.42,0,0,1-2.27-.57,3.8,3.8,0,0,1-1.49-1.63,6.21,6.21,0,0,1,0-5,3.83,3.83,0,0,1,1.49-1.62,4.86,4.86,0,0,1,4.57,0,3.92,3.92,0,0,1,1.5,1.62,6.21,6.21,0,0,1,0,5,3.89,3.89,0,0,1-1.5,1.63A4.46,4.46,0,0,1,614.62,417.11Zm0-1.19a2.56,2.56,0,0,0,2.07-.9,4.91,4.91,0,0,0,0-5.25,2.8,2.8,0,0,0-4.11,0,4.91,4.91,0,0,0,0,5.25A2.54,2.54,0,0,0,614.62,415.92Z"/></g><path class="cls-3" d="M243.5,152h32.8l151.6-9.1"/><path class="cls-4" d="M429.9,142.9a2,2,0,1,0-2,2,2,2,0,0,0,2-2"/><rect class="cls-5" x="245.8" y="134.1" width="35.5" height="13.6"/><rect class="cls-5" x="246.8" y="155.7" width="35.5" height="18.7"/><rect class="cls-5" x="585.4" y="424.6" width="42.7" height="18.7"/><rect class="cls-5" x="584.3" y="403.3" width="35.5" height="18.7"/></svg>