<svg id="Layer_1" data-name="Layer 1" xmlns="http://www.w3.org/2000/svg" viewBox="0 0 775.8 479.7"><defs><style>.cls-1{fill:#80650f;}.cls-2{fill:#ffc91f;}.cls-3,.cls-5{fill:none;}.cls-3{stroke:#757575;stroke-miterlimit:10;}.cls-4{fill:#9e9e9e;}.cls-6{isolation:isolate;}</style></defs><path class="cls-1" d="M348.1,99.3a155.45,155.45,0,0,1,22.6-1.7V135a106.26,106.26,0,0,0-16.9,1.3Z"/><path class="cls-2" d="M370.7,97.6a149.67,149.67,0,1,1-22.6,1.7l5.6,37a112.24,112.24,0,1,0,17-1.3Z"/><path class="cls-3" d="M177.7,112.5h32.8l151.6-9.1"/><path class="cls-4" d="M364.1,103.4a2,2,0,1,0-2,2,2,2,0,0,0,2-2"/><path class="cls-3" d="M557.6,381h-33L373,390.1"/><path class="cls-4" d="M375,390.1a2,2,0,1,0-2,2,2,2,0,0,0,2-2"/><rect class="cls-5" x="180" y="94.6" width="35.5" height="13.6"/><g class="cls-6"><path d="M185.86,108.16a8.84,8.84,0,0,1-2.78-.4,6.48,6.48,0,0,1-2.14-1.15l.55-1.2a9,9,0,0,0,1.29.79,6.24,6.24,0,0,0,1.4.48,8.6,8.6,0,0,0,1.68.15,4,4,0,0,0,2.41-.6,1.94,1.94,0,0,0,.79-1.61,1.65,1.65,0,0,0-.55-1.32,4.69,4.69,0,0,0-1.92-.73l-1.92-.38A5.32,5.32,0,0,1,182,101a2.92,2.92,0,0,1-.87-2.23,3.45,3.45,0,0,1,.6-2,3.86,3.86,0,0,1,1.67-1.33,6.09,6.09,0,0,1,2.5-.47,7.19,7.19,0,0,1,2.51.41,5.28,5.28,0,0,1,1.93,1.19l-.53,1.17a5.37,5.37,0,0,0-1.8-1.1,6.1,6.1,0,0,0-2.13-.34,3.89,3.89,0,0,0-2.36.65,2.08,2.08,0,0,0-.87,1.76,1.79,1.79,0,0,0,.55,1.4,3.84,3.84,0,0,0,1.81.76l1.93.38a6,6,0,0,1,2.74,1.15,2.7,2.7,0,0,1,.88,2.16,3.24,3.24,0,0,1-.57,1.88,3.8,3.8,0,0,1-1.64,1.28A6.45,6.45,0,0,1,185.86,108.16Z"/><path d="M192.69,96.75V95.08h1.83v1.67Zm.19,11.25V98.83h1.47V108Z"/><path d="M197.22,108v-7c0-.34,0-.69,0-1s-.07-.72-.1-1.07h1.42l.18,2h-.21a3.09,3.09,0,0,1,3.08-2.18,3.08,3.08,0,0,1,1.88.55,2.81,2.81,0,0,1,1,1.7h-.27a3.15,3.15,0,0,1,1.22-1.64,3.56,3.56,0,0,1,2.05-.61,2.88,2.88,0,0,1,2.28.87,4.06,4.06,0,0,1,.77,2.73V108H209v-5.65a3.09,3.09,0,0,0-.46-1.89,1.73,1.73,0,0,0-1.46-.59,2.24,2.24,0,0,0-1.82.8,3.18,3.18,0,0,0-.66,2.12V108h-1.48v-5.65a3.09,3.09,0,0,0-.46-1.89,1.73,1.73,0,0,0-1.46-.59,2.2,2.2,0,0,0-1.81.8,3.18,3.18,0,0,0-.66,2.12V108Z"/></g><rect class="cls-5" x="181.1" y="116.2" width="35.5" height="18.7"/><g class="cls-6"><path d="M182.1,125.14v-.76l3-3.17A5.47,5.47,0,0,0,186,120a2.49,2.49,0,0,0,.3-1.18,1.36,1.36,0,0,0-.47-1.12,2,2,0,0,0-1.34-.39,3.29,3.29,0,0,0-1.26.24,3.75,3.75,0,0,0-1.11.75l-.37-.79a3.57,3.57,0,0,1,1.25-.79,4.24,4.24,0,0,1,1.59-.3,3.59,3.59,0,0,1,1.48.27,2,2,0,0,1,.92.79,2.36,2.36,0,0,1,.32,1.26,3.28,3.28,0,0,1-.4,1.55,7,7,0,0,1-1.15,1.52l-2.69,2.72v-.28h4.6v.87Z"/><path d="M189.64,126.53l-.47-.36a1.86,1.86,0,0,0,.44-.63,1.81,1.81,0,0,0,.1-.61l.22.21h-.8V123.9h1.24v.87a2.59,2.59,0,0,1-.07.63,2.16,2.16,0,0,1-.22.58A2.72,2.72,0,0,1,189.64,126.53Z"/><path d="M195.84,125.14v-1.86h-4.1v-.73l4.25-6h.83v5.91h1.32v.82h-1.32v1.86Zm0-2.68v-4.71h.26l-3.53,5v-.26Z"/><path d="M201.18,121.71a1.92,1.92,0,0,1-1.55-.7,3,3,0,0,1-.57-1.94,2.91,2.91,0,0,1,.58-1.93,1.88,1.88,0,0,1,1.54-.68,1.91,1.91,0,0,1,1.56.68,3,3,0,0,1,.56,1.93,3.07,3.07,0,0,1-.56,1.94A1.92,1.92,0,0,1,201.18,121.71Zm0-.71a1.06,1.06,0,0,0,.93-.48,2.48,2.48,0,0,0,.34-1.45,2.43,2.43,0,0,0-.34-1.44,1.13,1.13,0,0,0-1.85,0,2.51,2.51,0,0,0-.33,1.44,2.55,2.55,0,0,0,.33,1.45A1.07,1.07,0,0,0,201.18,121Zm.87,4.14h-.89l5.1-8.59h.89Zm5.08.11a1.9,1.9,0,0,1-1.57-.7,3.6,3.6,0,0,1,0-3.87,1.94,1.94,0,0,1,1.56-.68,1.91,1.91,0,0,1,1.55.69,2.93,2.93,0,0,1,.57,1.92,3,3,0,0,1-.57,1.94A1.89,1.89,0,0,1,207.13,125.25Zm0-.71a1.07,1.07,0,0,0,.92-.48,3.33,3.33,0,0,0,0-2.89,1.13,1.13,0,0,0-1.85,0,2.55,2.55,0,0,0-.33,1.44,2.61,2.61,0,0,0,.33,1.46A1.08,1.08,0,0,0,207.13,124.54Z"/></g><rect class="cls-5" x="519.6" y="385" width="42.7" height="18.7"/><g class="cls-6"><path d="M522.71,394.11a3.45,3.45,0,0,1-1.35-.29,3.38,3.38,0,0,1-1.13-.75l.37-.79a3,3,0,0,0,1,.71,2.86,2.86,0,0,0,1.1.23,2.24,2.24,0,0,0,1.9-.88,4.4,4.4,0,0,0,.66-2.65v-1.13h.12a2.61,2.61,0,0,1-.42,1.19,2.24,2.24,0,0,1-.89.78,2.66,2.66,0,0,1-1.21.27,2.82,2.82,0,0,1-1.38-.34,2.37,2.37,0,0,1-.94-1,3,3,0,0,1,0-2.84,2.61,2.61,0,0,1,1-1,2.85,2.85,0,0,1,1.44-.36,3.11,3.11,0,0,1,1.78.5,3,3,0,0,1,1.11,1.43,6.07,6.07,0,0,1,.38,2.26,6.45,6.45,0,0,1-.43,2.51,3.32,3.32,0,0,1-1.22,1.57A3.28,3.28,0,0,1,522.71,394.11Zm.38-4.15a1.92,1.92,0,0,0,1-.25,1.7,1.7,0,0,0,.66-.67,2,2,0,0,0,.24-1,2,2,0,0,0-.24-1,1.7,1.7,0,0,0-.66-.67,2,2,0,0,0-1-.25,2,2,0,0,0-1,.25,1.6,1.6,0,0,0-.67.67,2,2,0,0,0-.24,1,2,2,0,0,0,.24,1,1.6,1.6,0,0,0,.67.67A1.89,1.89,0,0,0,523.09,390Z"/><path d="M528.31,394l4.23-8.16v.44h-4.8v-.87h5.71v.76l-4,7.83Z"/><path d="M535.52,395.39l-.46-.35a1.93,1.93,0,0,0,.43-.64,1.83,1.83,0,0,0,.11-.61l.22.21H535v-1.24h1.25v.87a3.2,3.2,0,0,1-.07.63,2.19,2.19,0,0,1-.23.58A2.17,2.17,0,0,1,535.52,395.39Z"/><path d="M541,394.11a3.09,3.09,0,0,1-1.77-.49,3,3,0,0,1-1.11-1.43,6.17,6.17,0,0,1-.37-2.27,6.71,6.71,0,0,1,.42-2.52,3.45,3.45,0,0,1,1.22-1.56,3.3,3.3,0,0,1,1.91-.54,3.44,3.44,0,0,1,1.35.28,2.82,2.82,0,0,1,1.12.76l-.36.78a3,3,0,0,0-1-.7,2.94,2.94,0,0,0-1.11-.23,2.26,2.26,0,0,0-1.91.89,4.37,4.37,0,0,0-.66,2.64v1.14h-.11a2.81,2.81,0,0,1,.42-1.2,2.21,2.21,0,0,1,.88-.78,2.87,2.87,0,0,1,1.22-.26,2.72,2.72,0,0,1,1.38.34,2.39,2.39,0,0,1,.94,1,2.94,2.94,0,0,1,.34,1.41,2.85,2.85,0,0,1-.36,1.44,2.52,2.52,0,0,1-1,1A2.91,2.91,0,0,1,541,394.11Zm-.08-.85a2,2,0,0,0,1-.24,1.66,1.66,0,0,0,.67-.67,2,2,0,0,0,.23-1,2,2,0,0,0-.23-1,1.73,1.73,0,0,0-.67-.67,2,2,0,0,0-1-.24,2,2,0,0,0-1,.24,1.73,1.73,0,0,0-.67.67,2.07,2.07,0,0,0-.23,1,2.13,2.13,0,0,0,.23,1,1.66,1.66,0,0,0,.67.67A2,2,0,0,0,540.88,393.26Z"/><path d="M547.07,390.57a1.9,1.9,0,0,1-1.55-.7,3.57,3.57,0,0,1,0-3.87,1.94,1.94,0,0,1,1.55-.68,1.9,1.9,0,0,1,1.55.68,3.57,3.57,0,0,1,0,3.87A1.89,1.89,0,0,1,547.07,390.57Zm0-.71a1.06,1.06,0,0,0,.93-.48,2.48,2.48,0,0,0,.34-1.45,2.45,2.45,0,0,0-.34-1.44,1.13,1.13,0,0,0-1.85,0,3.33,3.33,0,0,0,0,2.89A1.07,1.07,0,0,0,547.07,389.86Zm.87,4.14h-.89l5.1-8.59H553Zm5.08.11a1.92,1.92,0,0,1-1.57-.69,3,3,0,0,1-.57-1.95,2.89,2.89,0,0,1,.58-1.93,1.94,1.94,0,0,1,1.56-.68,1.91,1.91,0,0,1,1.55.69,2.93,2.93,0,0,1,.56,1.92,3,3,0,0,1-.56,1.94A1.89,1.89,0,0,1,553,394.11Zm0-.71a1,1,0,0,0,.91-.48,3.24,3.24,0,0,0,0-2.89,1,1,0,0,0-.91-.48,1.06,1.06,0,0,0-.93.48,2.55,2.55,0,0,0-.33,1.44,2.61,2.61,0,0,0,.33,1.46A1.06,1.06,0,0,0,553,393.4Z"/></g><rect class="cls-5" x="518.5" y="363.7" width="35.5" height="18.7"/><g class="cls-6"><path d="M520.14,377.19V364.31h1.19l8.25,11h-.42v-11h1.41v12.88H529.4l-8.26-11h.4v11Z"/><path d="M537.11,377.35a4,4,0,0,1-2.14-.57,3.78,3.78,0,0,1-1.41-1.64,6.61,6.61,0,0,1,0-5.09,3.7,3.7,0,0,1,1.41-1.63,4,4,0,0,1,2.14-.57,3.68,3.68,0,0,1,2.15.63,2.94,2.94,0,0,1,1.19,1.71h-.22l.21-2.17h1.42c0,.35-.07.71-.1,1.07s0,.71,0,1.05v7.05h-1.48V375h.21a2.92,2.92,0,0,1-1.21,1.7A3.65,3.65,0,0,1,537.11,377.35Zm-2-10.94-.84-.05a3.13,3.13,0,0,1,.62-1.8,1.67,1.67,0,0,1,1.33-.63,1.6,1.6,0,0,1,.75.18,4.68,4.68,0,0,1,.77.56,3.83,3.83,0,0,0,.65.51,1,1,0,0,0,.48.13c.63,0,1-.48,1.14-1.44l.84.06a3.17,3.17,0,0,1-.61,1.79,1.63,1.63,0,0,1-1.33.64,1.47,1.47,0,0,1-.73-.19,4,4,0,0,1-.8-.58,5,5,0,0,0-.63-.49,1.07,1.07,0,0,0-.51-.13.88.88,0,0,0-.75.37A2.24,2.24,0,0,0,535.1,366.41Zm2.3,9.74a2.59,2.59,0,0,0,2.09-.91,5,5,0,0,0,0-5.29,2.83,2.83,0,0,0-4.16,0,4.87,4.87,0,0,0,0,5.29A2.58,2.58,0,0,0,537.4,376.15Z"/><path d="M548.35,377.35a4.51,4.51,0,0,1-2.3-.57,3.82,3.82,0,0,1-1.5-1.65,6.33,6.33,0,0,1,0-5.07,3.82,3.82,0,0,1,1.5-1.63,4.87,4.87,0,0,1,4.61,0,3.91,3.91,0,0,1,1.51,1.63,6.22,6.22,0,0,1,0,5.07,3.9,3.9,0,0,1-1.51,1.65A4.5,4.5,0,0,1,548.35,377.35Zm0-1.2a2.57,2.57,0,0,0,2.08-.91,4.93,4.93,0,0,0,0-5.29,2.82,2.82,0,0,0-4.15,0,4.93,4.93,0,0,0,0,5.29A2.55,2.55,0,0,0,548.35,376.15Z"/></g></svg>