<svg id="Layer_1" data-name="Layer 1" xmlns="http://www.w3.org/2000/svg" viewBox="0 0 1728 1063.23"><defs><style>.cls-1{fill:#edac2b;}.cls-2{fill:#af841b;}.cls-3{fill:#5b460b;}.cls-4{fill:#ffc91f;}.cls-5{fill:none;stroke:#000;stroke-linecap:round;stroke-linejoin:round;stroke-width:2px;}.cls-6{fill:#101010;}</style></defs><g id="Quantidade_lixo" data-name="Quantidade lixo"><path id="sims" class="cls-1" d="M1134,532.81H505.2V480H1134c16.75,0,30.38,6,30.38,27.1h0C1164.39,528.21,1150.75,532.81,1134,532.81Z"/><path id="sims-2" class="cls-2" d="M1217.25,600.07h-712V547.22h712c16.75,0,30.37,6,30.37,27.11h0C1247.62,595.48,1234,600.07,1217.25,600.07Z"/><path id="naos" class="cls-3" d="M505.2,617h0v41.54h0c21.15,0,20.17-9.3,20.17-20.77h0C525.37,626.33,526.35,617,505.2,617Z"/><path id="naos-2" class="cls-4" d="M505.2,420.25h0v41.54h0c21.15,0,20.17-9.3,20.17-20.77h0C525.37,429.55,526.35,420.25,505.2,420.25Z"/><g id="Base_grafico" data-name="Base grafico"><line class="cls-5" x1="505.2" y1="736.62" x2="1284.9" y2="736.62"/><line class="cls-5" x1="505.2" y1="736.62" x2="505.2" y2="398.41"/><line class="cls-5" x1="505.2" y1="736.62" x2="505.2" y2="740.71"/><line class="cls-5" x1="655.45" y1="736.62" x2="655.45" y2="740.71"/><line class="cls-5" x1="804.05" y1="736.62" x2="804.05" y2="740.71"/><line class="cls-5" x1="954.18" y1="736.62" x2="954.18" y2="740.71"/><line class="cls-5" x1="1103.79" y1="736.62" x2="1103.79" y2="740.71"/><line class="cls-5" x1="1252.9" y1="736.62" x2="1252.9" y2="740.71"/></g></g><path class="cls-6" d="M666.91,387.11a6.09,6.09,0,0,0,1,1.31,12.85,12.85,0,0,0,1.35,1.25l-1.57,1.26a10.21,10.21,0,0,1-1.64-1.48,12,12,0,0,1-1.33-1.82l-.52,0a6.38,6.38,0,0,1-3.24-.79,5.46,5.46,0,0,1-2.12-2.29,7.7,7.7,0,0,1-.74-3.51,7.55,7.55,0,0,1,.74-3.47,5.25,5.25,0,0,1,2.1-2.29,6.45,6.45,0,0,1,3.26-.79,6.32,6.32,0,0,1,3.24.79,5.15,5.15,0,0,1,2.11,2.29,7.68,7.68,0,0,1,.73,3.47,7.5,7.5,0,0,1-.88,3.76A5.15,5.15,0,0,1,666.91,387.11Zm-6.5-6.05a5.44,5.44,0,0,0,1,3.51,3.73,3.73,0,0,0,5.54,0,5.44,5.44,0,0,0,1-3.51,5.33,5.33,0,0,0-1-3.47,3.35,3.35,0,0,0-2.77-1.23,3.39,3.39,0,0,0-2.77,1.21A5.38,5.38,0,0,0,660.41,381.06Zm20.34-2.66v9.09h-2.2v-1.41a2.92,2.92,0,0,1-1.15,1.16,3.41,3.41,0,0,1-1.65.39q-3.33,0-3.33-3.74V378.4h2.23v5.51a2.22,2.22,0,0,0,.39,1.45,1.58,1.58,0,0,0,1.26.47,2,2,0,0,0,1.59-.65,2.46,2.46,0,0,0,.59-1.72V378.4Zm11.14,0v9.09h-2.22V386a3,3,0,0,1-1.19,1.19,3.72,3.72,0,0,1-1.76.41,4,4,0,0,1-2.11-.57,3.87,3.87,0,0,1-1.42-1.64,5.79,5.79,0,0,1-.5-2.47,5.9,5.9,0,0,1,.5-2.48,4,4,0,0,1,1.44-1.69,3.67,3.67,0,0,1,2.09-.62,3.51,3.51,0,0,1,1.76.44,2.74,2.74,0,0,1,1.19,1.17V378.4Zm-4.56,7.47a2.07,2.07,0,0,0,1.73-.78,3.4,3.4,0,0,0,.61-2.17,3.51,3.51,0,0,0-.61-2.22,2.12,2.12,0,0,0-1.75-.77,2.08,2.08,0,0,0-1.74.81A3.52,3.52,0,0,0,685,383a3.33,3.33,0,0,0,.61,2.16A2.15,2.15,0,0,0,687.33,385.87Zm12.21-7.71q3.26,0,3.26,3.75v5.58h-2.25V382a2.38,2.38,0,0,0-.42-1.57,1.53,1.53,0,0,0-1.27-.5,2.18,2.18,0,0,0-1.66.66,2.37,2.37,0,0,0-.63,1.73v5.15h-2.23V381a19.66,19.66,0,0,0-.15-2.57h2.11l.16,1.49a3.3,3.3,0,0,1,1.26-1.28A3.69,3.69,0,0,1,699.54,378.16Zm8.5,1.93v4.07c0,1.07.5,1.6,1.5,1.6a3.47,3.47,0,0,0,.9-.14v1.78a4.38,4.38,0,0,1-1.44.21,3.13,3.13,0,0,1-2.38-.86,3.46,3.46,0,0,1-.83-2.48v-4.18h-1.74V378.4h1.74v-2.22l2.25-.75v3h2.42v1.69Zm4-1.69h2.24v9.09H712Zm2.36-4.12v2.21h-2.5v-2.21Zm11,0v13.25h-2.21V386a3.09,3.09,0,0,1-1.19,1.19,4,4,0,0,1-3.85-.18,4,4,0,0,1-1.44-1.68,5.85,5.85,0,0,1-.51-2.5,5.6,5.6,0,0,1,.51-2.46,3.81,3.81,0,0,1,3.52-2.24,3.49,3.49,0,0,1,1.73.42,2.77,2.77,0,0,1,1.19,1.13v-5.47Zm-4.57,11.63a2.08,2.08,0,0,0,1.73-.78,3.36,3.36,0,0,0,.63-2.19,3.47,3.47,0,0,0-.62-2.2,2.07,2.07,0,0,0-1.72-.77,2.17,2.17,0,0,0-1.77.77,3.37,3.37,0,0,0-.61,2.16,3.55,3.55,0,0,0,.61,2.22A2.13,2.13,0,0,0,720.82,385.87Zm15.72-7.47v9.09h-2.22V386a3,3,0,0,1-1.19,1.19,3.72,3.72,0,0,1-1.76.41,4,4,0,0,1-2.11-.57,3.87,3.87,0,0,1-1.42-1.64,5.79,5.79,0,0,1-.5-2.47,5.9,5.9,0,0,1,.5-2.48,4,4,0,0,1,1.44-1.69,3.67,3.67,0,0,1,2.09-.62,3.51,3.51,0,0,1,1.76.44,2.74,2.74,0,0,1,1.19,1.17V378.4ZM732,385.87a2.07,2.07,0,0,0,1.73-.78,3.4,3.4,0,0,0,.61-2.17,3.51,3.51,0,0,0-.61-2.22,2.12,2.12,0,0,0-1.75-.77,2.08,2.08,0,0,0-1.74.81,3.52,3.52,0,0,0-.61,2.21,3.33,3.33,0,0,0,.61,2.16A2.15,2.15,0,0,0,732,385.87Zm15.7-11.63v13.25h-2.21V386a3.09,3.09,0,0,1-1.19,1.19,4,4,0,0,1-3.85-.18,4,4,0,0,1-1.44-1.68,5.85,5.85,0,0,1-.51-2.5,5.6,5.6,0,0,1,.51-2.46,3.81,3.81,0,0,1,3.52-2.24,3.49,3.49,0,0,1,1.73.42,2.77,2.77,0,0,1,1.19,1.13v-5.47Zm-4.57,11.63a2.08,2.08,0,0,0,1.73-.78,3.36,3.36,0,0,0,.63-2.19,3.47,3.47,0,0,0-.62-2.2,2.07,2.07,0,0,0-1.72-.77,2.17,2.17,0,0,0-1.77.77,3.37,3.37,0,0,0-.61,2.16,3.55,3.55,0,0,0,.61,2.22A2.13,2.13,0,0,0,743.11,385.87Zm15-2.81h-6.27a3.39,3.39,0,0,0,.72,2.16,2.61,2.61,0,0,0,2,.68,4.5,4.5,0,0,0,2.78-1l.64,1.55a5.16,5.16,0,0,1-1.6.85,6.2,6.2,0,0,1-1.91.3,4.81,4.81,0,0,1-3.51-1.26,4.63,4.63,0,0,1-1.27-3.45,5.32,5.32,0,0,1,.55-2.47,4.09,4.09,0,0,1,1.57-1.67,4.29,4.29,0,0,1,2.29-.62,3.73,3.73,0,0,1,3,1.23,4.76,4.76,0,0,1,1.1,3.33Zm-4-3.28a2.09,2.09,0,0,0-1.48.54,2.62,2.62,0,0,0-.72,1.53h4.23a2.43,2.43,0,0,0-.63-1.54A1.84,1.84,0,0,0,754.09,379.78Zm19.53-5.54v13.25h-2.21V386a3,3,0,0,1-1.19,1.19,3.72,3.72,0,0,1-1.76.41,3.81,3.81,0,0,1-2.09-.59,4.1,4.1,0,0,1-1.44-1.68,5.84,5.84,0,0,1-.5-2.5,5.6,5.6,0,0,1,.5-2.46,3.81,3.81,0,0,1,3.53-2.24,3.52,3.52,0,0,1,1.73.42,2.74,2.74,0,0,1,1.18,1.13v-5.47Zm-4.57,11.63a2.07,2.07,0,0,0,1.73-.78,3.36,3.36,0,0,0,.63-2.19,3.47,3.47,0,0,0-.61-2.2,2.1,2.1,0,0,0-1.73-.77,2.15,2.15,0,0,0-1.76.77,3.37,3.37,0,0,0-.62,2.16,3.55,3.55,0,0,0,.62,2.22A2.12,2.12,0,0,0,769.05,385.87Zm15-2.81h-6.26a3.39,3.39,0,0,0,.72,2.16,2.6,2.6,0,0,0,2,.68,4.45,4.45,0,0,0,2.77-1l.65,1.55a5.27,5.27,0,0,1-1.6.85,6.25,6.25,0,0,1-1.91.3,4.78,4.78,0,0,1-3.51-1.26,4.63,4.63,0,0,1-1.28-3.45,5.32,5.32,0,0,1,.56-2.47,4,4,0,0,1,1.57-1.67,4.28,4.28,0,0,1,2.28-.62,3.72,3.72,0,0,1,2.95,1.23,4.71,4.71,0,0,1,1.1,3.33Zm-4-3.28a2.07,2.07,0,0,0-1.48.54,2.62,2.62,0,0,0-.72,1.53h4.23a2.43,2.43,0,0,0-.63-1.54A1.85,1.85,0,0,0,780,379.78Zm13.7.31v4.07c0,1.07.5,1.6,1.49,1.6a3.35,3.35,0,0,0,.9-.14v1.78a4.29,4.29,0,0,1-1.44.21,3.11,3.11,0,0,1-2.37-.86,3.41,3.41,0,0,1-.83-2.48v-4.18h-1.75V378.4h1.75v-2.22l2.25-.75v3h2.41v1.69Zm4-1.69h2.23v9.09H797.7Zm2.35-4.12v2.21h-2.5v-2.21Zm7.52,3.88a3.58,3.58,0,0,1,2.07.62,3.85,3.85,0,0,1,1.43,1.69,5.76,5.76,0,0,1,.52,2.48,5.65,5.65,0,0,1-.51,2.47,3.72,3.72,0,0,1-3.51,2.21,3.75,3.75,0,0,1-1.76-.41,3,3,0,0,1-1.19-1.19v5.35h-2.23V381a21.74,21.74,0,0,0-.14-2.57h2.1l.18,1.56a2.71,2.71,0,0,1,1.17-1.31A3.62,3.62,0,0,1,807.57,378.16Zm-.61,7.71a2.11,2.11,0,0,0,1.75-.76,3.33,3.33,0,0,0,.61-2.16,3.52,3.52,0,0,0-.61-2.21,2.05,2.05,0,0,0-1.73-.81,2.11,2.11,0,0,0-1.76.77,3.51,3.51,0,0,0-.62,2.22,3.44,3.44,0,0,0,.62,2.19A2.09,2.09,0,0,0,807,385.87Zm10.71,1.76a5.05,5.05,0,0,1-2.44-.57,4,4,0,0,1-1.62-1.64,5.32,5.32,0,0,1-.56-2.52,5.18,5.18,0,0,1,.56-2.5,3.93,3.93,0,0,1,1.62-1.66,5.06,5.06,0,0,1,2.44-.58,5,5,0,0,1,2.42.58,3.89,3.89,0,0,1,1.6,1.66,5.19,5.19,0,0,1,.57,2.5,5.32,5.32,0,0,1-.57,2.52,4,4,0,0,1-1.6,1.64A5,5,0,0,1,817.67,387.63Zm0-1.76a2.11,2.11,0,0,0,1.74-.74,4.36,4.36,0,0,0,0-4.45,2.34,2.34,0,0,0-3.47,0,3.47,3.47,0,0,0-.61,2.22,3.53,3.53,0,0,0,.59,2.23A2.15,2.15,0,0,0,817.66,385.87Zm9.87,1.76a6.14,6.14,0,0,1-3.92-1.15l.63-1.58a5.44,5.44,0,0,0,3.33,1.08,2.35,2.35,0,0,0,1.24-.27.85.85,0,0,0,.45-.76.78.78,0,0,0-.3-.65,2.78,2.78,0,0,0-1.05-.43l-1.51-.34c-1.66-.36-2.48-1.21-2.48-2.54a2.4,2.4,0,0,1,.46-1.46,3.09,3.09,0,0,1,1.32-1,5,5,0,0,1,2-.36,5.87,5.87,0,0,1,1.87.31,4.68,4.68,0,0,1,1.59.85l-.67,1.53a4.64,4.64,0,0,0-2.81-1,2.07,2.07,0,0,0-1.2.29.9.9,0,0,0-.44.79.83.83,0,0,0,.26.63,2.24,2.24,0,0,0,.9.39l1.54.35a3.83,3.83,0,0,1,2,.95,2.24,2.24,0,0,1,.63,1.66,2.34,2.34,0,0,1-1,2A4.52,4.52,0,0,1,827.53,387.63Zm19.33-13.39v13.25h-2.22V386a3,3,0,0,1-1.19,1.19,3.72,3.72,0,0,1-1.76.41,3.81,3.81,0,0,1-2.09-.59,4.1,4.1,0,0,1-1.44-1.68,6,6,0,0,1-.5-2.5,5.75,5.75,0,0,1,.5-2.46,3.81,3.81,0,0,1,3.53-2.24,3.52,3.52,0,0,1,1.73.42,2.82,2.82,0,0,1,1.19,1.13v-5.47Zm-4.58,11.63a2.07,2.07,0,0,0,1.73-.78,3.36,3.36,0,0,0,.63-2.19,3.47,3.47,0,0,0-.61-2.2,2.09,2.09,0,0,0-1.73-.77,2.16,2.16,0,0,0-1.76.77,3.37,3.37,0,0,0-.61,2.16,3.55,3.55,0,0,0,.61,2.22A2.12,2.12,0,0,0,842.28,385.87Zm15-2.81H851a3.39,3.39,0,0,0,.72,2.16,2.6,2.6,0,0,0,2,.68,4.45,4.45,0,0,0,2.77-1l.65,1.55a5.27,5.27,0,0,1-1.6.85,6.25,6.25,0,0,1-1.91.3,4.78,4.78,0,0,1-3.51-1.26,4.63,4.63,0,0,1-1.28-3.45,5.32,5.32,0,0,1,.56-2.47,4,4,0,0,1,1.57-1.67,4.28,4.28,0,0,1,2.28-.62,3.72,3.72,0,0,1,2.95,1.23,4.71,4.71,0,0,1,1.1,3.33Zm-4-3.28a2.07,2.07,0,0,0-1.48.54,2.62,2.62,0,0,0-.72,1.53h4.23a2.43,2.43,0,0,0-.63-1.54A1.85,1.85,0,0,0,853.27,379.78Zm10.84-5.54h2.23v13.25h-2.23Zm4.69,4.16H871v9.09H868.8Zm2.36-4.12v2.21h-2.5v-2.21Zm11.17,13.21h-2.68l-2.45-3.08-2.45,3.08h-2.66l3.82-4.68-3.59-4.41H875l2.21,2.82,2.22-2.82h2.68l-3.58,4.41Zm5,.14a5.09,5.09,0,0,1-2.45-.57,4,4,0,0,1-1.62-1.64,5.44,5.44,0,0,1-.56-2.52,5.3,5.3,0,0,1,.56-2.5,3.93,3.93,0,0,1,1.62-1.66,5.1,5.1,0,0,1,2.45-.58,5,5,0,0,1,2.41.58,3.83,3.83,0,0,1,1.6,1.66,5.08,5.08,0,0,1,.58,2.5,5.21,5.21,0,0,1-.58,2.52,3.89,3.89,0,0,1-1.6,1.64A5,5,0,0,1,887.32,387.63Zm0-1.76a2.13,2.13,0,0,0,1.75-.74,4.36,4.36,0,0,0,0-4.45,2.35,2.35,0,0,0-3.48,0,3.47,3.47,0,0,0-.61,2.22,3.6,3.6,0,0,0,.59,2.23A2.15,2.15,0,0,0,887.3,385.87ZM904,378.16a3.58,3.58,0,0,1,2.07.62,3.83,3.83,0,0,1,1.42,1.69,6.15,6.15,0,0,1,0,4.95,3.72,3.72,0,0,1-3.51,2.21,3.72,3.72,0,0,1-1.76-.41A3,3,0,0,1,901,386v5.35h-2.23V381a19.66,19.66,0,0,0-.15-2.57h2.11l.18,1.56a2.71,2.71,0,0,1,1.17-1.31A3.59,3.59,0,0,1,904,378.16Zm-.61,7.71a2.11,2.11,0,0,0,1.75-.76,3.39,3.39,0,0,0,.61-2.16,3.58,3.58,0,0,0-.61-2.21,2.05,2.05,0,0,0-1.73-.81,2.14,2.14,0,0,0-1.77.77,3.58,3.58,0,0,0-.61,2.22,3.5,3.5,0,0,0,.61,2.19A2.11,2.11,0,0,0,903.36,385.87Zm10.71,1.76a5.12,5.12,0,0,1-2.45-.57,4.12,4.12,0,0,1-1.62-1.64,5.44,5.44,0,0,1-.55-2.52,5.3,5.3,0,0,1,.55-2.5,4.05,4.05,0,0,1,1.62-1.66,5.13,5.13,0,0,1,2.45-.58,4.94,4.94,0,0,1,2.41.58,3.91,3.91,0,0,1,1.61,1.66,5.19,5.19,0,0,1,.57,2.5,5.32,5.32,0,0,1-.57,2.52,4,4,0,0,1-1.61,1.64A4.93,4.93,0,0,1,914.07,387.63Zm0-1.76a2.13,2.13,0,0,0,1.75-.74,4.36,4.36,0,0,0,0-4.45,2.34,2.34,0,0,0-3.47,0,3.47,3.47,0,0,0-.62,2.22,3.53,3.53,0,0,0,.6,2.23A2.15,2.15,0,0,0,914.05,385.87Zm11.45-7.69a2.42,2.42,0,0,1,.9.15l0,2.05a3,3,0,0,0-1.19-.24,2.28,2.28,0,0,0-1.76.67,2.52,2.52,0,0,0-.6,1.76v4.92H920.6V381a21.74,21.74,0,0,0-.14-2.57h2.1l.18,1.6a2.71,2.71,0,0,1,1.08-1.35A3.1,3.1,0,0,1,925.5,378.18Zm15.37.22v9.09h-2.19v-1.41a3,3,0,0,1-1.16,1.16,3.41,3.41,0,0,1-1.65.39q-3.33,0-3.33-3.74V378.4h2.23v5.51a2.17,2.17,0,0,0,.4,1.45,1.55,1.55,0,0,0,1.26.47,2,2,0,0,0,1.58-.65,2.41,2.41,0,0,0,.59-1.72V378.4Zm7.65-.24q3.26,0,3.25,3.75v5.58h-2.25V382a2.38,2.38,0,0,0-.41-1.57,1.55,1.55,0,0,0-1.28-.5,2.18,2.18,0,0,0-1.65.66,2.37,2.37,0,0,0-.63,1.73v5.15h-2.24V381a19.79,19.79,0,0,0-.14-2.57h2.11l.16,1.49a3.3,3.3,0,0,1,1.26-1.28A3.67,3.67,0,0,1,948.52,378.16Zm5.64.24h2.23v9.09h-2.23Zm2.36-4.12v2.21H954v-2.21Zm11,0v13.25h-2.22V386a3,3,0,0,1-1.19,1.19,3.72,3.72,0,0,1-1.76.41,3.81,3.81,0,0,1-2.09-.59,4.1,4.1,0,0,1-1.44-1.68,6,6,0,0,1-.5-2.5,5.75,5.75,0,0,1,.5-2.46,3.81,3.81,0,0,1,3.53-2.24,3.52,3.52,0,0,1,1.73.42,2.82,2.82,0,0,1,1.19,1.13v-5.47ZM963,385.87a2.07,2.07,0,0,0,1.73-.78,3.36,3.36,0,0,0,.63-2.19,3.47,3.47,0,0,0-.61-2.2,2.09,2.09,0,0,0-1.73-.77,2.16,2.16,0,0,0-1.76.77,3.37,3.37,0,0,0-.61,2.16,3.55,3.55,0,0,0,.61,2.22A2.12,2.12,0,0,0,963,385.87Zm15.72-7.47v9.09h-2.21V386a3,3,0,0,1-1.19,1.19,3.75,3.75,0,0,1-1.76.41,3.9,3.9,0,0,1-2.11-.57,3.8,3.8,0,0,1-1.42-1.64,5.65,5.65,0,0,1-.51-2.47,5.75,5.75,0,0,1,.51-2.48,4,4,0,0,1,1.44-1.69,3.67,3.67,0,0,1,2.09-.62,3.54,3.54,0,0,1,1.76.44,2.8,2.8,0,0,1,1.19,1.17V378.4Zm-4.55,7.47a2.08,2.08,0,0,0,1.73-.78,3.46,3.46,0,0,0,.61-2.17,3.58,3.58,0,0,0-.61-2.22,2.33,2.33,0,0,0-3.5,0,3.58,3.58,0,0,0-.61,2.21,3.39,3.39,0,0,0,.61,2.16A2.16,2.16,0,0,0,974.14,385.87Zm15.7-11.63v13.25h-2.22V386a3,3,0,0,1-1.19,1.19,3.72,3.72,0,0,1-1.76.41,3.81,3.81,0,0,1-2.09-.59,4.1,4.1,0,0,1-1.44-1.68,6,6,0,0,1-.5-2.5,5.75,5.75,0,0,1,.5-2.46,3.81,3.81,0,0,1,3.53-2.24,3.52,3.52,0,0,1,1.73.42,2.82,2.82,0,0,1,1.19,1.13v-5.47Zm-4.58,11.63a2.07,2.07,0,0,0,1.73-.78,3.36,3.36,0,0,0,.63-2.19,3.47,3.47,0,0,0-.61-2.2,2.09,2.09,0,0,0-1.73-.77,2.16,2.16,0,0,0-1.76.77,3.37,3.37,0,0,0-.61,2.16,3.55,3.55,0,0,0,.61,2.22A2.12,2.12,0,0,0,985.26,385.87Zm15-2.81H994a3.39,3.39,0,0,0,.72,2.16,2.6,2.6,0,0,0,2,.68,4.45,4.45,0,0,0,2.77-1l.65,1.55a5.27,5.27,0,0,1-1.6.85,6.25,6.25,0,0,1-1.91.3,4.78,4.78,0,0,1-3.51-1.26,4.63,4.63,0,0,1-1.28-3.45,5.32,5.32,0,0,1,.56-2.47,4,4,0,0,1,1.57-1.67,4.28,4.28,0,0,1,2.28-.62,3.72,3.72,0,0,1,2.95,1.23,4.71,4.71,0,0,1,1.1,3.33Zm-4-3.28a2.07,2.07,0,0,0-1.48.54,2.62,2.62,0,0,0-.72,1.53h4.23a2.43,2.43,0,0,0-.63-1.54A1.85,1.85,0,0,0,996.25,379.78Zm16-1.62q3.26,0,3.26,3.75v5.58h-2.25V382a2.38,2.38,0,0,0-.42-1.57,1.53,1.53,0,0,0-1.27-.5,2.18,2.18,0,0,0-1.66.66,2.37,2.37,0,0,0-.63,1.73v5.15h-2.23V381a19.66,19.66,0,0,0-.15-2.57h2.11l.16,1.49a3.3,3.3,0,0,1,1.26-1.28A3.69,3.69,0,0,1,1012.29,378.16Zm9.76,9.47a5.05,5.05,0,0,1-2.44-.57,4,4,0,0,1-1.62-1.64,5.32,5.32,0,0,1-.56-2.52,5.18,5.18,0,0,1,.56-2.5,3.93,3.93,0,0,1,1.62-1.66,5.06,5.06,0,0,1,2.44-.58,5,5,0,0,1,2.42.58,3.89,3.89,0,0,1,1.6,1.66,5.19,5.19,0,0,1,.57,2.5,5.32,5.32,0,0,1-.57,2.52,4,4,0,0,1-1.6,1.64A5,5,0,0,1,1022.05,387.63Zm0-1.76a2.11,2.11,0,0,0,1.74-.74,4.36,4.36,0,0,0,0-4.45,2.34,2.34,0,0,0-3.47,0,3.47,3.47,0,0,0-.61,2.22,3.53,3.53,0,0,0,.59,2.23A2.15,2.15,0,0,0,1022,385.87Zm24.14-11.2v12.82h-2v-8l-3.41,8h-1.53l-3.42-7.87v7.87h-2V374.67h1.84l4.41,10,4.37-10Zm11.33,3.73v9.09h-2.21V386a3,3,0,0,1-1.19,1.19,3.75,3.75,0,0,1-1.76.41,3.9,3.9,0,0,1-2.11-.57,3.8,3.8,0,0,1-1.42-1.64,5.65,5.65,0,0,1-.51-2.47,5.75,5.75,0,0,1,.51-2.48,4,4,0,0,1,1.44-1.69,3.67,3.67,0,0,1,2.09-.62,3.54,3.54,0,0,1,1.76.44,2.8,2.8,0,0,1,1.19,1.17V378.4Zm-4.55,7.47a2.08,2.08,0,0,0,1.73-.78,3.46,3.46,0,0,0,.61-2.17,3.58,3.58,0,0,0-.61-2.22,2.33,2.33,0,0,0-3.5,0,3.58,3.58,0,0,0-.61,2.21,3.39,3.39,0,0,0,.61,2.16A2.16,2.16,0,0,0,1053,385.87Zm11.9-7.69a2.42,2.42,0,0,1,.9.15l0,2.05a3,3,0,0,0-1.19-.24,2.28,2.28,0,0,0-1.76.67,2.52,2.52,0,0,0-.6,1.76v4.92H1060V381a21.74,21.74,0,0,0-.14-2.57h2.1l.18,1.6a2.71,2.71,0,0,1,1.08-1.35A3.1,3.1,0,0,1,1064.86,378.18Zm10.67.22v9.09h-2.21V386a3.09,3.09,0,0,1-1.19,1.19,3.79,3.79,0,0,1-1.77.41,3.89,3.89,0,0,1-2.1-.57,3.8,3.8,0,0,1-1.42-1.64,5.65,5.65,0,0,1-.51-2.47,5.75,5.75,0,0,1,.51-2.48,3.87,3.87,0,0,1,1.44-1.69,3.64,3.64,0,0,1,2.08-.62,3.57,3.57,0,0,1,1.77.44,2.86,2.86,0,0,1,1.19,1.17V378.4Zm-4.55,7.47a2,2,0,0,0,1.72-.78,3.4,3.4,0,0,0,.62-2.17,3.51,3.51,0,0,0-.62-2.22,2.32,2.32,0,0,0-3.49,0,3.52,3.52,0,0,0-.61,2.21,3.33,3.33,0,0,0,.61,2.16A2.16,2.16,0,0,0,1071,385.87Zm12.2-7.71q3.25,0,3.26,3.75v5.58h-2.25V382a2.44,2.44,0,0,0-.41-1.57,1.56,1.56,0,0,0-1.28-.5,2.18,2.18,0,0,0-1.66.66,2.37,2.37,0,0,0-.63,1.73v5.15H1078V381a21.74,21.74,0,0,0-.14-2.57h2.1l.16,1.49a3.44,3.44,0,0,1,1.26-1.28A3.69,3.69,0,0,1,1083.18,378.16Zm10.85,0q3.26,0,3.26,3.75v5.58H1095V382a2.38,2.38,0,0,0-.42-1.57,1.54,1.54,0,0,0-1.28-.5,2.18,2.18,0,0,0-1.65.66,2.37,2.37,0,0,0-.63,1.73v5.15h-2.23V374.24h2.23v5.47a3.07,3.07,0,0,1,1.24-1.13A3.57,3.57,0,0,1,1094,378.16Zm14.34.24v9.09h-2.22V386a3,3,0,0,1-1.19,1.19,3.72,3.72,0,0,1-1.76.41,4,4,0,0,1-2.11-.57,3.87,3.87,0,0,1-1.42-1.64,5.79,5.79,0,0,1-.5-2.47,5.9,5.9,0,0,1,.5-2.48,4,4,0,0,1,1.44-1.69,3.67,3.67,0,0,1,2.09-.62,3.51,3.51,0,0,1,1.76.44,2.74,2.74,0,0,1,1.19,1.17V378.4Zm-4.56,7.47a2.07,2.07,0,0,0,1.73-.78,3.4,3.4,0,0,0,.61-2.17,3.51,3.51,0,0,0-.61-2.22,2.12,2.12,0,0,0-1.75-.77,2.08,2.08,0,0,0-1.74.81,3.52,3.52,0,0,0-.61,2.21,3.33,3.33,0,0,0,.61,2.16A2.15,2.15,0,0,0,1103.81,385.87Zm-2.88-9.33a2.76,2.76,0,0,1,.51-1.8,1.61,1.61,0,0,1,1.33-.63,1.47,1.47,0,0,1,.65.15,5.06,5.06,0,0,1,.79.41c.24.15.44.25.59.33a1.06,1.06,0,0,0,.43.1.66.66,0,0,0,.56-.25,1.17,1.17,0,0,0,.25-.68h1a2.9,2.9,0,0,1-.5,1.82,1.67,1.67,0,0,1-1.34.61,1.56,1.56,0,0,1-.64-.13,7.75,7.75,0,0,1-.8-.41,2.11,2.11,0,0,0-1-.43.73.73,0,0,0-.58.25,1.21,1.21,0,0,0-.23.66Zm14,11.09a5.09,5.09,0,0,1-2.45-.57,4,4,0,0,1-1.62-1.64,5.44,5.44,0,0,1-.56-2.52,5.3,5.3,0,0,1,.56-2.5,3.93,3.93,0,0,1,1.62-1.66,5.1,5.1,0,0,1,2.45-.58,5,5,0,0,1,2.41.58,3.83,3.83,0,0,1,1.6,1.66,5.08,5.08,0,0,1,.58,2.5,5.21,5.21,0,0,1-.58,2.52,3.89,3.89,0,0,1-1.6,1.64A5,5,0,0,1,1114.94,387.63Zm0-1.76a2.13,2.13,0,0,0,1.75-.74,4.36,4.36,0,0,0,0-4.45,2.35,2.35,0,0,0-3.48,0,3.47,3.47,0,0,0-.61,2.22,3.6,3.6,0,0,0,.59,2.23A2.15,2.15,0,0,0,1114.92,385.87Z"/><path class="cls-6" d="M825.2,795.27a10,10,0,0,0,2.33,2.72l-1,.94a9.94,9.94,0,0,1-1.51-1.48,12.79,12.79,0,0,1-1.32-1.85l-.63,0a5.85,5.85,0,0,1-3.09-.79,5.24,5.24,0,0,1-2-2.27,9.05,9.05,0,0,1,0-7,5.14,5.14,0,0,1,2-2.27,6.54,6.54,0,0,1,6.23,0,5.12,5.12,0,0,1,2,2.27,8,8,0,0,1,.71,3.47,7.6,7.6,0,0,1-1,4A5,5,0,0,1,825.2,795.27Zm-6.48-6.21a6.05,6.05,0,0,0,1.14,3.93,4.34,4.34,0,0,0,6.35,0,6.05,6.05,0,0,0,1.14-3.93,5.93,5.93,0,0,0-1.14-3.9,3.83,3.83,0,0,0-3.17-1.37,3.88,3.88,0,0,0-3.18,1.38A5.94,5.94,0,0,0,818.72,789.06ZM839,786.43v9.06h-1.42v-1.57a3,3,0,0,1-1.21,1.26,3.45,3.45,0,0,1-1.74.43,3.13,3.13,0,0,1-2.43-.9,3.8,3.8,0,0,1-.83-2.66v-5.62h1.46V792a2.71,2.71,0,0,0,.5,1.8,1.92,1.92,0,0,0,1.53.58,2.6,2.6,0,0,0,1.95-.77,2.93,2.93,0,0,0,.73-2.07v-5.12Zm10.79,0v9.06h-1.44v-1.64a3,3,0,0,1-1.21,1.31,3.7,3.7,0,0,1-1.85.45,3.94,3.94,0,0,1-2.13-.57,3.89,3.89,0,0,1-1.4-1.62,5.79,5.79,0,0,1-.49-2.47,5.6,5.6,0,0,1,.51-2.46,3.94,3.94,0,0,1,1.4-1.68,3.83,3.83,0,0,1,2.11-.59,3.51,3.51,0,0,1,1.85.47,3.07,3.07,0,0,1,1.21,1.31v-1.57Zm-4.22,8a2.49,2.49,0,0,0,2.06-.9,4.11,4.11,0,0,0,.72-2.59,4,4,0,0,0-.72-2.58,2.79,2.79,0,0,0-4.14,0,4,4,0,0,0-.74,2.57,3.89,3.89,0,0,0,.74,2.56A2.53,2.53,0,0,0,845.55,794.41Zm11.55-8.19c2.18,0,3.26,1.19,3.26,3.58v5.69H858.9v-5.62a2.71,2.71,0,0,0-.5-1.83,2,2,0,0,0-1.58-.6,2.68,2.68,0,0,0-2,.78,2.86,2.86,0,0,0-.76,2.08v5.19h-1.45V789a19.62,19.62,0,0,0-.15-2.54h1.39l.14,1.62a3.06,3.06,0,0,1,1.24-1.35A3.74,3.74,0,0,1,857.1,786.22Zm8,1.37v4.95a2,2,0,0,0,.41,1.42,1.65,1.65,0,0,0,1.17.39,2.86,2.86,0,0,0,1-.16v1.24a4.08,4.08,0,0,1-1.26.18,2.78,2.78,0,0,1-2-.72,3,3,0,0,1-.72-2.16v-5.14h-1.76v-1.16h1.76v-2.32l1.46-.52v2.84h2.59v1.16Zm4.35-1.16h1.46v9.06h-1.46Zm1.64-3.83v1.66h-1.79V782.6Zm10.62-.36v13.25h-1.44v-1.64a2.89,2.89,0,0,1-1.21,1.31,3.65,3.65,0,0,1-1.85.45,3.79,3.79,0,0,1-2.11-.59,4,4,0,0,1-1.4-1.66,5.72,5.72,0,0,1-.5-2.48,5.82,5.82,0,0,1,.48-2.45,3.87,3.87,0,0,1,1.42-1.64,4,4,0,0,1,2.11-.57,3.46,3.46,0,0,1,1.85.47,2.81,2.81,0,0,1,1.19,1.27v-5.72Zm-4.21,12.17a2.47,2.47,0,0,0,2-.9,4.11,4.11,0,0,0,.72-2.59,4,4,0,0,0-.72-2.56,2.46,2.46,0,0,0-2-.92,2.58,2.58,0,0,0-2.09.9,3.92,3.92,0,0,0-.74,2.54,4.12,4.12,0,0,0,.74,2.61A2.56,2.56,0,0,0,877.46,794.41Zm15-8v9.06H891v-1.64a2.87,2.87,0,0,1-1.2,1.31,3.71,3.71,0,0,1-1.86.45,3.93,3.93,0,0,1-2.12-.57,3.89,3.89,0,0,1-1.4-1.62,6.39,6.39,0,0,1,0-4.93,4,4,0,0,1,1.41-1.68,3.82,3.82,0,0,1,2.1-.59,3.52,3.52,0,0,1,1.86.47A3,3,0,0,1,891,788v-1.57Zm-4.21,8a2.47,2.47,0,0,0,2-.9,4.11,4.11,0,0,0,.72-2.59,4,4,0,0,0-.72-2.58,2.47,2.47,0,0,0-2-.9,2.53,2.53,0,0,0-2.09.94,4,4,0,0,0-.73,2.57,3.94,3.94,0,0,0,.73,2.56A2.56,2.56,0,0,0,888.25,794.41Zm15-12.17v13.25h-1.44v-1.64a3,3,0,0,1-1.21,1.31,3.7,3.7,0,0,1-1.85.45,3.75,3.75,0,0,1-2.11-.59,3.94,3.94,0,0,1-1.4-1.66,6.33,6.33,0,0,1,0-4.93,3.8,3.8,0,0,1,1.42-1.64,3.9,3.9,0,0,1,2.11-.57,3.51,3.51,0,0,1,1.85.47A2.87,2.87,0,0,1,901.8,788v-5.72ZM899,794.41a2.49,2.49,0,0,0,2.06-.9,4.11,4.11,0,0,0,.72-2.59,4,4,0,0,0-.72-2.56,2.48,2.48,0,0,0-2.06-.92,2.57,2.57,0,0,0-2.08.9,3.87,3.87,0,0,0-.74,2.54,4.06,4.06,0,0,0,.74,2.61A2.55,2.55,0,0,0,899,794.41Zm14.61-3.49H907a4,4,0,0,0,.79,2.61,3,3,0,0,0,2.29.88,4.63,4.63,0,0,0,2.92-1.06l.48,1.06a4.19,4.19,0,0,1-1.53.88,5.52,5.52,0,0,1-1.89.32,4.44,4.44,0,0,1-3.33-1.24,4.77,4.77,0,0,1-1.2-3.44,5.28,5.28,0,0,1,.54-2.44,4,4,0,0,1,1.51-1.68,4.2,4.2,0,0,1,2.21-.59,3.53,3.53,0,0,1,2.83,1.19,4.77,4.77,0,0,1,1,3.24Zm-3.83-3.57A2.55,2.55,0,0,0,908,788a3.27,3.27,0,0,0-.9,1.92h5.27a3,3,0,0,0-.76-1.94A2.28,2.28,0,0,0,909.82,787.35Zm4.32,9.13L918.76,782h1.35l-4.64,14.47Zm8.72-8.89v4.95a2,2,0,0,0,.41,1.42,1.65,1.65,0,0,0,1.17.39,2.86,2.86,0,0,0,1-.16v1.24a4.08,4.08,0,0,1-1.26.18,2.78,2.78,0,0,1-2-.72,3,3,0,0,1-.72-2.16v-5.14h-1.77v-1.16h1.77v-2.32l1.46-.52v2.84h2.59v1.16Zm8.09,8a4.38,4.38,0,0,1-2.25-.57,3.93,3.93,0,0,1-1.51-1.64,6.09,6.09,0,0,1,0-5,3.93,3.93,0,0,1,1.51-1.64,4.73,4.73,0,0,1,4.5,0,3.82,3.82,0,0,1,1.49,1.64,6,6,0,0,1,0,5A3.82,3.82,0,0,1,933.2,795,4.38,4.38,0,0,1,931,795.61Zm0-1.2a2.54,2.54,0,0,0,2.07-.88,4.1,4.1,0,0,0,.72-2.61,3.94,3.94,0,0,0-.74-2.56,2.77,2.77,0,0,0-4.12,0,3.94,3.94,0,0,0-.74,2.56,4.1,4.1,0,0,0,.72,2.61A2.6,2.6,0,0,0,931,794.41ZM942,786.22c2.18,0,3.26,1.19,3.26,3.58v5.69h-1.46v-5.62a2.71,2.71,0,0,0-.5-1.83,2,2,0,0,0-1.58-.6,2.68,2.68,0,0,0-2,.78,2.86,2.86,0,0,0-.76,2.08v5.19h-1.45V789a19.62,19.62,0,0,0-.15-2.54h1.39l.14,1.62a3.06,3.06,0,0,1,1.24-1.35A3.74,3.74,0,0,1,942,786.22Z"/><path class="cls-6" d="M507.5,761.63a3.83,3.83,0,0,1-3.35-1.65,8.72,8.72,0,0,1-1.14-4.9,8.62,8.62,0,0,1,1.14-4.88,4.17,4.17,0,0,1,6.68,0,8.59,8.59,0,0,1,1.15,4.86,8.71,8.71,0,0,1-1.15,4.9A3.78,3.78,0,0,1,507.5,761.63Zm0-1.24a2.39,2.39,0,0,0,2.25-1.3,11.45,11.45,0,0,0,0-8,2.4,2.4,0,0,0-2.26-1.28,2.43,2.43,0,0,0-2.27,1.28,8.43,8.43,0,0,0-.72,4,8.68,8.68,0,0,0,.72,4A2.43,2.43,0,0,0,507.5,760.39Z"/><path class="cls-6" d="M632.55,760.25v1.24H625.4v-1.24h2.83v-9.74l-2.63,1.67v-1.42l3.27-2.09h.85v11.58Zm6.74,1.38a3.83,3.83,0,0,1-3.35-1.65,8.73,8.73,0,0,1-1.13-4.9,8.63,8.63,0,0,1,1.13-4.88,4.17,4.17,0,0,1,6.68,0,8.51,8.51,0,0,1,1.15,4.86,8.63,8.63,0,0,1-1.15,4.9A3.78,3.78,0,0,1,639.29,761.63Zm0-1.24a2.39,2.39,0,0,0,2.25-1.3,11.38,11.38,0,0,0,0-8,2.65,2.65,0,0,0-4.54,0,8.43,8.43,0,0,0-.72,4,8.68,8.68,0,0,0,.72,4A2.43,2.43,0,0,0,639.29,760.39Zm10.79,1.24a3.84,3.84,0,0,1-3.35-1.65,8.81,8.81,0,0,1-1.13-4.9,8.71,8.71,0,0,1,1.13-4.88,3.83,3.83,0,0,1,3.35-1.67,3.76,3.76,0,0,1,3.33,1.67,8.51,8.51,0,0,1,1.15,4.86,8.63,8.63,0,0,1-1.15,4.9A3.76,3.76,0,0,1,650.08,761.63Zm0-1.24a2.39,2.39,0,0,0,2.25-1.3,11.38,11.38,0,0,0,0-8,2.41,2.41,0,0,0-2.27-1.28,2.44,2.44,0,0,0-2.27,1.28,8.43,8.43,0,0,0-.72,4,8.68,8.68,0,0,0,.72,4A2.44,2.44,0,0,0,650.08,760.39Zm10.79,1.24a3.81,3.81,0,0,1-3.34-1.65,8.72,8.72,0,0,1-1.14-4.9,8.62,8.62,0,0,1,1.14-4.88,3.8,3.8,0,0,1,3.34-1.67,3.76,3.76,0,0,1,3.33,1.67,8.51,8.51,0,0,1,1.16,4.86,8.63,8.63,0,0,1-1.16,4.9A3.76,3.76,0,0,1,660.87,761.63Zm0-1.24a2.39,2.39,0,0,0,2.25-1.3,8.31,8.31,0,0,0,.74-4,8.43,8.43,0,0,0-.72-4,2.64,2.64,0,0,0-4.53,0,8.43,8.43,0,0,0-.72,4,8.68,8.68,0,0,0,.72,4A2.42,2.42,0,0,0,660.87,760.39Zm10.8,1.24a3.83,3.83,0,0,1-3.35-1.65,8.73,8.73,0,0,1-1.13-4.9,8.63,8.63,0,0,1,1.13-4.88,4.17,4.17,0,0,1,6.68,0,8.51,8.51,0,0,1,1.15,4.86A8.63,8.63,0,0,1,675,760,3.78,3.78,0,0,1,671.67,761.63Zm0-1.24a2.39,2.39,0,0,0,2.25-1.3,11.38,11.38,0,0,0,0-8,2.65,2.65,0,0,0-4.54,0,8.43,8.43,0,0,0-.72,4,8.68,8.68,0,0,0,.72,4A2.43,2.43,0,0,0,671.67,760.39Zm10.79,1.24a3.84,3.84,0,0,1-3.35-1.65,8.81,8.81,0,0,1-1.13-4.9,8.71,8.71,0,0,1,1.13-4.88,3.83,3.83,0,0,1,3.35-1.67,3.78,3.78,0,0,1,3.33,1.67,8.51,8.51,0,0,1,1.15,4.86,8.63,8.63,0,0,1-1.15,4.9A3.78,3.78,0,0,1,682.46,761.63Zm0-1.24a2.39,2.39,0,0,0,2.25-1.3,11.38,11.38,0,0,0,0-8,2.65,2.65,0,0,0-4.54,0,8.43,8.43,0,0,0-.72,4,8.68,8.68,0,0,0,.72,4A2.43,2.43,0,0,0,682.46,760.39Z"/><path class="cls-6" d="M784.83,760.25v1.24h-8.24v-1.12l4.48-5a9.14,9.14,0,0,0,1.32-1.81,3.6,3.6,0,0,0,.41-1.62,2.07,2.07,0,0,0-.61-1.62,2.43,2.43,0,0,0-1.75-.58,5.69,5.69,0,0,0-3.63,1.48l-.56-1.14a5.53,5.53,0,0,1,1.91-1.15,6.48,6.48,0,0,1,2.32-.43,4,4,0,0,1,2.79.92,3.08,3.08,0,0,1,1,2.44,4.72,4.72,0,0,1-.5,2.13,9.79,9.79,0,0,1-1.64,2.27l-3.65,4Zm6.46,1.38a3.83,3.83,0,0,1-3.35-1.65,8.73,8.73,0,0,1-1.13-4.9,8.63,8.63,0,0,1,1.13-4.88,4.17,4.17,0,0,1,6.68,0,8.51,8.51,0,0,1,1.15,4.86,8.63,8.63,0,0,1-1.15,4.9A3.78,3.78,0,0,1,791.29,761.63Zm0-1.24a2.39,2.39,0,0,0,2.25-1.3,11.38,11.38,0,0,0,0-8,2.65,2.65,0,0,0-4.54,0,8.43,8.43,0,0,0-.72,4,8.68,8.68,0,0,0,.72,4A2.43,2.43,0,0,0,791.29,760.39Zm10.79,1.24a3.84,3.84,0,0,1-3.35-1.65,8.81,8.81,0,0,1-1.13-4.9,8.71,8.71,0,0,1,1.13-4.88,3.83,3.83,0,0,1,3.35-1.67,3.76,3.76,0,0,1,3.33,1.67,8.51,8.51,0,0,1,1.15,4.86,8.63,8.63,0,0,1-1.15,4.9A3.76,3.76,0,0,1,802.08,761.63Zm0-1.24a2.39,2.39,0,0,0,2.25-1.3,11.38,11.38,0,0,0,0-8,2.41,2.41,0,0,0-2.27-1.28,2.44,2.44,0,0,0-2.27,1.28,8.43,8.43,0,0,0-.72,4,8.68,8.68,0,0,0,.72,4A2.44,2.44,0,0,0,802.08,760.39Zm10.79,1.24a3.81,3.81,0,0,1-3.34-1.65,8.72,8.72,0,0,1-1.14-4.9,8.62,8.62,0,0,1,1.14-4.88,3.8,3.8,0,0,1,3.34-1.67,3.76,3.76,0,0,1,3.33,1.67,8.51,8.51,0,0,1,1.16,4.86,8.63,8.63,0,0,1-1.16,4.9A3.76,3.76,0,0,1,812.87,761.63Zm0-1.24a2.39,2.39,0,0,0,2.25-1.3,8.31,8.31,0,0,0,.74-4,8.43,8.43,0,0,0-.72-4,2.64,2.64,0,0,0-4.53,0,8.43,8.43,0,0,0-.72,4,8.68,8.68,0,0,0,.72,4A2.42,2.42,0,0,0,812.87,760.39Zm10.8,1.24a3.83,3.83,0,0,1-3.35-1.65,8.73,8.73,0,0,1-1.13-4.9,8.63,8.63,0,0,1,1.13-4.88,4.17,4.17,0,0,1,6.68,0,8.51,8.51,0,0,1,1.15,4.86A8.63,8.63,0,0,1,827,760,3.78,3.78,0,0,1,823.67,761.63Zm0-1.24a2.39,2.39,0,0,0,2.25-1.3,11.38,11.38,0,0,0,0-8,2.65,2.65,0,0,0-4.54,0,8.43,8.43,0,0,0-.72,4,8.68,8.68,0,0,0,.72,4A2.43,2.43,0,0,0,823.67,760.39Zm10.79,1.24a3.84,3.84,0,0,1-3.35-1.65,8.81,8.81,0,0,1-1.13-4.9,8.71,8.71,0,0,1,1.13-4.88,3.83,3.83,0,0,1,3.35-1.67,3.78,3.78,0,0,1,3.33,1.67,8.51,8.51,0,0,1,1.15,4.86,8.63,8.63,0,0,1-1.15,4.9A3.78,3.78,0,0,1,834.46,761.63Zm0-1.24a2.39,2.39,0,0,0,2.25-1.3,11.38,11.38,0,0,0,0-8,2.65,2.65,0,0,0-4.54,0,8.43,8.43,0,0,0-.72,4,8.68,8.68,0,0,0,.72,4A2.43,2.43,0,0,0,834.46,760.39Z"/><path class="cls-6" d="M929.26,754.9A3.18,3.18,0,0,1,931,756a3.24,3.24,0,0,1,.59,2,3.32,3.32,0,0,1-1.13,2.65,4.61,4.61,0,0,1-3.08,1,6.86,6.86,0,0,1-2.39-.41,5.58,5.58,0,0,1-1.93-1.17l.58-1.13a5.74,5.74,0,0,0,3.7,1.47,3,3,0,0,0,2.07-.61,2.24,2.24,0,0,0,.72-1.8c0-1.57-1-2.36-3-2.36H925.7v-1.24h1.18a3.31,3.31,0,0,0,2.18-.63,2.2,2.2,0,0,0,.76-1.8,2,2,0,0,0-.63-1.6,2.52,2.52,0,0,0-1.75-.56,5.69,5.69,0,0,0-3.63,1.48l-.56-1.14a5.42,5.42,0,0,1,1.89-1.15,6.5,6.5,0,0,1,2.36-.43,4.06,4.06,0,0,1,2.75.88,2.94,2.94,0,0,1,1,2.38,3.43,3.43,0,0,1-.54,1.92A3,3,0,0,1,929.26,754.9Zm9,6.73a3.83,3.83,0,0,1-3.35-1.65,8.73,8.73,0,0,1-1.13-4.9,8.63,8.63,0,0,1,1.13-4.88,4.17,4.17,0,0,1,6.68,0,8.51,8.51,0,0,1,1.15,4.86,8.63,8.63,0,0,1-1.15,4.9A3.78,3.78,0,0,1,938.29,761.63Zm0-1.24a2.39,2.39,0,0,0,2.25-1.3,11.38,11.38,0,0,0,0-8,2.65,2.65,0,0,0-4.54,0,8.43,8.43,0,0,0-.72,4,8.68,8.68,0,0,0,.72,4A2.43,2.43,0,0,0,938.29,760.39Zm10.79,1.24a3.84,3.84,0,0,1-3.35-1.65,8.81,8.81,0,0,1-1.13-4.9,8.71,8.71,0,0,1,1.13-4.88,3.83,3.83,0,0,1,3.35-1.67,3.76,3.76,0,0,1,3.33,1.67,8.51,8.51,0,0,1,1.15,4.86,8.63,8.63,0,0,1-1.15,4.9A3.76,3.76,0,0,1,949.08,761.63Zm0-1.24a2.39,2.39,0,0,0,2.25-1.3,11.38,11.38,0,0,0,0-8,2.41,2.41,0,0,0-2.27-1.28,2.44,2.44,0,0,0-2.27,1.28,8.43,8.43,0,0,0-.72,4,8.68,8.68,0,0,0,.72,4A2.44,2.44,0,0,0,949.08,760.39Zm10.79,1.24a3.81,3.81,0,0,1-3.34-1.65,8.72,8.72,0,0,1-1.14-4.9,8.62,8.62,0,0,1,1.14-4.88,3.8,3.8,0,0,1,3.34-1.67,3.76,3.76,0,0,1,3.33,1.67,8.51,8.51,0,0,1,1.16,4.86,8.63,8.63,0,0,1-1.16,4.9A3.76,3.76,0,0,1,959.87,761.63Zm0-1.24a2.39,2.39,0,0,0,2.25-1.3,8.31,8.31,0,0,0,.74-4,8.43,8.43,0,0,0-.72-4,2.64,2.64,0,0,0-4.53,0,8.43,8.43,0,0,0-.72,4,8.68,8.68,0,0,0,.72,4A2.42,2.42,0,0,0,959.87,760.39Zm10.8,1.24a3.83,3.83,0,0,1-3.35-1.65,8.73,8.73,0,0,1-1.13-4.9,8.63,8.63,0,0,1,1.13-4.88,4.17,4.17,0,0,1,6.68,0,8.51,8.51,0,0,1,1.15,4.86A8.63,8.63,0,0,1,974,760,3.78,3.78,0,0,1,970.67,761.63Zm0-1.24a2.39,2.39,0,0,0,2.25-1.3,11.38,11.38,0,0,0,0-8,2.65,2.65,0,0,0-4.54,0,8.43,8.43,0,0,0-.72,4,8.68,8.68,0,0,0,.72,4A2.43,2.43,0,0,0,970.67,760.39Zm10.79,1.24a3.84,3.84,0,0,1-3.35-1.65,8.81,8.81,0,0,1-1.13-4.9,8.71,8.71,0,0,1,1.13-4.88,3.83,3.83,0,0,1,3.35-1.67,3.78,3.78,0,0,1,3.33,1.67,8.51,8.51,0,0,1,1.15,4.86,8.63,8.63,0,0,1-1.15,4.9A3.78,3.78,0,0,1,981.46,761.63Zm0-1.24a2.39,2.39,0,0,0,2.25-1.3,11.38,11.38,0,0,0,0-8,2.65,2.65,0,0,0-4.54,0,8.43,8.43,0,0,0-.72,4,8.68,8.68,0,0,0,.72,4A2.43,2.43,0,0,0,981.46,760.39Z"/><path class="cls-6" d="M1084.3,758.7h-1.94v2.79h-1.48V758.7H1075v-1.12l6.17-8.91h1.21v8.8h1.94Zm-3.42-1.23v-6.3l-4.37,6.3Zm9.41,4.16a3.83,3.83,0,0,1-3.35-1.65,8.73,8.73,0,0,1-1.13-4.9,8.63,8.63,0,0,1,1.13-4.88,4.17,4.17,0,0,1,6.68,0,8.51,8.51,0,0,1,1.15,4.86,8.63,8.63,0,0,1-1.15,4.9A3.78,3.78,0,0,1,1090.29,761.63Zm0-1.24a2.39,2.39,0,0,0,2.25-1.3,11.38,11.38,0,0,0,0-8,2.65,2.65,0,0,0-4.54,0,8.43,8.43,0,0,0-.72,4,8.68,8.68,0,0,0,.72,4A2.43,2.43,0,0,0,1090.29,760.39Zm10.79,1.24a3.84,3.84,0,0,1-3.35-1.65,8.81,8.81,0,0,1-1.13-4.9,8.71,8.71,0,0,1,1.13-4.88,3.83,3.83,0,0,1,3.35-1.67,3.76,3.76,0,0,1,3.33,1.67,8.51,8.51,0,0,1,1.15,4.86,8.63,8.63,0,0,1-1.15,4.9A3.76,3.76,0,0,1,1101.08,761.63Zm0-1.24a2.39,2.39,0,0,0,2.25-1.3,11.38,11.38,0,0,0,0-8,2.41,2.41,0,0,0-2.27-1.28,2.44,2.44,0,0,0-2.27,1.28,8.43,8.43,0,0,0-.72,4,8.68,8.68,0,0,0,.72,4A2.44,2.44,0,0,0,1101.08,760.39Zm10.79,1.24a3.81,3.81,0,0,1-3.34-1.65,8.72,8.72,0,0,1-1.14-4.9,8.62,8.62,0,0,1,1.14-4.88,3.8,3.8,0,0,1,3.34-1.67,3.76,3.76,0,0,1,3.33,1.67,8.51,8.51,0,0,1,1.16,4.86,8.63,8.63,0,0,1-1.16,4.9A3.76,3.76,0,0,1,1111.87,761.63Zm0-1.24a2.39,2.39,0,0,0,2.25-1.3,8.31,8.31,0,0,0,.74-4,8.43,8.43,0,0,0-.72-4,2.64,2.64,0,0,0-4.53,0,8.43,8.43,0,0,0-.72,4,8.68,8.68,0,0,0,.72,4A2.42,2.42,0,0,0,1111.87,760.39Zm10.8,1.24a3.83,3.83,0,0,1-3.35-1.65,8.73,8.73,0,0,1-1.13-4.9,8.63,8.63,0,0,1,1.13-4.88,4.17,4.17,0,0,1,6.68,0,8.51,8.51,0,0,1,1.15,4.86A8.63,8.63,0,0,1,1126,760,3.78,3.78,0,0,1,1122.67,761.63Zm0-1.24a2.39,2.39,0,0,0,2.25-1.3,11.38,11.38,0,0,0,0-8,2.65,2.65,0,0,0-4.54,0,8.43,8.43,0,0,0-.72,4,8.68,8.68,0,0,0,.72,4A2.43,2.43,0,0,0,1122.67,760.39Zm10.79,1.24a3.84,3.84,0,0,1-3.35-1.65,8.81,8.81,0,0,1-1.13-4.9,8.71,8.71,0,0,1,1.13-4.88,3.83,3.83,0,0,1,3.35-1.67,3.78,3.78,0,0,1,3.33,1.67,8.51,8.51,0,0,1,1.15,4.86,8.63,8.63,0,0,1-1.15,4.9A3.78,3.78,0,0,1,1133.46,761.63Zm0-1.24a2.39,2.39,0,0,0,2.25-1.3,11.38,11.38,0,0,0,0-8,2.65,2.65,0,0,0-4.54,0,8.43,8.43,0,0,0-.72,4,8.68,8.68,0,0,0,.72,4A2.43,2.43,0,0,0,1133.46,760.39Z"/><path class="cls-6" d="M1225,753.44a4.19,4.19,0,0,1,2.1.52,3.47,3.47,0,0,1,1.41,1.43,4.51,4.51,0,0,1,.48,2.12,4.2,4.2,0,0,1-.54,2.14,3.61,3.61,0,0,1-1.51,1.46,4.86,4.86,0,0,1-2.29.5,6.57,6.57,0,0,1-2.3-.41,5.7,5.7,0,0,1-1.91-1.17l.56-1.13a5.72,5.72,0,0,0,3.65,1.47,2.86,2.86,0,0,0,2.11-.75,3.2,3.2,0,0,0,0-4.14,2.67,2.67,0,0,0-2-.8,3.45,3.45,0,0,0-2.93,1.5h-1v-7.51h7.69v1.23h-6.21v4.57A3.73,3.73,0,0,1,1225,753.44Zm10.25,8.19a3.83,3.83,0,0,1-3.35-1.65,8.73,8.73,0,0,1-1.13-4.9,8.63,8.63,0,0,1,1.13-4.88,4.17,4.17,0,0,1,6.68,0,8.51,8.51,0,0,1,1.15,4.86,8.63,8.63,0,0,1-1.15,4.9A3.78,3.78,0,0,1,1235.29,761.63Zm0-1.24a2.39,2.39,0,0,0,2.25-1.3,11.38,11.38,0,0,0,0-8,2.65,2.65,0,0,0-4.54,0,8.43,8.43,0,0,0-.72,4,8.68,8.68,0,0,0,.72,4A2.43,2.43,0,0,0,1235.29,760.39Zm10.79,1.24a3.84,3.84,0,0,1-3.35-1.65,8.81,8.81,0,0,1-1.13-4.9,8.71,8.71,0,0,1,1.13-4.88,3.83,3.83,0,0,1,3.35-1.67,3.76,3.76,0,0,1,3.33,1.67,8.51,8.51,0,0,1,1.15,4.86,8.63,8.63,0,0,1-1.15,4.9A3.76,3.76,0,0,1,1246.08,761.63Zm0-1.24a2.39,2.39,0,0,0,2.25-1.3,11.38,11.38,0,0,0,0-8,2.41,2.41,0,0,0-2.27-1.28,2.44,2.44,0,0,0-2.27,1.28,8.43,8.43,0,0,0-.72,4,8.68,8.68,0,0,0,.72,4A2.44,2.44,0,0,0,1246.08,760.39Zm10.79,1.24a3.81,3.81,0,0,1-3.34-1.65,8.72,8.72,0,0,1-1.14-4.9,8.62,8.62,0,0,1,1.14-4.88,3.8,3.8,0,0,1,3.34-1.67,3.76,3.76,0,0,1,3.33,1.67,8.51,8.51,0,0,1,1.16,4.86,8.63,8.63,0,0,1-1.16,4.9A3.76,3.76,0,0,1,1256.87,761.63Zm0-1.24a2.39,2.39,0,0,0,2.25-1.3,8.31,8.31,0,0,0,.74-4,8.43,8.43,0,0,0-.72-4,2.64,2.64,0,0,0-4.53,0,8.43,8.43,0,0,0-.72,4,8.68,8.68,0,0,0,.72,4A2.42,2.42,0,0,0,1256.87,760.39Zm10.8,1.24a3.83,3.83,0,0,1-3.35-1.65,8.73,8.73,0,0,1-1.13-4.9,8.63,8.63,0,0,1,1.13-4.88,4.17,4.17,0,0,1,6.68,0,8.51,8.51,0,0,1,1.15,4.86A8.63,8.63,0,0,1,1271,760,3.78,3.78,0,0,1,1267.67,761.63Zm0-1.24a2.39,2.39,0,0,0,2.25-1.3,11.38,11.38,0,0,0,0-8,2.65,2.65,0,0,0-4.54,0,8.43,8.43,0,0,0-.72,4,8.68,8.68,0,0,0,.72,4A2.43,2.43,0,0,0,1267.67,760.39Zm10.79,1.24a3.84,3.84,0,0,1-3.35-1.65,8.81,8.81,0,0,1-1.13-4.9,8.71,8.71,0,0,1,1.13-4.88,3.83,3.83,0,0,1,3.35-1.67,3.78,3.78,0,0,1,3.33,1.67,8.51,8.51,0,0,1,1.15,4.86,8.63,8.63,0,0,1-1.15,4.9A3.78,3.78,0,0,1,1278.46,761.63Zm0-1.24a2.39,2.39,0,0,0,2.25-1.3,11.38,11.38,0,0,0,0-8,2.65,2.65,0,0,0-4.54,0,8.43,8.43,0,0,0-.72,4,8.68,8.68,0,0,0,.72,4A2.43,2.43,0,0,0,1278.46,760.39Z"/><path class="cls-6" d="M358.62,691.67,353,704.49h-1.3l-5.6-12.82h1.57l4.7,11,4.69-11Zm8.38,3.76v9.06h-1.44v-1.64a2.87,2.87,0,0,1-1.2,1.31,3.71,3.71,0,0,1-1.86.45,3.93,3.93,0,0,1-2.12-.57,3.89,3.89,0,0,1-1.4-1.62,6.39,6.39,0,0,1,0-4.93,4,4,0,0,1,1.41-1.68,3.82,3.82,0,0,1,2.1-.59,3.52,3.52,0,0,1,1.86.47,3,3,0,0,1,1.2,1.31v-1.57Zm-4.21,8a2.47,2.47,0,0,0,2-.9,4.11,4.11,0,0,0,.72-2.59,4,4,0,0,0-.72-2.58,2.47,2.47,0,0,0-2-.9,2.53,2.53,0,0,0-2.09.94A4,4,0,0,0,360,700a3.94,3.94,0,0,0,.73,2.56A2.56,2.56,0,0,0,362.79,703.41Zm7-12.17h1.46v13.25h-1.46Zm11.87,8.68h-6.64a3.89,3.89,0,0,0,.79,2.61,3,3,0,0,0,2.29.88,4.62,4.62,0,0,0,2.91-1.06l.49,1.06a4.37,4.37,0,0,1-1.53.88,5.52,5.52,0,0,1-1.89.32,4.41,4.41,0,0,1-3.33-1.24,4.73,4.73,0,0,1-1.21-3.44,5.28,5.28,0,0,1,.54-2.44,4.11,4.11,0,0,1,1.51-1.68,4.23,4.23,0,0,1,2.22-.59,3.5,3.5,0,0,1,2.82,1.19,4.72,4.72,0,0,1,1,3.24Zm-3.83-3.57A2.58,2.58,0,0,0,376,697a3.27,3.27,0,0,0-.9,1.92h5.28a3.11,3.11,0,0,0-.76-1.94A2.29,2.29,0,0,0,377.86,696.35Zm18.31,3.57h-6.64a4,4,0,0,0,.79,2.61,3,3,0,0,0,2.29.88,4.63,4.63,0,0,0,2.92-1.06l.48,1.06a4.19,4.19,0,0,1-1.53.88,5.52,5.52,0,0,1-1.89.32,4.44,4.44,0,0,1-3.33-1.24,4.77,4.77,0,0,1-1.2-3.44,5.28,5.28,0,0,1,.54-2.44,4,4,0,0,1,1.51-1.68,4.2,4.2,0,0,1,2.21-.59,3.53,3.53,0,0,1,2.83,1.19,4.77,4.77,0,0,1,1,3.24Zm-3.83-3.57a2.55,2.55,0,0,0-1.85.69,3.27,3.27,0,0,0-.9,1.92h5.27a3,3,0,0,0-.76-1.94A2.28,2.28,0,0,0,392.34,696.35Zm9.11,8.26a5.29,5.29,0,0,1-3.62-1.17l.49-1.08a5,5,0,0,0,1.49.83,5.26,5.26,0,0,0,1.69.25,2.83,2.83,0,0,0,1.55-.34,1.16,1.16,0,0,0,.54-1,1.12,1.12,0,0,0-.36-.87,2.72,2.72,0,0,0-1.19-.5l-1.53-.36a3.47,3.47,0,0,1-1.76-.9,2.17,2.17,0,0,1-.61-1.55,2.33,2.33,0,0,1,.95-1.93,4,4,0,0,1,2.52-.75,5.31,5.31,0,0,1,1.8.3,3.82,3.82,0,0,1,1.42.89l-.48,1.06a4.22,4.22,0,0,0-2.74-1.06,2.61,2.61,0,0,0-1.51.37,1.18,1.18,0,0,0-.52,1,1.16,1.16,0,0,0,.32.88,2.36,2.36,0,0,0,1.08.51l1.53.37a3.94,3.94,0,0,1,1.87.9A2.09,2.09,0,0,1,405,702a2.2,2.2,0,0,1-.95,1.87A4.28,4.28,0,0,1,401.45,704.61Zm10.39-9.39a3.82,3.82,0,0,1,2.1.59,3.91,3.91,0,0,1,1.42,1.68,6.21,6.21,0,0,1,0,4.93,3.75,3.75,0,0,1-3.52,2.19,3.62,3.62,0,0,1-1.86-.46,3,3,0,0,1-1.2-1.34v5.57h-1.46V698a19.62,19.62,0,0,0-.15-2.54h1.39l.14,1.75a3,3,0,0,1,1.19-1.44A3.55,3.55,0,0,1,411.84,695.22Zm-.27,8.19a2.48,2.48,0,0,0,2.05-.9,3.94,3.94,0,0,0,.74-2.56,4,4,0,0,0-.74-2.57,2.45,2.45,0,0,0-2.05-.94,2.5,2.5,0,0,0-2.07.9,4,4,0,0,0-.72,2.58,4.11,4.11,0,0,0,.72,2.59A2.5,2.5,0,0,0,411.57,703.41Zm14.12-3.49h-6.64a3.89,3.89,0,0,0,.79,2.61,2.94,2.94,0,0,0,2.28.88,4.63,4.63,0,0,0,2.92-1.06l.49,1.06a4.37,4.37,0,0,1-1.53.88,5.6,5.6,0,0,1-1.89.32,4.41,4.41,0,0,1-3.33-1.24,4.73,4.73,0,0,1-1.21-3.44,5.28,5.28,0,0,1,.54-2.44,4,4,0,0,1,1.51-1.68,4.23,4.23,0,0,1,2.22-.59,3.5,3.5,0,0,1,2.82,1.19,4.72,4.72,0,0,1,1,3.24Zm-3.84-3.57A2.57,2.57,0,0,0,420,697a3.27,3.27,0,0,0-.9,1.92h5.27a3,3,0,0,0-.75-1.94A2.3,2.3,0,0,0,421.85,696.35Zm9.85,8.26a4.51,4.51,0,0,1-2.3-.57,4,4,0,0,1-1.52-1.62,5.65,5.65,0,0,1-.52-2.47,5.34,5.34,0,0,1,.54-2.46,4,4,0,0,1,1.53-1.68,4.57,4.57,0,0,1,2.34-.59,5.08,5.08,0,0,1,1.77.32,3.75,3.75,0,0,1,1.42.87l-.49,1.08a5.28,5.28,0,0,0-1.33-.8,3.62,3.62,0,0,0-1.3-.25,2.66,2.66,0,0,0-2.17.94,4.56,4.56,0,0,0,0,5.13,2.77,2.77,0,0,0,2.19.9,3.62,3.62,0,0,0,1.3-.25,5.28,5.28,0,0,0,1.33-.8l.49,1.08a4.36,4.36,0,0,1-1.46.87A5.48,5.48,0,0,1,431.7,704.61Zm5.11-9.18h1.46v9.06h-1.46Zm.24-1.17,1.8-3.67h1.69l-2.47,3.67Zm6,1.17h5.56v9.06h-1.46v-7.9h-4.1v7.9h-1.46v-7.9h-1.77v-1.16h1.77v-1.2a4.21,4.21,0,0,1,.32-1.77,2.11,2.11,0,0,1,1.1-1,5.69,5.69,0,0,1,2.05-.3h.58v1.13h-.45a4.34,4.34,0,0,0-1.39.16,1,1,0,0,0-.59.63,4.44,4.44,0,0,0-.16,1.41Zm5.74-3.92v1.69H447v-1.69Zm6.43,13.1a4.51,4.51,0,0,1-2.3-.57,4,4,0,0,1-1.52-1.62,5.65,5.65,0,0,1-.52-2.47,5.34,5.34,0,0,1,.54-2.46,4,4,0,0,1,1.53-1.68,4.57,4.57,0,0,1,2.34-.59,5.08,5.08,0,0,1,1.77.32,3.75,3.75,0,0,1,1.42.87l-.49,1.08a5.28,5.28,0,0,0-1.33-.8,3.62,3.62,0,0,0-1.3-.25,2.66,2.66,0,0,0-2.17.94,4.56,4.56,0,0,0,0,5.13,2.77,2.77,0,0,0,2.19.9,3.62,3.62,0,0,0,1.3-.25,5.28,5.28,0,0,0,1.33-.8l.49,1.08a4.36,4.36,0,0,1-1.46.87A5.48,5.48,0,0,1,455.22,704.61Zm13.09-9.18v9.06h-1.44v-1.64a3,3,0,0,1-1.21,1.31,3.67,3.67,0,0,1-1.85.45,3.7,3.7,0,0,1-3.53-2.19,6,6,0,0,1-.49-2.47,5.6,5.6,0,0,1,.51-2.46,3.94,3.94,0,0,1,1.4-1.68,3.85,3.85,0,0,1,2.11-.59,3.49,3.49,0,0,1,1.85.47,3.07,3.07,0,0,1,1.21,1.31v-1.57Zm-4.21,8a2.48,2.48,0,0,0,2-.9,4.11,4.11,0,0,0,.72-2.59,4,4,0,0,0-.72-2.58,2.48,2.48,0,0,0-2-.9,2.52,2.52,0,0,0-2.09.94,4,4,0,0,0-.74,2.57,3.94,3.94,0,0,0,.74,2.56A2.55,2.55,0,0,0,464.1,703.41Zm19.69-12.17v13.25h-1.44v-1.64a2.87,2.87,0,0,1-1.2,1.31,4,4,0,0,1-4-.14,4,4,0,0,1-1.41-1.66,5.87,5.87,0,0,1-.5-2.48,5.67,5.67,0,0,1,.49-2.45,3.8,3.8,0,0,1,1.42-1.64,3.89,3.89,0,0,1,2.1-.57,3.52,3.52,0,0,1,1.86.47,2.87,2.87,0,0,1,1.19,1.27v-5.72Zm-4.21,12.17a2.47,2.47,0,0,0,2.05-.9,4.11,4.11,0,0,0,.72-2.59,4,4,0,0,0-.72-2.56,2.46,2.46,0,0,0-2.05-.92,2.59,2.59,0,0,0-2.09.9,3.92,3.92,0,0,0-.73,2.54,4.11,4.11,0,0,0,.73,2.61A2.57,2.57,0,0,0,479.58,703.41Zm14.61-3.49h-6.64a3.89,3.89,0,0,0,.79,2.61,3,3,0,0,0,2.29.88,4.62,4.62,0,0,0,2.91-1.06l.49,1.06a4.37,4.37,0,0,1-1.53.88,5.52,5.52,0,0,1-1.89.32,4.41,4.41,0,0,1-3.33-1.24,4.73,4.73,0,0,1-1.21-3.44,5.28,5.28,0,0,1,.54-2.44,4.11,4.11,0,0,1,1.51-1.68,4.23,4.23,0,0,1,2.22-.59,3.5,3.5,0,0,1,2.82,1.19,4.72,4.72,0,0,1,1,3.24Zm-3.83-3.57a2.58,2.58,0,0,0-1.86.69,3.27,3.27,0,0,0-.9,1.92h5.28a3.11,3.11,0,0,0-.76-1.94A2.29,2.29,0,0,0,490.36,696.35ZM357.74,738.49h-1.56l-1.59-4.27a1.79,1.79,0,0,0-.81-1.06,3.07,3.07,0,0,0-1.44-.27h-3.2v5.6h-1.46V725.67h5.09a4.83,4.83,0,0,1,3.17.92,3.21,3.21,0,0,1,1.12,2.65,3.34,3.34,0,0,1-.67,2.12,3.54,3.54,0,0,1-1.89,1.21,1.76,1.76,0,0,1,1,.48,3,3,0,0,1,.66,1.1Zm-5.09-6.82c2,0,3-.81,3-2.42a2.11,2.11,0,0,0-.72-1.76,3.44,3.44,0,0,0-2.23-.59h-3.51v4.77Zm11.56,7a6.86,6.86,0,0,1-4.79-1.62l.56-1.13a6.16,6.16,0,0,0,1.94,1.15,7,7,0,0,0,2.31.34,4.06,4.06,0,0,0,2.37-.59,2,2,0,0,0,.85-1.71A1.42,1.42,0,0,0,367,734a2.68,2.68,0,0,0-1.07-.64,15,15,0,0,0-1.74-.49,16.45,16.45,0,0,1-2.43-.7,3.8,3.8,0,0,1-1.55-1.08,2.83,2.83,0,0,1-.59-1.87,3.3,3.3,0,0,1,.57-1.93,3.85,3.85,0,0,1,1.62-1.31,6,6,0,0,1,2.47-.47,7.42,7.42,0,0,1,2.48.41,5.24,5.24,0,0,1,1.95,1.21l-.58,1.13a6.36,6.36,0,0,0-1.84-1.13,5.44,5.44,0,0,0-2-.36,3.7,3.7,0,0,0-2.34.65,2,2,0,0,0-.85,1.74,1.63,1.63,0,0,0,.74,1.46,7.4,7.4,0,0,0,2.27.85,25.88,25.88,0,0,1,2.59.73,3.81,3.81,0,0,1,1.58,1,2.5,2.5,0,0,1,.63,1.78,3.28,3.28,0,0,1-.57,1.91,3.77,3.77,0,0,1-1.66,1.26A6.38,6.38,0,0,1,364.21,738.63Zm11.22,0a6.84,6.84,0,0,1-4.79-1.62l.56-1.13a6.05,6.05,0,0,0,1.94,1.15,7,7,0,0,0,2.3.34,4.08,4.08,0,0,0,2.38-.59,2,2,0,0,0,.85-1.71,1.39,1.39,0,0,0-.42-1.05,2.64,2.64,0,0,0-1.06-.64,14.67,14.67,0,0,0-1.75-.49,17.21,17.21,0,0,1-2.43-.7,3.77,3.77,0,0,1-1.54-1.08,2.84,2.84,0,0,1-.6-1.87,3.24,3.24,0,0,1,.58-1.93,3.73,3.73,0,0,1,1.62-1.31,5.93,5.93,0,0,1,2.46-.47,7.47,7.47,0,0,1,2.49.41,5.2,5.2,0,0,1,1.94,1.21l-.57,1.13a6.49,6.49,0,0,0-1.84-1.13,5.46,5.46,0,0,0-2-.36,3.74,3.74,0,0,0-2.34.65,2.05,2.05,0,0,0-.84,1.74,1.61,1.61,0,0,0,.74,1.46,7.33,7.33,0,0,0,2.26.85,26.2,26.2,0,0,1,2.6.73,3.88,3.88,0,0,1,1.58,1,2.5,2.5,0,0,1,.63,1.78,3.22,3.22,0,0,1-.58,1.91,3.69,3.69,0,0,1-1.65,1.26A6.38,6.38,0,0,1,375.43,738.63Z"/><path class="cls-6" d="M450.68,565.67h1.48v11.56h6.42v1.26h-7.9Zm9.63,3.76h1.46v9.06h-1.46ZM462,565.6v1.66h-1.79V565.6Zm10.66,12.89h-1.75L468,574.92l-2.83,3.57h-1.78l3.76-4.66-3.54-4.4h1.76l2.63,3.33,2.63-3.33h1.78l-3.53,4.4Zm9.42-9.06v9.06h-1.44v-1.64a3,3,0,0,1-1.21,1.31,3.67,3.67,0,0,1-1.85.45,3.7,3.7,0,0,1-3.53-2.19,6,6,0,0,1-.49-2.47,5.6,5.6,0,0,1,.51-2.46,3.94,3.94,0,0,1,1.4-1.68,3.85,3.85,0,0,1,2.11-.59,3.49,3.49,0,0,1,1.85.47,3.07,3.07,0,0,1,1.21,1.31v-1.57Zm-4.21,8a2.48,2.48,0,0,0,2.05-.9,4.11,4.11,0,0,0,.72-2.59,4,4,0,0,0-.72-2.58,2.48,2.48,0,0,0-2.05-.9,2.52,2.52,0,0,0-2.09.94A4,4,0,0,0,475,574a3.94,3.94,0,0,0,.74,2.56A2.55,2.55,0,0,0,477.82,577.41Zm-2.69-10a2.38,2.38,0,0,1,.44-1.53,1.46,1.46,0,0,1,1.18-.54,1.58,1.58,0,0,1,.72.16,6.63,6.63,0,0,1,.81.43,6.44,6.44,0,0,0,.6.34.93.93,0,0,0,.45.11.7.7,0,0,0,.61-.29,1,1,0,0,0,.23-.7H481a2.33,2.33,0,0,1-.45,1.53,1.4,1.4,0,0,1-1.17.54,2,2,0,0,1-.72-.14q-.33-.17-.81-.45a4.6,4.6,0,0,0-.61-.34.86.86,0,0,0-.43-.11.76.76,0,0,0-.63.29,1.15,1.15,0,0,0-.22.7Zm13.46,11.19a4.38,4.38,0,0,1-2.25-.57,3.93,3.93,0,0,1-1.51-1.64,6.2,6.2,0,0,1,0-5,3.93,3.93,0,0,1,1.51-1.64,4.73,4.73,0,0,1,4.5,0,3.85,3.85,0,0,1,1.5,1.64,6,6,0,0,1,0,5,3.85,3.85,0,0,1-1.5,1.64A4.38,4.38,0,0,1,488.59,578.61Zm0-1.2a2.54,2.54,0,0,0,2.07-.88,4.1,4.1,0,0,0,.72-2.61,3.89,3.89,0,0,0-.74-2.56,2.48,2.48,0,0,0-2.05-.92,2.51,2.51,0,0,0-2.07.92,3.94,3.94,0,0,0-.74,2.56,4.1,4.1,0,0,0,.72,2.61A2.61,2.61,0,0,0,488.59,577.41Z"/><path class="cls-6" d="M374.07,509.19h-6.7l-1.42,3.3h-1.53l5.63-12.82h1.3L377,512.49h-1.51Zm-.52-1.22-2.83-6.59L367.89,508Zm6.92-3.38v5a2,2,0,0,0,.41,1.42,1.65,1.65,0,0,0,1.17.39,2.86,2.86,0,0,0,1-.16v1.24a4.08,4.08,0,0,1-1.26.18,2.78,2.78,0,0,1-2-.72,3,3,0,0,1-.72-2.16v-5.14h-1.76v-1.16H379v-2.32l1.46-.52v2.84h2.59v1.16Zm11.93,3.33h-6.65a4,4,0,0,0,.8,2.61,2.92,2.92,0,0,0,2.28.88,4.63,4.63,0,0,0,2.92-1.06l.48,1.06a4.19,4.19,0,0,1-1.53.88,5.52,5.52,0,0,1-1.89.32,4.44,4.44,0,0,1-3.33-1.24,4.77,4.77,0,0,1-1.2-3.44,5.28,5.28,0,0,1,.54-2.44,4,4,0,0,1,1.51-1.68,4.22,4.22,0,0,1,2.21-.59,3.52,3.52,0,0,1,2.83,1.19,4.77,4.77,0,0,1,1,3.24Zm-3.84-3.57a2.57,2.57,0,0,0-1.85.69,3.27,3.27,0,0,0-.9,1.92h5.27a3,3,0,0,0-.75-1.94A2.3,2.3,0,0,0,388.56,504.35Zm10.26-1.13a2.73,2.73,0,0,1,.83.11l0,1.33a2.75,2.75,0,0,0-.95-.15,2.33,2.33,0,0,0-2,.83,3.13,3.13,0,0,0-.63,2v5.17h-1.46V506a19.62,19.62,0,0,0-.15-2.54h1.39l.14,1.68a2.84,2.84,0,0,1,1.1-1.41A3.17,3.17,0,0,1,398.82,503.22Zm6.52,0a2.73,2.73,0,0,1,.83.11l0,1.33a2.75,2.75,0,0,0-.95-.15,2.33,2.33,0,0,0-2,.83,3.13,3.13,0,0,0-.63,2v5.17h-1.46V506a21.71,21.71,0,0,0-.14-2.54h1.38l.15,1.68a2.77,2.77,0,0,1,1.09-1.41A3.17,3.17,0,0,1,405.34,503.22Zm5.88,9.39A4.38,4.38,0,0,1,409,512a3.93,3.93,0,0,1-1.51-1.64,6.2,6.2,0,0,1,0-5,3.93,3.93,0,0,1,1.51-1.64,4.73,4.73,0,0,1,4.5,0,3.76,3.76,0,0,1,1.49,1.64,6,6,0,0,1,0,5,3.76,3.76,0,0,1-1.49,1.64A4.38,4.38,0,0,1,411.22,512.61Zm0-1.2a2.54,2.54,0,0,0,2.07-.88,4.1,4.1,0,0,0,.72-2.61,3.94,3.94,0,0,0-.74-2.56,2.48,2.48,0,0,0-2-.92,2.51,2.51,0,0,0-2.07.92,3.94,3.94,0,0,0-.74,2.56,4.1,4.1,0,0,0,.72,2.61A2.6,2.6,0,0,0,411.22,511.41Zm14.31,1.2a5.31,5.31,0,0,1-3.62-1.17l.49-1.08a5,5,0,0,0,1.49.83,5.31,5.31,0,0,0,1.69.25,2.83,2.83,0,0,0,1.55-.34,1.16,1.16,0,0,0,.54-1,1.12,1.12,0,0,0-.36-.87,2.66,2.66,0,0,0-1.19-.5l-1.53-.36a3.47,3.47,0,0,1-1.76-.9,2.17,2.17,0,0,1-.61-1.55,2.35,2.35,0,0,1,.95-1.93,4,4,0,0,1,2.52-.75,5.31,5.31,0,0,1,1.8.3,3.74,3.74,0,0,1,1.42.89l-.48,1.06a4.21,4.21,0,0,0-2.74-1.06,2.61,2.61,0,0,0-1.51.37,1.18,1.18,0,0,0-.52,1,1.2,1.2,0,0,0,.32.88,2.36,2.36,0,0,0,1.08.51l1.53.37a3.89,3.89,0,0,1,1.87.9,2.09,2.09,0,0,1,.62,1.57,2.2,2.2,0,0,1-1,1.87A4.26,4.26,0,0,1,425.53,512.61Zm13.84-9.18v9.06h-1.44v-1.64a2.87,2.87,0,0,1-1.2,1.31,3.71,3.71,0,0,1-1.86.45,3.93,3.93,0,0,1-2.12-.57,3.89,3.89,0,0,1-1.4-1.62,6.39,6.39,0,0,1,0-4.93,4,4,0,0,1,1.41-1.68,3.82,3.82,0,0,1,2.1-.59,3.52,3.52,0,0,1,1.86.47,3,3,0,0,1,1.2,1.31v-1.57Zm-4.21,8a2.47,2.47,0,0,0,2-.9,4.11,4.11,0,0,0,.72-2.59,4,4,0,0,0-.72-2.58,2.47,2.47,0,0,0-2-.9,2.53,2.53,0,0,0-2.09.94,4,4,0,0,0-.73,2.57,3.94,3.94,0,0,0,.73,2.56A2.56,2.56,0,0,0,435.16,511.41Zm11.55-8.19q3.26,0,3.26,3.58v5.69h-1.46v-5.62A2.76,2.76,0,0,0,448,505a2,2,0,0,0-1.59-.6,2.66,2.66,0,0,0-2,.78,2.82,2.82,0,0,0-.76,2.08v5.19h-1.46V506a21.71,21.71,0,0,0-.14-2.54h1.38l.15,1.62a3,3,0,0,1,1.24-1.35A3.69,3.69,0,0,1,446.71,503.22Zm6,.21h1.46v9.06h-1.46Zm1.64-3.83v1.66h-1.78V499.6Zm4.6,5v5a2,2,0,0,0,.41,1.42,1.65,1.65,0,0,0,1.17.39,2.86,2.86,0,0,0,1-.16v1.24a4.08,4.08,0,0,1-1.26.18,2.78,2.78,0,0,1-2-.72,3,3,0,0,1-.72-2.16v-5.14h-1.77v-1.16h1.77v-2.32l1.46-.52v2.84h2.59v1.16Zm12.32-1.16v9.06h-1.44v-1.64a3,3,0,0,1-1.21,1.31,3.67,3.67,0,0,1-1.85.45,3.7,3.7,0,0,1-3.53-2.19,6,6,0,0,1-.49-2.47,5.6,5.6,0,0,1,.51-2.46,3.94,3.94,0,0,1,1.4-1.68,3.85,3.85,0,0,1,2.11-.59,3.49,3.49,0,0,1,1.85.47,3.07,3.07,0,0,1,1.21,1.31v-1.57Zm-4.21,8a2.48,2.48,0,0,0,2.05-.9,4.11,4.11,0,0,0,.72-2.59,4,4,0,0,0-.72-2.58,2.48,2.48,0,0,0-2.05-.9,2.52,2.52,0,0,0-2.09.94,4,4,0,0,0-.74,2.57,3.94,3.94,0,0,0,.74,2.56A2.55,2.55,0,0,0,467.07,511.41Zm-.27-9.15,1.8-3.67h1.69l-2.47,3.67Zm11.51,1a2.73,2.73,0,0,1,.83.11l0,1.33a2.75,2.75,0,0,0-1-.15,2.33,2.33,0,0,0-2,.83,3.13,3.13,0,0,0-.63,2v5.17H474.1V506a19.62,19.62,0,0,0-.15-2.54h1.39l.14,1.68a2.84,2.84,0,0,1,1.1-1.41A3.17,3.17,0,0,1,478.31,503.22Zm2.31.21h1.46v9.06h-1.46Zm1.64-3.83v1.66h-1.79V499.6Zm6.39,13a4.38,4.38,0,0,1-2.25-.57,3.93,3.93,0,0,1-1.51-1.64,6.2,6.2,0,0,1,0-5,3.93,3.93,0,0,1,1.51-1.64,4.73,4.73,0,0,1,4.5,0,3.85,3.85,0,0,1,1.5,1.64,6,6,0,0,1,0,5,3.85,3.85,0,0,1-1.5,1.64A4.38,4.38,0,0,1,488.65,512.61Zm0-1.2a2.54,2.54,0,0,0,2.07-.88,4.1,4.1,0,0,0,.72-2.61,3.89,3.89,0,0,0-.74-2.56,2.48,2.48,0,0,0-2.05-.92,2.51,2.51,0,0,0-2.07.92,3.94,3.94,0,0,0-.74,2.56,4.1,4.1,0,0,0,.72,2.61A2.61,2.61,0,0,0,488.65,511.41Z"/><path class="cls-6" d="M358.07,442.19h-6.7l-1.42,3.3h-1.53l5.63-12.82h1.3L361,445.49h-1.51Zm-.52-1.22-2.83-6.59L351.89,441Zm6.92-3.38v5a2,2,0,0,0,.41,1.42,1.65,1.65,0,0,0,1.17.39,2.86,2.86,0,0,0,1-.16v1.24a4.08,4.08,0,0,1-1.26.18,2.78,2.78,0,0,1-2-.72,3,3,0,0,1-.72-2.16v-5.14h-1.76v-1.16H363v-2.32l1.46-.52v2.84h2.59v1.16Zm11.93,3.33h-6.65a4,4,0,0,0,.8,2.61,2.92,2.92,0,0,0,2.28.88,4.63,4.63,0,0,0,2.92-1.06l.48,1.06a4.19,4.19,0,0,1-1.53.88,5.52,5.52,0,0,1-1.89.32,4.44,4.44,0,0,1-3.33-1.24,4.77,4.77,0,0,1-1.2-3.44,5.28,5.28,0,0,1,.54-2.44,4,4,0,0,1,1.51-1.68,4.22,4.22,0,0,1,2.21-.59,3.52,3.52,0,0,1,2.83,1.19,4.77,4.77,0,0,1,1,3.24Zm-3.84-3.57a2.57,2.57,0,0,0-1.85.69,3.27,3.27,0,0,0-.9,1.92h5.27a3,3,0,0,0-.75-1.94A2.3,2.3,0,0,0,372.56,437.35Zm10.26-1.13a2.73,2.73,0,0,1,.83.11l0,1.33a2.75,2.75,0,0,0-.95-.15,2.33,2.33,0,0,0-2,.83,3.13,3.13,0,0,0-.63,2v5.17h-1.46V439a19.62,19.62,0,0,0-.15-2.54h1.39l.14,1.68a2.84,2.84,0,0,1,1.1-1.41A3.17,3.17,0,0,1,382.82,436.22Zm6.52,0a2.73,2.73,0,0,1,.83.11l0,1.33a2.75,2.75,0,0,0-.95-.15,2.33,2.33,0,0,0-2,.83,3.13,3.13,0,0,0-.63,2v5.17h-1.46V439a21.71,21.71,0,0,0-.14-2.54h1.38l.15,1.68a2.77,2.77,0,0,1,1.09-1.41A3.17,3.17,0,0,1,389.34,436.22Zm5.88,9.39A4.38,4.38,0,0,1,393,445a3.93,3.93,0,0,1-1.51-1.64,6.2,6.2,0,0,1,0-5,3.93,3.93,0,0,1,1.51-1.64,4.73,4.73,0,0,1,4.5,0,3.76,3.76,0,0,1,1.49,1.64,6,6,0,0,1,0,5,3.76,3.76,0,0,1-1.49,1.64A4.38,4.38,0,0,1,395.22,445.61Zm0-1.2a2.54,2.54,0,0,0,2.07-.88,4.1,4.1,0,0,0,.72-2.61,3.94,3.94,0,0,0-.74-2.56,2.48,2.48,0,0,0-2-.92,2.51,2.51,0,0,0-2.07.92,3.94,3.94,0,0,0-.74,2.56,4.1,4.1,0,0,0,.72,2.61A2.6,2.6,0,0,0,395.22,444.41Zm15,1.2A4.55,4.55,0,0,1,408,445a4.07,4.07,0,0,1-1.51-1.62,5.51,5.51,0,0,1-.52-2.47,5.34,5.34,0,0,1,.54-2.46,4,4,0,0,1,1.53-1.68,4.57,4.57,0,0,1,2.34-.59,5,5,0,0,1,1.76.32,3.79,3.79,0,0,1,1.43.87l-.49,1.08a5.46,5.46,0,0,0-1.33-.8,3.62,3.62,0,0,0-1.3-.25,2.7,2.7,0,0,0-2.18.94,4.58,4.58,0,0,0,0,5.13,2.76,2.76,0,0,0,2.19.9,3.62,3.62,0,0,0,1.3-.25,5.46,5.46,0,0,0,1.33-.8l.49,1.08a4.36,4.36,0,0,1-1.46.87A5.48,5.48,0,0,1,410.27,445.61Zm8.86,0a4.32,4.32,0,0,1-2.25-.57,4,4,0,0,1-1.52-1.64,6.2,6.2,0,0,1,0-5,4,4,0,0,1,1.52-1.64,4.32,4.32,0,0,1,2.25-.57,4.38,4.38,0,0,1,2.25.57,3.89,3.89,0,0,1,1.49,1.64,6,6,0,0,1,0,5,3.89,3.89,0,0,1-1.49,1.64A4.38,4.38,0,0,1,419.13,445.61Zm0-1.2a2.54,2.54,0,0,0,2.07-.88,4.1,4.1,0,0,0,.72-2.61,3.94,3.94,0,0,0-.74-2.56,2.77,2.77,0,0,0-4.12,0,3.89,3.89,0,0,0-.74,2.56,4.1,4.1,0,0,0,.72,2.61A2.6,2.6,0,0,0,419.13,444.41Zm11.07-8.19q3.26,0,3.26,3.58v5.69H432v-5.62a2.76,2.76,0,0,0-.5-1.83,2,2,0,0,0-1.59-.6,2.66,2.66,0,0,0-2,.78,2.82,2.82,0,0,0-.76,2.08v5.19h-1.46V439a21.71,21.71,0,0,0-.14-2.54h1.38l.15,1.62a3,3,0,0,1,1.24-1.35A3.69,3.69,0,0,1,430.2,436.22Zm8,1.37v5a2,2,0,0,0,.41,1.42,1.65,1.65,0,0,0,1.17.39,2.86,2.86,0,0,0,1-.16v1.24a4.08,4.08,0,0,1-1.26.18,2.78,2.78,0,0,1-2-.72,3,3,0,0,1-.72-2.16v-5.14h-1.77v-1.16h1.77v-2.32l1.46-.52v2.84h2.59v1.16Zm8.56-1.37a2.78,2.78,0,0,1,.83.11l0,1.33a2.79,2.79,0,0,0-.95-.15,2.37,2.37,0,0,0-2,.83,3.13,3.13,0,0,0-.63,2v5.17h-1.45V439a19.62,19.62,0,0,0-.15-2.54h1.39l.14,1.68a2.84,2.84,0,0,1,1.1-1.41A3.15,3.15,0,0,1,446.72,436.22Zm5.88,9.39a4.32,4.32,0,0,1-2.25-.57,4,4,0,0,1-1.52-1.64,6.2,6.2,0,0,1,0-5,4,4,0,0,1,1.52-1.64,4.32,4.32,0,0,1,2.25-.57,4.38,4.38,0,0,1,2.25.57,3.89,3.89,0,0,1,1.49,1.64,6,6,0,0,1,0,5,3.89,3.89,0,0,1-1.49,1.64A4.38,4.38,0,0,1,452.6,445.61Zm0-1.2a2.54,2.54,0,0,0,2.07-.88,4.1,4.1,0,0,0,.72-2.61,3.94,3.94,0,0,0-.74-2.56,2.77,2.77,0,0,0-4.12,0,3.89,3.89,0,0,0-.74,2.56,4.1,4.1,0,0,0,.72,2.61A2.6,2.6,0,0,0,452.6,444.41Zm6.55-12.17h1.46v13.25h-1.46Zm12.26,4.19v9.06H470v-1.64a2.87,2.87,0,0,1-1.2,1.31,3.71,3.71,0,0,1-1.86.45,3.93,3.93,0,0,1-2.12-.57,3.89,3.89,0,0,1-1.4-1.62,6.39,6.39,0,0,1,0-4.93,4,4,0,0,1,1.41-1.68,3.82,3.82,0,0,1,2.1-.59,3.52,3.52,0,0,1,1.86.47A3,3,0,0,1,470,438v-1.57Zm-4.21,8a2.47,2.47,0,0,0,2.05-.9,4.11,4.11,0,0,0,.72-2.59,4,4,0,0,0-.72-2.58,2.47,2.47,0,0,0-2.05-.9,2.53,2.53,0,0,0-2.09.94,4,4,0,0,0-.73,2.57,3.94,3.94,0,0,0,.73,2.56A2.56,2.56,0,0,0,467.2,444.41Zm15-12.17v13.25h-1.44v-1.64a3,3,0,0,1-1.21,1.31,3.67,3.67,0,0,1-1.85.45,3.77,3.77,0,0,1-2.11-.59,3.94,3.94,0,0,1-1.4-1.66,5.72,5.72,0,0,1-.51-2.48,5.82,5.82,0,0,1,.49-2.45,3.87,3.87,0,0,1,1.42-1.64,3.92,3.92,0,0,1,2.11-.57,3.49,3.49,0,0,1,1.85.47,2.81,2.81,0,0,1,1.19,1.27v-5.72ZM478,444.41a2.48,2.48,0,0,0,2.05-.9,4.11,4.11,0,0,0,.72-2.59,4,4,0,0,0-.72-2.56,2.47,2.47,0,0,0-2.05-.92,2.58,2.58,0,0,0-2.09.9,3.92,3.92,0,0,0-.74,2.54,4.12,4.12,0,0,0,.74,2.61A2.56,2.56,0,0,0,478,444.41Zm10.77,1.2a4.38,4.38,0,0,1-2.25-.57A3.93,3.93,0,0,1,485,443.4a6.2,6.2,0,0,1,0-5,3.93,3.93,0,0,1,1.51-1.64,4.73,4.73,0,0,1,4.5,0,3.76,3.76,0,0,1,1.49,1.64,6,6,0,0,1,0,5A3.76,3.76,0,0,1,491,445,4.38,4.38,0,0,1,488.77,445.61Zm0-1.2a2.54,2.54,0,0,0,2.07-.88,4.1,4.1,0,0,0,.72-2.61,3.94,3.94,0,0,0-.74-2.56,2.48,2.48,0,0,0-2.05-.92,2.51,2.51,0,0,0-2.07.92,3.94,3.94,0,0,0-.74,2.56,4.1,4.1,0,0,0,.72,2.61A2.6,2.6,0,0,0,488.77,444.41Z"/><path class="cls-6" d="M430.78,629.93h-4.47v-1.26h10.42v1.26h-4.46v11.56h-1.49Zm10.39,2.29a2.78,2.78,0,0,1,.83.11l0,1.33a2.79,2.79,0,0,0-.95-.15,2.37,2.37,0,0,0-2,.83,3.13,3.13,0,0,0-.63,2v5.17H437V635a19.62,19.62,0,0,0-.15-2.54h1.39l.14,1.68a2.84,2.84,0,0,1,1.1-1.41A3.15,3.15,0,0,1,441.17,632.22Zm2.31.21h1.46v9.06h-1.46Zm1.64-3.83v1.66h-1.79V628.6Zm10.62,3.83v9.06H454.3v-1.64a2.87,2.87,0,0,1-1.2,1.31,3.71,3.71,0,0,1-1.86.45,3.93,3.93,0,0,1-2.12-.57,4,4,0,0,1-1.41-1.62,6,6,0,0,1-.48-2.47,5.75,5.75,0,0,1,.5-2.46,4,4,0,0,1,1.41-1.68,3.82,3.82,0,0,1,2.1-.59,3.52,3.52,0,0,1,1.86.47,3,3,0,0,1,1.2,1.31v-1.57Zm-4.21,8a2.47,2.47,0,0,0,2.05-.9,4.11,4.11,0,0,0,.72-2.59,4,4,0,0,0-.72-2.58,2.47,2.47,0,0,0-2.05-.9,2.53,2.53,0,0,0-2.09.94,4,4,0,0,0-.74,2.57,3.94,3.94,0,0,0,.74,2.56A2.55,2.55,0,0,0,451.53,640.41Zm15.09-8v9a3.65,3.65,0,0,1-4.08,4.08,6.64,6.64,0,0,1-3.57-.93l.26-1.19a7.35,7.35,0,0,0,1.62.7,6.4,6.4,0,0,0,1.69.22,2.62,2.62,0,0,0,2-.71,2.84,2.84,0,0,0,.66-2.05V639.4a3,3,0,0,1-1.22,1.35,3.68,3.68,0,0,1-1.89.47,4.07,4.07,0,0,1-2.12-.56,3.72,3.72,0,0,1-1.43-1.58,5.82,5.82,0,0,1,0-4.72,3.72,3.72,0,0,1,1.43-1.58,4,4,0,0,1,2.12-.56,3.54,3.54,0,0,1,1.87.47,3.05,3.05,0,0,1,1.23,1.31v-1.57ZM462.36,640a2.54,2.54,0,0,0,2.05-.86,3.61,3.61,0,0,0,.76-2.41,3.56,3.56,0,0,0-.76-2.4,2.55,2.55,0,0,0-2.05-.88,2.69,2.69,0,0,0-2.11.88,3.56,3.56,0,0,0-.75,2.4,3.6,3.6,0,0,0,.75,2.41A2.68,2.68,0,0,0,462.36,640ZM477,636.92h-6.64a4,4,0,0,0,.79,2.61,3,3,0,0,0,2.29.88,4.6,4.6,0,0,0,2.91-1.06l.49,1.06a4.37,4.37,0,0,1-1.53.88,5.52,5.52,0,0,1-1.89.32,4.41,4.41,0,0,1-3.33-1.24,4.78,4.78,0,0,1-1.21-3.44,5.28,5.28,0,0,1,.54-2.44,4.06,4.06,0,0,1,1.52-1.68,4.17,4.17,0,0,1,2.21-.59,3.53,3.53,0,0,1,2.83,1.19,4.77,4.77,0,0,1,1,3.24Zm-3.83-3.57a2.58,2.58,0,0,0-1.86.69,3.39,3.39,0,0,0-.9,1.92h5.28a3.05,3.05,0,0,0-.76-1.94A2.29,2.29,0,0,0,473.17,633.35Zm16.09-1.13q3,0,3,3.58v5.69h-1.45v-5.62a3,3,0,0,0-.45-1.85,1.67,1.67,0,0,0-1.43-.58,2.23,2.23,0,0,0-1.8.78,3.16,3.16,0,0,0-.64,2.1v5.17H485v-5.62a3,3,0,0,0-.45-1.83,1.68,1.68,0,0,0-1.44-.6,2.26,2.26,0,0,0-1.82.78,3.16,3.16,0,0,0-.65,2.1v5.17h-1.46V635a19.73,19.73,0,0,0-.14-2.54h1.39l.14,1.59a2.83,2.83,0,0,1,1.12-1.33,3.15,3.15,0,0,1,1.74-.47,3.27,3.27,0,0,1,1.77.43,2.51,2.51,0,0,1,1,1.33,3.17,3.17,0,0,1,1.21-1.28A3.51,3.51,0,0,1,489.26,632.22Z"/></svg>