<svg id="licença_ambiental" data-name="licença ambiental" xmlns="http://www.w3.org/2000/svg" viewBox="0 0 1795.4 1080"><defs><style>.cls-1{fill:#ffc91f;}.cls-2{fill:#edac2b;}.cls-3{fill:#af841b;}.cls-4{fill:#5b460b;}.cls-5{fill:#876416;}.cls-6{fill:none;stroke:#000;stroke-linecap:round;stroke-linejoin:round;stroke-width:2px;}.cls-7{fill:#101010;}</style></defs><path id="sims" class="cls-1" d="M1037.88,573.11H480.94V520.26h556.94c16.75,0,30.38,6,30.38,27.1h0C1068.26,568.51,1054.63,573.11,1037.88,573.11Z"/><path id="sims-2" class="cls-2" d="M519.58,638.47H480.94V585.62h38.64c16.75,0,30.38,6,30.38,27.1h0C550,633.87,536.33,638.47,519.58,638.47Z"/><path id="sims-3" class="cls-3" d="M519.58,703.6H480.94V650.74h38.64c16.75,0,30.38,6,30.38,27.11h0C550,699,536.33,703.6,519.58,703.6Z"/><path id="naos" class="cls-4" d="M480.94,785h0v41.53h0c21.15,0,20.17-9.29,20.17-20.76h0C501.11,794.32,502.09,785,480.94,785Z"/><path id="naos-2" class="cls-5" d="M480.94,722.09h0v41.53h0c21.15,0,20.17-9.3,20.17-20.77h0C501.11,731.38,502.09,722.09,480.94,722.09Z"/><g id="Base_grafico" data-name="Base grafico"><line class="cls-6" x1="480.94" y1="840.6" x2="1090.72" y2="840.6"/><line class="cls-6" x1="480.94" y1="840.6" x2="480.94" y2="502.38"/><line class="cls-6" x1="480.94" y1="840.6" x2="480.94" y2="844.68"/><line class="cls-6" x1="571.57" y1="840.6" x2="571.57" y2="844.68"/><line class="cls-6" x1="661.7" y1="840.6" x2="661.7" y2="844.68"/><line class="cls-6" x1="752.77" y1="840.6" x2="752.77" y2="844.68"/><line class="cls-6" x1="843.49" y1="840.6" x2="843.49" y2="844.68"/><line class="cls-6" x1="934.38" y1="840.6" x2="934.38" y2="844.68"/><line class="cls-6" x1="1024.94" y1="840.6" x2="1024.94" y2="844.68"/></g><path class="cls-7" d="M747.13,898.86a9.91,9.91,0,0,0,2.32,2.72l-1,.93a9.39,9.39,0,0,1-1.51-1.47,12.28,12.28,0,0,1-1.31-1.86,5.83,5.83,0,0,1-.63,0,6,6,0,0,1-3.1-.79,5.28,5.28,0,0,1-2-2.27,9,9,0,0,1,0-7,5.1,5.1,0,0,1,2-2.26,6.46,6.46,0,0,1,6.23,0,5.12,5.12,0,0,1,2,2.26,8.18,8.18,0,0,1,.7,3.48,7.69,7.69,0,0,1-1,4A5.11,5.11,0,0,1,747.13,898.86Zm-6.48-6.21a6,6,0,0,0,1.13,3.92A3.88,3.88,0,0,0,745,898a3.84,3.84,0,0,0,3.16-1.39,7.29,7.29,0,0,0,0-7.83,3.85,3.85,0,0,0-3.16-1.37,3.91,3.91,0,0,0-3.19,1.39A5.92,5.92,0,0,0,740.65,892.65ZM760.9,890v9.05h-1.42v-1.56a3,3,0,0,1-1.2,1.26,3.52,3.52,0,0,1-1.75.43,3.13,3.13,0,0,1-2.43-.9,3.82,3.82,0,0,1-.83-2.66V890h1.46v5.58a2.71,2.71,0,0,0,.5,1.8,2,2,0,0,0,1.53.58,2.55,2.55,0,0,0,2-.78,2.93,2.93,0,0,0,.74-2.07V890Zm10.79,0v9.05h-1.44v-1.63a2.89,2.89,0,0,1-1.21,1.31,3.65,3.65,0,0,1-1.85.45,3.75,3.75,0,0,1-3.53-2.2,5.9,5.9,0,0,1-.48-2.46,5.65,5.65,0,0,1,.5-2.47,3.92,3.92,0,0,1,1.4-1.67,3.8,3.8,0,0,1,2.11-.6,3.56,3.56,0,0,1,1.85.47,3,3,0,0,1,1.21,1.32V890Zm-4.21,8a2.48,2.48,0,0,0,2-.91,4.09,4.09,0,0,0,.72-2.59,4,4,0,0,0-.72-2.57,2.47,2.47,0,0,0-2-.9,2.52,2.52,0,0,0-2.09.94,4,4,0,0,0-.74,2.57,3.91,3.91,0,0,0,.74,2.55A2.56,2.56,0,0,0,767.48,898ZM779,889.8q3.26,0,3.25,3.59v5.68h-1.45v-5.61a2.75,2.75,0,0,0-.51-1.84,2,2,0,0,0-1.58-.59,2.73,2.73,0,0,0-2,.77,2.88,2.88,0,0,0-.75,2.09v5.18h-1.46v-6.51a19.51,19.51,0,0,0-.15-2.54h1.39l.14,1.62a2.93,2.93,0,0,1,1.25-1.35A3.69,3.69,0,0,1,779,889.8Zm8,1.37v5a1.94,1.94,0,0,0,.42,1.42,1.58,1.58,0,0,0,1.17.4,2.9,2.9,0,0,0,1-.16V899a4.08,4.08,0,0,1-1.26.18,2.81,2.81,0,0,1-2-.72,3,3,0,0,1-.72-2.16v-5.15h-1.76V890h1.76V887.7l1.46-.52V890h2.59v1.15Zm4.35-1.15h1.46v9.05h-1.46Zm1.64-3.83v1.65h-1.78v-1.65Zm10.62-.36v13.24h-1.44v-1.63a2.87,2.87,0,0,1-1.2,1.31,3.71,3.71,0,0,1-1.86.45,3.82,3.82,0,0,1-2.1-.59,4,4,0,0,1-1.41-1.66,5.9,5.9,0,0,1-.5-2.48,5.67,5.67,0,0,1,.49-2.45,3.75,3.75,0,0,1,1.42-1.64,3.9,3.9,0,0,1,2.1-.58,3.62,3.62,0,0,1,1.86.47,2.89,2.89,0,0,1,1.19,1.28v-5.72ZM799.38,898a2.48,2.48,0,0,0,2-.91,4.09,4.09,0,0,0,.72-2.59,4,4,0,0,0-.72-2.55,2.43,2.43,0,0,0-2-.92,2.59,2.59,0,0,0-2.09.9,3.9,3.9,0,0,0-.73,2.54,4.15,4.15,0,0,0,.73,2.61A2.57,2.57,0,0,0,799.38,898Zm15-8v9.05H813v-1.63a3,3,0,0,1-1.21,1.31,3.7,3.7,0,0,1-1.85.45,3.86,3.86,0,0,1-2.13-.58,3.77,3.77,0,0,1-1.4-1.62,5.75,5.75,0,0,1-.49-2.46,5.65,5.65,0,0,1,.51-2.47,3.85,3.85,0,0,1,1.4-1.67,3.75,3.75,0,0,1,2.11-.6,3.61,3.61,0,0,1,1.85.47,3,3,0,0,1,1.21,1.32V890Zm-4.22,8a2.5,2.5,0,0,0,2.06-.91,4.09,4.09,0,0,0,.72-2.59,4,4,0,0,0-.72-2.57,2.79,2.79,0,0,0-4.14,0,3.94,3.94,0,0,0-.74,2.57,3.86,3.86,0,0,0,.74,2.55A2.54,2.54,0,0,0,810.17,898Zm15-12.17v13.24h-1.44v-1.63a2.89,2.89,0,0,1-1.21,1.31,3.65,3.65,0,0,1-1.85.45,3.87,3.87,0,0,1-2.11-.59,4,4,0,0,1-1.4-1.66,5.75,5.75,0,0,1-.5-2.48,5.82,5.82,0,0,1,.48-2.45,3.81,3.81,0,0,1,1.42-1.64,4,4,0,0,1,2.11-.58,3.56,3.56,0,0,1,1.85.47,2.84,2.84,0,0,1,1.19,1.28v-5.72ZM821,898a2.48,2.48,0,0,0,2-.91,4.09,4.09,0,0,0,.72-2.59A4,4,0,0,0,823,892a2.43,2.43,0,0,0-2-.92,2.58,2.58,0,0,0-2.09.9,3.9,3.9,0,0,0-.74,2.54,4.15,4.15,0,0,0,.74,2.61A2.56,2.56,0,0,0,821,898Zm14.61-3.5h-6.65a3.93,3.93,0,0,0,.8,2.61A2.89,2.89,0,0,0,832,898a4.58,4.58,0,0,0,2.92-1.07l.48,1.07a4.19,4.19,0,0,1-1.53.88,5.77,5.77,0,0,1-1.89.32,4.44,4.44,0,0,1-3.33-1.24,4.79,4.79,0,0,1-1.2-3.44,5.35,5.35,0,0,1,.54-2.45,4,4,0,0,1,1.51-1.67,4.14,4.14,0,0,1,2.21-.6,3.55,3.55,0,0,1,2.83,1.19,4.77,4.77,0,0,1,1,3.24Zm-3.84-3.56a2.61,2.61,0,0,0-1.85.68,3.33,3.33,0,0,0-.9,1.93h5.27a3.1,3.1,0,0,0-.75-1.95A2.33,2.33,0,0,0,831.74,890.94Z"/><path class="cls-7" d="M482.42,865.22a3.81,3.81,0,0,1-3.35-1.66,11.12,11.12,0,0,1,0-9.77,4.16,4.16,0,0,1,6.68,0,8.47,8.47,0,0,1,1.15,4.86,8.58,8.58,0,0,1-1.15,4.89A3.77,3.77,0,0,1,482.42,865.22Zm0-1.24a2.41,2.41,0,0,0,2.25-1.3,11.41,11.41,0,0,0,0-8,2.65,2.65,0,0,0-4.54,0,8.48,8.48,0,0,0-.72,4,8.7,8.7,0,0,0,.72,4A2.45,2.45,0,0,0,482.42,864Z"/><path class="cls-7" d="M572.47,863.83v1.24h-7.15v-1.24h2.83v-9.74l-2.63,1.68v-1.42l3.28-2.09h.84v11.57Zm6.74,1.39a3.82,3.82,0,0,1-3.35-1.66,11.12,11.12,0,0,1,0-9.77,3.82,3.82,0,0,1,3.35-1.68,3.75,3.75,0,0,1,3.33,1.68,8.47,8.47,0,0,1,1.15,4.86,8.58,8.58,0,0,1-1.15,4.89A3.75,3.75,0,0,1,579.21,865.22Zm0-1.24a2.41,2.41,0,0,0,2.25-1.3,11.41,11.41,0,0,0,0-8,2.43,2.43,0,0,0-2.27-1.28,2.46,2.46,0,0,0-2.27,1.28,8.48,8.48,0,0,0-.72,4,8.7,8.7,0,0,0,.72,4A2.46,2.46,0,0,0,579.21,864Z"/><path class="cls-7" d="M662.76,863.83v1.24h-8.25V864l4.48-5a9.17,9.17,0,0,0,1.32-1.82,3.6,3.6,0,0,0,.41-1.62,2.07,2.07,0,0,0-.61-1.62,2.47,2.47,0,0,0-1.75-.57,5.73,5.73,0,0,0-3.63,1.47l-.56-1.13a5.38,5.38,0,0,1,1.91-1.15,6.53,6.53,0,0,1,2.32-.44,4,4,0,0,1,2.79.92,3.11,3.11,0,0,1,1,2.45,4.69,4.69,0,0,1-.51,2.12,9.59,9.59,0,0,1-1.64,2.27l-3.65,4Zm6.45,1.39a3.82,3.82,0,0,1-3.35-1.66,11.12,11.12,0,0,1,0-9.77,3.82,3.82,0,0,1,3.35-1.68,3.75,3.75,0,0,1,3.33,1.68,8.47,8.47,0,0,1,1.15,4.86,8.58,8.58,0,0,1-1.15,4.89A3.75,3.75,0,0,1,669.21,865.22Zm0-1.24a2.41,2.41,0,0,0,2.25-1.3,11.41,11.41,0,0,0,0-8,2.43,2.43,0,0,0-2.27-1.28,2.46,2.46,0,0,0-2.27,1.28,8.48,8.48,0,0,0-.72,4,8.7,8.7,0,0,0,.72,4A2.46,2.46,0,0,0,669.21,864Z"/><path class="cls-7" d="M751.18,858.49a3.12,3.12,0,0,1,1.73,1.11,3.23,3.23,0,0,1,.59,2,3.29,3.29,0,0,1-1.13,2.65,4.67,4.67,0,0,1-3.08,1,7.15,7.15,0,0,1-2.39-.41,5.58,5.58,0,0,1-1.93-1.17l.58-1.14a5.73,5.73,0,0,0,3.71,1.48,3.12,3.12,0,0,0,2.07-.61,2.24,2.24,0,0,0,.72-1.8c0-1.58-1-2.36-3-2.36h-1.47V858h1.19a3.3,3.3,0,0,0,2.17-.63,2.2,2.2,0,0,0,.76-1.8,2.05,2.05,0,0,0-.63-1.61,2.52,2.52,0,0,0-1.75-.55,5.73,5.73,0,0,0-3.63,1.47l-.56-1.13a5.45,5.45,0,0,1,1.89-1.15,6.54,6.54,0,0,1,2.36-.44,4.06,4.06,0,0,1,2.75.89,2.93,2.93,0,0,1,1.05,2.37,3.46,3.46,0,0,1-.54,1.93A3,3,0,0,1,751.18,858.49Zm9,6.73a3.82,3.82,0,0,1-3.35-1.66,11.12,11.12,0,0,1,0-9.77,3.82,3.82,0,0,1,3.35-1.68,3.75,3.75,0,0,1,3.33,1.68,8.47,8.47,0,0,1,1.15,4.86,8.58,8.58,0,0,1-1.15,4.89A3.75,3.75,0,0,1,760.21,865.22Zm0-1.24a2.41,2.41,0,0,0,2.25-1.3,11.41,11.41,0,0,0,0-8,2.43,2.43,0,0,0-2.27-1.28,2.46,2.46,0,0,0-2.27,1.28,8.48,8.48,0,0,0-.72,4,8.7,8.7,0,0,0,.72,4A2.46,2.46,0,0,0,760.21,864Z"/><path class="cls-7" d="M845.22,862.28h-1.94v2.79H841.8v-2.79h-5.9v-1.11l6.17-8.91h1.21v8.8h1.94Zm-3.42-1.22v-6.3l-4.37,6.3Zm9.41,4.16a3.82,3.82,0,0,1-3.35-1.66,11.12,11.12,0,0,1,0-9.77,3.82,3.82,0,0,1,3.35-1.68,3.75,3.75,0,0,1,3.33,1.68,8.47,8.47,0,0,1,1.15,4.86,8.58,8.58,0,0,1-1.15,4.89A3.75,3.75,0,0,1,851.21,865.22Zm0-1.24a2.41,2.41,0,0,0,2.25-1.3,11.41,11.41,0,0,0,0-8,2.43,2.43,0,0,0-2.27-1.28,2.46,2.46,0,0,0-2.27,1.28,8.48,8.48,0,0,0-.72,4,8.7,8.7,0,0,0,.72,4A2.46,2.46,0,0,0,851.21,864Z"/><path class="cls-7" d="M931,857a4.09,4.09,0,0,1,2.1.52,3.44,3.44,0,0,1,1.41,1.42,4.52,4.52,0,0,1,.48,2.13,4.23,4.23,0,0,1-.54,2.14,3.61,3.61,0,0,1-1.51,1.46,5,5,0,0,1-2.28.5,6.86,6.86,0,0,1-2.31-.41,5.8,5.8,0,0,1-1.91-1.17l.56-1.14a5.68,5.68,0,0,0,3.66,1.48,2.66,2.66,0,0,0,2.88-2.85,2.83,2.83,0,0,0-.76-2.05,2.65,2.65,0,0,0-2-.79,3.47,3.47,0,0,0-2.93,1.49h-1v-7.5h7.69v1.22h-6.21v4.57A3.76,3.76,0,0,1,931,857Zm10.25,8.19a3.82,3.82,0,0,1-3.35-1.66,11.12,11.12,0,0,1,0-9.77,3.82,3.82,0,0,1,3.35-1.68,3.75,3.75,0,0,1,3.33,1.68,8.47,8.47,0,0,1,1.15,4.86,8.58,8.58,0,0,1-1.15,4.89A3.75,3.75,0,0,1,941.21,865.22Zm0-1.24a2.41,2.41,0,0,0,2.25-1.3,11.41,11.41,0,0,0,0-8,2.43,2.43,0,0,0-2.27-1.28,2.46,2.46,0,0,0-2.27,1.28,8.48,8.48,0,0,0-.72,4,8.7,8.7,0,0,0,.72,4A2.46,2.46,0,0,0,941.21,864Z"/><path class="cls-7" d="M1021,857a4,4,0,0,1,2.07.52,3.58,3.58,0,0,1,1.42,1.44,4.25,4.25,0,0,1,.5,2.11,4.15,4.15,0,0,1-.54,2.12,3.82,3.82,0,0,1-1.45,1.48,4.42,4.42,0,0,1-2.13.52,4.27,4.27,0,0,1-3.58-1.62A7.37,7.37,0,0,1,1016,859a10.51,10.51,0,0,1,.58-3.71,5.14,5.14,0,0,1,1.69-2.36,4.4,4.4,0,0,1,2.66-.81,5.69,5.69,0,0,1,2.16.42,5.44,5.44,0,0,1,1.86,1.17l-.56,1.13a7.35,7.35,0,0,0-1.73-1.11,4.21,4.21,0,0,0-1.69-.36,2.89,2.89,0,0,0-2.58,1.47,7.9,7.9,0,0,0-.91,4.14v.27a3.34,3.34,0,0,1,1.35-1.62A3.93,3.93,0,0,1,1021,857Zm-.2,7a2.62,2.62,0,0,0,2-.78,2.92,2.92,0,0,0,.76-2.09,2.77,2.77,0,0,0-.78-2.05,2.59,2.59,0,0,0-2-.79,2.91,2.91,0,0,0-2,4.91A2.8,2.8,0,0,0,1020.76,864Zm10.45,1.24a3.82,3.82,0,0,1-3.35-1.66,11.12,11.12,0,0,1,0-9.77,3.82,3.82,0,0,1,3.35-1.68,3.75,3.75,0,0,1,3.33,1.68,8.47,8.47,0,0,1,1.15,4.86,8.58,8.58,0,0,1-1.15,4.89A3.75,3.75,0,0,1,1031.21,865.22Zm0-1.24a2.41,2.41,0,0,0,2.25-1.3,11.41,11.41,0,0,0,0-8,2.43,2.43,0,0,0-2.27-1.28,2.46,2.46,0,0,0-2.27,1.28,8.48,8.48,0,0,0-.72,4,8.7,8.7,0,0,0,.72,4A2.46,2.46,0,0,0,1031.21,864Z"/><path class="cls-7" d="M614.83,492.7a7,7,0,0,0,1,1.31,12.81,12.81,0,0,0,1.35,1.24l-1.57,1.26A10.13,10.13,0,0,1,614,495a11.85,11.85,0,0,1-1.34-1.82l-.52,0a6.43,6.43,0,0,1-3.24-.8,5.5,5.5,0,0,1-2.12-2.28,7.89,7.89,0,0,1-.74-3.51,7.76,7.76,0,0,1,.74-3.48,5.28,5.28,0,0,1,2.1-2.28,6.45,6.45,0,0,1,3.26-.79,6.32,6.32,0,0,1,3.24.79,5.13,5.13,0,0,1,2.11,2.28,7.76,7.76,0,0,1,.74,3.48,7.52,7.52,0,0,1-.89,3.76A5.16,5.16,0,0,1,614.83,492.7Zm-6.5-6.05a5.47,5.47,0,0,0,1,3.51,3.75,3.75,0,0,0,5.54,0,5.47,5.47,0,0,0,1-3.51,5.38,5.38,0,0,0-1-3.48,3.77,3.77,0,0,0-5.54,0A5.36,5.36,0,0,0,608.33,486.65ZM628.67,484v9.09h-2.19v-1.4a3,3,0,0,1-1.16,1.15,3.3,3.3,0,0,1-1.65.4q-3.33,0-3.33-3.75V484h2.23v5.51A2.2,2.2,0,0,0,623,491a1.59,1.59,0,0,0,1.26.47,2.05,2.05,0,0,0,1.58-.65,2.44,2.44,0,0,0,.59-1.73V484Zm11.14,0v9.09H637.6v-1.45a3,3,0,0,1-1.19,1.18,3.67,3.67,0,0,1-1.77.42,3.81,3.81,0,0,1-2.1-.58,3.75,3.75,0,0,1-1.42-1.64,5.6,5.6,0,0,1-.51-2.46,5.77,5.77,0,0,1,.51-2.49,3.93,3.93,0,0,1,1.44-1.69,3.63,3.63,0,0,1,2.08-.61,3.57,3.57,0,0,1,1.77.43,3,3,0,0,1,1.19,1.17V484Zm-4.55,7.47a2,2,0,0,0,1.72-.77,4.2,4.2,0,0,0,0-4.39,2.31,2.31,0,0,0-3.49,0,3.55,3.55,0,0,0-.61,2.22,3.37,3.37,0,0,0,.61,2.16A2.18,2.18,0,0,0,635.26,491.45Zm12.2-7.7q3.25,0,3.26,3.74v5.58h-2.25V487.6a2.41,2.41,0,0,0-.41-1.56,1.57,1.57,0,0,0-1.28-.51,2.16,2.16,0,0,0-1.66.67,2.37,2.37,0,0,0-.63,1.73v5.14h-2.23v-6.51a22,22,0,0,0-.14-2.58h2.1l.16,1.5a3.44,3.44,0,0,1,1.26-1.28A3.69,3.69,0,0,1,647.46,483.75Zm8.51,1.93v4.06c0,1.07.5,1.61,1.49,1.61a3,3,0,0,0,.9-.15V493a4,4,0,0,1-1.44.22,3.14,3.14,0,0,1-2.37-.86,3.44,3.44,0,0,1-.83-2.49v-4.17H652V484h1.75v-2.21L656,481v3h2.41v1.7Zm4-1.7h2.23v9.09h-2.23Zm2.35-4.12v2.22h-2.5v-2.22Zm11,0v13.24H671.1v-1.45a2.94,2.94,0,0,1-1.19,1.18,3.61,3.61,0,0,1-1.76.42,3.73,3.73,0,0,1-2.09-.6,4,4,0,0,1-1.44-1.67,5.88,5.88,0,0,1-.5-2.5,5.65,5.65,0,0,1,.5-2.47,3.78,3.78,0,0,1,3.53-2.23,3.62,3.62,0,0,1,1.73.41,2.82,2.82,0,0,1,1.18,1.14v-5.47Zm-4.57,11.62a2.06,2.06,0,0,0,1.73-.77,4.2,4.2,0,0,0,0-4.39,2.08,2.08,0,0,0-1.73-.78,2.13,2.13,0,0,0-1.76.78,3.33,3.33,0,0,0-.62,2.16,3.52,3.52,0,0,0,.62,2.21A2.09,2.09,0,0,0,668.74,491.45ZM684.46,484v9.09h-2.22v-1.45a2.91,2.91,0,0,1-1.18,1.18,3.67,3.67,0,0,1-1.77.42,3.81,3.81,0,0,1-2.1-.58,3.77,3.77,0,0,1-1.43-1.64,5.75,5.75,0,0,1-.5-2.46,5.92,5.92,0,0,1,.5-2.49,4.06,4.06,0,0,1,1.44-1.69,3.69,3.69,0,0,1,2.09-.61,3.57,3.57,0,0,1,1.77.43,2.89,2.89,0,0,1,1.18,1.17V484Zm-4.56,7.47a2.06,2.06,0,0,0,1.73-.77,3.43,3.43,0,0,0,.61-2.18,3.46,3.46,0,0,0-.61-2.21,2.31,2.31,0,0,0-3.49,0,3.55,3.55,0,0,0-.61,2.22,3.37,3.37,0,0,0,.61,2.16A2.18,2.18,0,0,0,679.9,491.45Zm15.7-11.62v13.24h-2.21v-1.45a2.94,2.94,0,0,1-1.19,1.18,3.63,3.63,0,0,1-1.76.42,3.73,3.73,0,0,1-2.09-.6,4,4,0,0,1-1.44-1.67,5.88,5.88,0,0,1-.51-2.5,5.65,5.65,0,0,1,.51-2.47,3.78,3.78,0,0,1,3.53-2.23,3.58,3.58,0,0,1,1.72.41,2.79,2.79,0,0,1,1.19,1.14v-5.47ZM691,491.45a2.07,2.07,0,0,0,1.73-.77,3.41,3.41,0,0,0,.63-2.2,3.5,3.5,0,0,0-.61-2.19,2.08,2.08,0,0,0-1.73-.78,2.15,2.15,0,0,0-1.77.78,3.39,3.39,0,0,0-.61,2.16,3.58,3.58,0,0,0,.61,2.21A2.11,2.11,0,0,0,691,491.45Zm15-2.8h-6.26a3.28,3.28,0,0,0,.72,2.16,2.62,2.62,0,0,0,2,.68,4.47,4.47,0,0,0,2.77-1l.65,1.55a5.26,5.26,0,0,1-1.6.84,6,6,0,0,1-1.91.31,4.78,4.78,0,0,1-3.51-1.26,4.64,4.64,0,0,1-1.28-3.46,5.31,5.31,0,0,1,.56-2.46,4.09,4.09,0,0,1,1.56-1.68,4.34,4.34,0,0,1,2.29-.61,3.74,3.74,0,0,1,2.95,1.22,4.79,4.79,0,0,1,1.1,3.33Zm-4-3.28a2.05,2.05,0,0,0-1.47.54,2.62,2.62,0,0,0-.72,1.53h4.23a2.49,2.49,0,0,0-.63-1.55A1.87,1.87,0,0,0,702,485.37Zm19.54-5.54v13.24h-2.22v-1.45a2.91,2.91,0,0,1-1.18,1.18,3.67,3.67,0,0,1-1.77.42,3.76,3.76,0,0,1-2.09-.6,4,4,0,0,1-1.44-1.67,6,6,0,0,1-.5-2.5,5.79,5.79,0,0,1,.5-2.47,3.81,3.81,0,0,1,3.53-2.23,3.6,3.6,0,0,1,1.73.41,2.85,2.85,0,0,1,1.19,1.14v-5.47ZM717,491.45a2,2,0,0,0,1.72-.77,4.2,4.2,0,0,0,0-4.39,2.07,2.07,0,0,0-1.73-.78,2.14,2.14,0,0,0-1.76.78,3.33,3.33,0,0,0-.61,2.16,3.52,3.52,0,0,0,.61,2.21A2.1,2.1,0,0,0,717,491.45Zm15-2.8h-6.26a3.39,3.39,0,0,0,.72,2.16,2.64,2.64,0,0,0,2,.68,4.45,4.45,0,0,0,2.77-1l.65,1.55a5.14,5.14,0,0,1-1.6.84,5.92,5.92,0,0,1-1.91.31,4.78,4.78,0,0,1-3.51-1.26,4.64,4.64,0,0,1-1.28-3.46,5.31,5.31,0,0,1,.56-2.46,4.11,4.11,0,0,1,1.57-1.68,4.28,4.28,0,0,1,2.28-.61,3.77,3.77,0,0,1,3,1.22A4.79,4.79,0,0,1,732,488.3Zm-4-3.28a2.09,2.09,0,0,0-1.48.54,2.62,2.62,0,0,0-.72,1.53H730a2.49,2.49,0,0,0-.63-1.55A1.83,1.83,0,0,0,728,485.37ZM747.08,484v9.09h-2.2v-1.4a2.89,2.89,0,0,1-1.15,1.15,3.3,3.3,0,0,1-1.65.4q-3.33,0-3.33-3.75V484H741v5.51a2.25,2.25,0,0,0,.39,1.46,1.61,1.61,0,0,0,1.26.47,2.07,2.07,0,0,0,1.59-.65,2.49,2.49,0,0,0,.59-1.73V484Zm7.64-.23c2.18,0,3.26,1.25,3.26,3.74v5.58h-2.25V487.6a2.41,2.41,0,0,0-.41-1.56,1.55,1.55,0,0,0-1.28-.51,2.17,2.17,0,0,0-1.66.67,2.37,2.37,0,0,0-.63,1.73v5.14h-2.23v-6.51a22,22,0,0,0-.14-2.58h2.1l.17,1.5a3.3,3.3,0,0,1,1.26-1.28A3.65,3.65,0,0,1,754.72,483.75Zm5.65.23h2.23v9.09h-2.23Zm2.36-4.12v2.22h-2.51v-2.22Zm11,0v13.24h-2.21v-1.45a2.94,2.94,0,0,1-1.19,1.18,3.61,3.61,0,0,1-1.76.42,3.73,3.73,0,0,1-2.09-.6,4,4,0,0,1-1.44-1.67,5.88,5.88,0,0,1-.5-2.5,5.65,5.65,0,0,1,.5-2.47,3.78,3.78,0,0,1,3.53-2.23,3.62,3.62,0,0,1,1.73.41,2.82,2.82,0,0,1,1.18,1.14v-5.47Zm-4.57,11.62a2.06,2.06,0,0,0,1.73-.77,4.2,4.2,0,0,0,0-4.39,2.08,2.08,0,0,0-1.73-.78,2.13,2.13,0,0,0-1.76.78,3.33,3.33,0,0,0-.62,2.16,3.52,3.52,0,0,0,.62,2.21A2.09,2.09,0,0,0,769.18,491.45ZM784.9,484v9.09h-2.21v-1.45a3,3,0,0,1-1.19,1.18,3.67,3.67,0,0,1-1.77.42,3.81,3.81,0,0,1-2.1-.58,3.75,3.75,0,0,1-1.42-1.64,5.6,5.6,0,0,1-.51-2.46,5.77,5.77,0,0,1,.51-2.49,3.93,3.93,0,0,1,1.44-1.69,3.63,3.63,0,0,1,2.08-.61,3.57,3.57,0,0,1,1.77.43,3,3,0,0,1,1.19,1.17V484Zm-4.55,7.47a2,2,0,0,0,1.72-.77,4.2,4.2,0,0,0,0-4.39,2.31,2.31,0,0,0-3.49,0,3.55,3.55,0,0,0-.61,2.22,3.37,3.37,0,0,0,.61,2.16A2.18,2.18,0,0,0,780.35,491.45ZM796,479.83v13.24h-2.21v-1.45a2.94,2.94,0,0,1-1.19,1.18,3.61,3.61,0,0,1-1.76.42,3.73,3.73,0,0,1-2.09-.6,4,4,0,0,1-1.44-1.67,5.88,5.88,0,0,1-.5-2.5,5.65,5.65,0,0,1,.5-2.47,3.78,3.78,0,0,1,3.53-2.23,3.62,3.62,0,0,1,1.73.41,2.82,2.82,0,0,1,1.18,1.14v-5.47Zm-4.57,11.62a2.06,2.06,0,0,0,1.73-.77,4.2,4.2,0,0,0,0-4.39,2.08,2.08,0,0,0-1.73-.78,2.13,2.13,0,0,0-1.76.78,3.33,3.33,0,0,0-.62,2.16,3.52,3.52,0,0,0,.62,2.21A2.09,2.09,0,0,0,791.47,491.45Zm15-2.8h-6.26a3.28,3.28,0,0,0,.72,2.16,2.62,2.62,0,0,0,2,.68,4.47,4.47,0,0,0,2.77-1l.65,1.55a5.26,5.26,0,0,1-1.6.84,6,6,0,0,1-1.91.31,4.78,4.78,0,0,1-3.51-1.26A4.64,4.64,0,0,1,798,488.5a5.31,5.31,0,0,1,.56-2.46,4.09,4.09,0,0,1,1.56-1.68,4.34,4.34,0,0,1,2.29-.61,3.74,3.74,0,0,1,3,1.22,4.79,4.79,0,0,1,1.1,3.33Zm-4-3.28a2.05,2.05,0,0,0-1.47.54,2.62,2.62,0,0,0-.72,1.53h4.23a2.49,2.49,0,0,0-.63-1.55A1.87,1.87,0,0,0,802.45,485.37Zm16-1.62a3.58,3.58,0,0,1,2.07.61,3.88,3.88,0,0,1,1.42,1.69,6.26,6.26,0,0,1,0,4.95,3.81,3.81,0,0,1-1.42,1.64,3.75,3.75,0,0,1-2.09.58,3.61,3.61,0,0,1-1.76-.42,2.88,2.88,0,0,1-1.19-1.18V497H813.3v-10.4a19.94,19.94,0,0,0-.15-2.58h2.11l.18,1.57a2.71,2.71,0,0,1,1.17-1.31A3.5,3.5,0,0,1,818.48,483.75Zm-.61,7.7a2.11,2.11,0,0,0,1.74-.75,3.37,3.37,0,0,0,.62-2.16,3.55,3.55,0,0,0-.62-2.22,2,2,0,0,0-1.72-.81,2.12,2.12,0,0,0-1.77.78,4.29,4.29,0,0,0,0,4.41A2.13,2.13,0,0,0,817.87,491.45Zm10.71,1.77a5,5,0,0,1-2.45-.58,4.06,4.06,0,0,1-1.62-1.64,5.44,5.44,0,0,1-.56-2.52,5.33,5.33,0,0,1,.56-2.5,4,4,0,0,1,1.62-1.65,5,5,0,0,1,2.45-.58,4.83,4.83,0,0,1,2.41.58,3.81,3.81,0,0,1,1.6,1.65,5.1,5.1,0,0,1,.58,2.5,5.21,5.21,0,0,1-.58,2.52,3.84,3.84,0,0,1-1.6,1.64A4.83,4.83,0,0,1,828.58,493.22Zm0-1.77a2.12,2.12,0,0,0,1.75-.73,3.5,3.5,0,0,0,.61-2.24,3.42,3.42,0,0,0-.61-2.21,2.35,2.35,0,0,0-3.48,0,3.49,3.49,0,0,0-.61,2.21,3.56,3.56,0,0,0,.6,2.24A2.13,2.13,0,0,0,828.56,491.45ZM840,483.77a2.74,2.74,0,0,1,.9.14l0,2a3.27,3.27,0,0,0-1.19-.23,2.23,2.23,0,0,0-1.76.67,2.52,2.52,0,0,0-.6,1.76v4.91h-2.23v-6.51A22,22,0,0,0,835,484h2.1l.18,1.61a2.71,2.71,0,0,1,1.08-1.35A3,3,0,0,1,840,483.77Zm10,1.91v4.06c0,1.07.5,1.61,1.49,1.61a3,3,0,0,0,.9-.15V493a4,4,0,0,1-1.44.22,3.14,3.14,0,0,1-2.37-.86,3.48,3.48,0,0,1-.83-2.49v-4.17H846V484h1.75v-2.21L850,481v3h2.41v1.7Zm4-1.7h2.23v9.09h-2.23Zm2.36-4.12v2.22h-2.51v-2.22Zm7.52,3.89a3.58,3.58,0,0,1,2.07.61,4,4,0,0,1,1.42,1.69,5.63,5.63,0,0,1,.52,2.49,5.75,5.75,0,0,1-.5,2.46,3.77,3.77,0,0,1-1.43,1.64,3.72,3.72,0,0,1-2.08.58,3.67,3.67,0,0,1-1.77-.42,3,3,0,0,1-1.19-1.18V497h-2.23v-10.4a22,22,0,0,0-.14-2.58h2.1l.18,1.57a2.71,2.71,0,0,1,1.17-1.31A3.54,3.54,0,0,1,863.8,483.75Zm-.62,7.7a2.13,2.13,0,0,0,1.75-.75,3.37,3.37,0,0,0,.61-2.16,3.55,3.55,0,0,0-.61-2.22,2,2,0,0,0-1.73-.81,2.1,2.1,0,0,0-1.76.78,4.29,4.29,0,0,0,0,4.41A2.12,2.12,0,0,0,863.18,491.45Zm10.72,1.77a5,5,0,0,1-2.45-.58,3.94,3.94,0,0,1-1.62-1.64,5.44,5.44,0,0,1-.56-2.52,5.33,5.33,0,0,1,.56-2.5,3.91,3.91,0,0,1,1.62-1.65,5,5,0,0,1,2.45-.58,4.86,4.86,0,0,1,2.41.58,3.86,3.86,0,0,1,1.6,1.65,5.22,5.22,0,0,1,.58,2.5,5.33,5.33,0,0,1-.58,2.52,3.89,3.89,0,0,1-1.6,1.64A4.86,4.86,0,0,1,873.9,493.22Zm0-1.77a2.09,2.09,0,0,0,1.74-.73,3.5,3.5,0,0,0,.62-2.24,3.42,3.42,0,0,0-.62-2.21,2,2,0,0,0-1.72-.77,2.09,2.09,0,0,0-1.75.77,3.42,3.42,0,0,0-.61,2.21,3.63,3.63,0,0,0,.59,2.24A2.15,2.15,0,0,0,873.88,491.45Zm20.18-11.62v13.24h-2.21v-1.45a3,3,0,0,1-1.19,1.18,3.92,3.92,0,0,1-3.85-.18,3.87,3.87,0,0,1-1.44-1.67,5.88,5.88,0,0,1-.51-2.5,5.65,5.65,0,0,1,.51-2.47,3.78,3.78,0,0,1,3.52-2.23,3.6,3.6,0,0,1,1.73.41,2.85,2.85,0,0,1,1.19,1.14v-5.47Zm-4.57,11.62a2.07,2.07,0,0,0,1.73-.77,4.17,4.17,0,0,0,0-4.39,2,2,0,0,0-1.72-.78,2.15,2.15,0,0,0-1.77.78,3.33,3.33,0,0,0-.61,2.16,3.52,3.52,0,0,0,.61,2.21A2.1,2.1,0,0,0,889.49,491.45Zm15-2.8H898.2a3.39,3.39,0,0,0,.72,2.16,2.65,2.65,0,0,0,2,.68,4.5,4.5,0,0,0,2.78-1l.64,1.55a5.14,5.14,0,0,1-1.6.84,5.92,5.92,0,0,1-1.91.31,4.81,4.81,0,0,1-3.51-1.26A4.64,4.64,0,0,1,896,488.5a5.3,5.3,0,0,1,.55-2.46,4.18,4.18,0,0,1,1.57-1.68,4.29,4.29,0,0,1,2.29-.61,3.76,3.76,0,0,1,3,1.22,4.79,4.79,0,0,1,1.1,3.33Zm-4-3.28a2.09,2.09,0,0,0-1.48.54,2.62,2.62,0,0,0-.72,1.53h4.23a2.49,2.49,0,0,0-.63-1.55A1.83,1.83,0,0,0,900.47,485.37Zm10.84-5.54h2.23v13.24h-2.23ZM916,484h2.24v9.09H916Zm2.36-4.12v2.22h-2.5v-2.22Zm6.46,13.36a5,5,0,0,1-2.47-.58,3.9,3.9,0,0,1-1.6-1.62,5.72,5.72,0,0,1,0-5,4.26,4.26,0,0,1,1.66-1.68,4.9,4.9,0,0,1,2.48-.61,5.6,5.6,0,0,1,1.87.31,3.63,3.63,0,0,1,1.46.84l-.63,1.59a4.09,4.09,0,0,0-1.22-.71,3.73,3.73,0,0,0-1.28-.25,2.41,2.41,0,0,0-1.91.78,3.12,3.12,0,0,0-.68,2.19,3.27,3.27,0,0,0,.66,2.2,2.49,2.49,0,0,0,1.93.75,3.51,3.51,0,0,0,1.28-.25,4.61,4.61,0,0,0,1.22-.72l.63,1.59a3.9,3.9,0,0,1-1.49.84A6,6,0,0,1,924.82,493.22Zm12.89-4.57h-6.27a3.39,3.39,0,0,0,.72,2.16,2.65,2.65,0,0,0,2,.68,4.5,4.5,0,0,0,2.78-1l.64,1.55a5.14,5.14,0,0,1-1.6.84,5.92,5.92,0,0,1-1.91.31,4.81,4.81,0,0,1-3.51-1.26,4.64,4.64,0,0,1-1.27-3.46,5.3,5.3,0,0,1,.55-2.46,4.18,4.18,0,0,1,1.57-1.68,4.29,4.29,0,0,1,2.29-.61,3.76,3.76,0,0,1,3,1.22,4.79,4.79,0,0,1,1.1,3.33Zm-4-3.28a2.09,2.09,0,0,0-1.48.54,2.62,2.62,0,0,0-.72,1.53h4.23a2.49,2.49,0,0,0-.63-1.55A1.83,1.83,0,0,0,933.71,485.37Zm11.1-1.62c2.18,0,3.26,1.25,3.26,3.74v5.58h-2.25V487.6a2.41,2.41,0,0,0-.41-1.56,1.55,1.55,0,0,0-1.28-.51,2.17,2.17,0,0,0-1.66.67,2.37,2.37,0,0,0-.63,1.73v5.14h-2.23v-6.51a22,22,0,0,0-.14-2.58h2.1l.17,1.5A3.3,3.3,0,0,1,943,484.2,3.65,3.65,0,0,1,944.81,483.75ZM958,492.07a4,4,0,0,1-1.35.81,5.77,5.77,0,0,1-1.73.32l-.07.61.31,0a1.56,1.56,0,0,1,1,.33,1.13,1.13,0,0,1,.41.93,1.33,1.33,0,0,1-.61,1.14,2.92,2.92,0,0,1-1.71.43,4.58,4.58,0,0,1-.86-.09,3.21,3.21,0,0,1-.79-.23l.21-1a4.57,4.57,0,0,0,1.41.25q.9,0,.9-.54c0-.26-.21-.39-.62-.39a3.28,3.28,0,0,0-.72.12l-.34-.34.15-1.29a4.06,4.06,0,0,1-2.7-1.5,4.82,4.82,0,0,1-1-3.11,5.27,5.27,0,0,1,.58-2.5,4.26,4.26,0,0,1,1.66-1.68,4.9,4.9,0,0,1,2.48-.61,5.6,5.6,0,0,1,1.87.31,3.63,3.63,0,0,1,1.46.84l-.63,1.59a4.09,4.09,0,0,0-1.22-.71,3.73,3.73,0,0,0-1.28-.25,2.41,2.41,0,0,0-1.91.78,3.12,3.12,0,0,0-.68,2.19,3.27,3.27,0,0,0,.66,2.2,2.49,2.49,0,0,0,1.93.75,3.51,3.51,0,0,0,1.28-.25,4.61,4.61,0,0,0,1.22-.72ZM968.2,484v9.09H966v-1.45a2.94,2.94,0,0,1-1.19,1.18,3.61,3.61,0,0,1-1.76.42,3.75,3.75,0,0,1-3.53-2.22,5.6,5.6,0,0,1-.5-2.46,5.77,5.77,0,0,1,.5-2.49,4.06,4.06,0,0,1,1.44-1.69,3.66,3.66,0,0,1,2.09-.61,3.5,3.5,0,0,1,1.76.43,2.92,2.92,0,0,1,1.19,1.17V484Zm-4.55,7.47a2.07,2.07,0,0,0,1.73-.77,3.43,3.43,0,0,0,.61-2.18,3.46,3.46,0,0,0-.61-2.21,2.31,2.31,0,0,0-3.49,0,3.55,3.55,0,0,0-.62,2.22,3.37,3.37,0,0,0,.62,2.16A2.16,2.16,0,0,0,963.65,491.45Z"/><path class="cls-7" d="M411.6,801.26h5.11a4.58,4.58,0,0,1,3.08,1,3.26,3.26,0,0,1,1.12,2.63,3.32,3.32,0,0,1-1.12,2.65,4.61,4.61,0,0,1-3.08,1h-3.63v5.63H411.6Zm5,6a3.21,3.21,0,0,0,2.14-.62,2.5,2.5,0,0,0,0-3.51,3.27,3.27,0,0,0-2.14-.61h-3.51v4.74Zm10.59-2.42a3.09,3.09,0,0,1,.83.11l0,1.34a2.85,2.85,0,0,0-1-.15,2.35,2.35,0,0,0-2,.83,3.13,3.13,0,0,0-.63,2v5.16H423v-6.51a21.58,21.58,0,0,0-.14-2.54h1.38l.15,1.67a2.72,2.72,0,0,1,1.1-1.4A3.14,3.14,0,0,1,427.18,804.8Zm9.72,4.7h-6.65a3.93,3.93,0,0,0,.8,2.61,2.89,2.89,0,0,0,2.28.89,4.58,4.58,0,0,0,2.92-1.07l.48,1.07a4.19,4.19,0,0,1-1.53.88,5.77,5.77,0,0,1-1.89.32A4.44,4.44,0,0,1,430,813a4.79,4.79,0,0,1-1.2-3.44,5.35,5.35,0,0,1,.54-2.45,4,4,0,0,1,1.51-1.67,4.14,4.14,0,0,1,2.21-.6,3.55,3.55,0,0,1,2.83,1.19,4.77,4.77,0,0,1,1,3.24Zm-3.84-3.56a2.61,2.61,0,0,0-1.85.68,3.33,3.33,0,0,0-.9,1.93h5.27a3.1,3.1,0,0,0-.75-1.95A2.33,2.33,0,0,0,433.06,805.94Zm-.54-2.09,1.8-3.67H436l-2.46,3.67ZM447,805l-3.91,9h-1.38l-3.86-9h1.53l3.06,7.45,3.1-7.45Zm1.61,0H450v9.05h-1.45Zm1.63-3.83v1.65h-1.78v-1.65ZM460.83,805v9.05h-1.44v-1.63a3,3,0,0,1-1.21,1.31,3.67,3.67,0,0,1-1.85.45,3.89,3.89,0,0,1-2.13-.58,3.84,3.84,0,0,1-1.4-1.62,5.9,5.9,0,0,1-.49-2.46,5.65,5.65,0,0,1,.51-2.47,3.85,3.85,0,0,1,1.4-1.67,3.78,3.78,0,0,1,2.11-.6,3.58,3.58,0,0,1,1.85.47,3,3,0,0,1,1.21,1.32V805Zm-4.21,8a2.49,2.49,0,0,0,2.05-.91,4.09,4.09,0,0,0,.72-2.59,4,4,0,0,0-.72-2.57,2.48,2.48,0,0,0-2.05-.9,2.52,2.52,0,0,0-2.09.94,4,4,0,0,0-.74,2.57,3.91,3.91,0,0,0,.74,2.55A2.56,2.56,0,0,0,456.62,813Z"/><path class="cls-7" d="M388,689.22a6,6,0,0,1-3.1-.79,5.28,5.28,0,0,1-2-2.27,9,9,0,0,1,0-7,5.1,5.1,0,0,1,2-2.26,6.46,6.46,0,0,1,6.23,0,5.12,5.12,0,0,1,2,2.26,8.18,8.18,0,0,1,.7,3.48,7.88,7.88,0,0,1-.72,3.49,5.3,5.3,0,0,1-2,2.29A5.94,5.94,0,0,1,388,689.22Zm0-1.26a3.84,3.84,0,0,0,3.16-1.39,7.29,7.29,0,0,0,0-7.83,3.85,3.85,0,0,0-3.16-1.37,3.91,3.91,0,0,0-3.19,1.39,5.92,5.92,0,0,0-1.13,3.89,6,6,0,0,0,1.13,3.92A3.88,3.88,0,0,0,388,688ZM403.9,680v9.05h-1.42v-1.56a3,3,0,0,1-1.2,1.26,3.52,3.52,0,0,1-1.75.43,3.13,3.13,0,0,1-2.43-.9,3.82,3.82,0,0,1-.83-2.66V680h1.46v5.58a2.71,2.71,0,0,0,.5,1.8,2,2,0,0,0,1.53.58,2.55,2.55,0,0,0,1.95-.78,2.93,2.93,0,0,0,.74-2.07V680Zm4.76,1.15v5a2,2,0,0,0,.41,1.42,1.61,1.61,0,0,0,1.17.4,3,3,0,0,0,1-.16V689a4.17,4.17,0,0,1-1.26.18,2.79,2.79,0,0,1-2-.72,3,3,0,0,1-.72-2.16v-5.15h-1.76V680h1.76V677.7l1.46-.52V680h2.59v1.15Zm8.56-1.37a3.09,3.09,0,0,1,.83.11l0,1.33a3,3,0,0,0-.95-.14,2.33,2.33,0,0,0-2,.83,3.13,3.13,0,0,0-.63,2v5.16H413v-6.51a19.51,19.51,0,0,0-.15-2.54h1.39l.14,1.67a2.77,2.77,0,0,1,1.1-1.4A3.18,3.18,0,0,1,417.22,679.8Zm5.88,9.4a4.29,4.29,0,0,1-2.25-.58,3.91,3.91,0,0,1-1.51-1.63,6.09,6.09,0,0,1,0-5,3.87,3.87,0,0,1,1.51-1.64,4.65,4.65,0,0,1,4.5,0,3.77,3.77,0,0,1,1.49,1.64,6,6,0,0,1,0,5,3.8,3.8,0,0,1-1.49,1.63A4.29,4.29,0,0,1,423.1,689.2Zm0-1.21a2.51,2.51,0,0,0,2.07-.88,4.1,4.1,0,0,0,.72-2.61,3.93,3.93,0,0,0-.74-2.55,2.77,2.77,0,0,0-4.12,0,3.93,3.93,0,0,0-.74,2.55,4.1,4.1,0,0,0,.72,2.61A2.57,2.57,0,0,0,423.1,688Zm13.19-6.82v5a1.94,1.94,0,0,0,.42,1.42,1.58,1.58,0,0,0,1.17.4,2.9,2.9,0,0,0,1-.16V689a4.08,4.08,0,0,1-1.26.18,2.81,2.81,0,0,1-2-.72,3,3,0,0,1-.72-2.16v-5.15h-1.76V680h1.76V677.7l1.46-.52V680h2.59v1.15Zm4.35-1.15h1.46v9.05h-1.46Zm1.64-3.83v1.65H440.5v-1.65Zm7.17,3.61a3.74,3.74,0,0,1,2.1.6,3.85,3.85,0,0,1,1.43,1.67,6.33,6.33,0,0,1,0,4.93,3.81,3.81,0,0,1-3.53,2.2,3.62,3.62,0,0,1-1.86-.47,3,3,0,0,1-1.2-1.33V693h-1.46v-10.4a21.58,21.58,0,0,0-.14-2.54h1.38l.15,1.75a2.86,2.86,0,0,1,1.18-1.44A3.58,3.58,0,0,1,449.45,679.8Zm-.27,8.19a2.47,2.47,0,0,0,2.05-.9,3.93,3.93,0,0,0,.74-2.55,4,4,0,0,0-.74-2.58,2.78,2.78,0,0,0-4.12,0,4,4,0,0,0-.72,2.57,4.09,4.09,0,0,0,.72,2.59A2.5,2.5,0,0,0,449.18,688Zm10.29,1.21a4.29,4.29,0,0,1-2.25-.58,3.91,3.91,0,0,1-1.51-1.63,6.09,6.09,0,0,1,0-5,3.87,3.87,0,0,1,1.51-1.64,4.65,4.65,0,0,1,4.5,0,3.77,3.77,0,0,1,1.49,1.64,6,6,0,0,1,0,5,3.8,3.8,0,0,1-1.49,1.63A4.29,4.29,0,0,1,459.47,689.2Zm0-1.21a2.51,2.51,0,0,0,2.07-.88,4.1,4.1,0,0,0,.72-2.61,3.93,3.93,0,0,0-.74-2.55,2.77,2.77,0,0,0-4.12,0,3.93,3.93,0,0,0-.74,2.55,4.1,4.1,0,0,0,.72,2.61A2.57,2.57,0,0,0,459.47,688Z"/><path class="cls-7" d="M388,619.22a6,6,0,0,1-3.1-.79,5.28,5.28,0,0,1-2-2.27,9,9,0,0,1,0-7,5.1,5.1,0,0,1,2-2.26,6.46,6.46,0,0,1,6.23,0,5.12,5.12,0,0,1,2,2.26,8.18,8.18,0,0,1,.7,3.48,7.88,7.88,0,0,1-.72,3.49,5.3,5.3,0,0,1-2,2.29A5.94,5.94,0,0,1,388,619.22Zm0-1.26a3.84,3.84,0,0,0,3.16-1.39,7.29,7.29,0,0,0,0-7.83,3.85,3.85,0,0,0-3.16-1.37,3.91,3.91,0,0,0-3.19,1.39,5.92,5.92,0,0,0-1.13,3.89,6,6,0,0,0,1.13,3.92A3.88,3.88,0,0,0,388,618Zm12.87-8.16a3.75,3.75,0,0,1,2.11.6,3.83,3.83,0,0,1,1.42,1.67,6.21,6.21,0,0,1,0,4.93,3.78,3.78,0,0,1-3.53,2.2,3.61,3.61,0,0,1-1.85-.47,3,3,0,0,1-1.21-1.33V623h-1.45v-10.4a19.51,19.51,0,0,0-.15-2.54h1.39l.14,1.75a2.88,2.88,0,0,1,1.19-1.44A3.55,3.55,0,0,1,400.84,609.8Zm-.27,8.19a2.49,2.49,0,0,0,2.06-.9,3.93,3.93,0,0,0,.73-2.55,4,4,0,0,0-.73-2.58,2.79,2.79,0,0,0-4.13,0,4,4,0,0,0-.72,2.57,4.09,4.09,0,0,0,.72,2.59A2.5,2.5,0,0,0,400.57,618Zm14.13-3.49h-6.64a3.89,3.89,0,0,0,.79,2.61,2.9,2.9,0,0,0,2.28.88,4.57,4.57,0,0,0,2.92-1.06l.49,1.06a4.23,4.23,0,0,1-1.53.89,5.86,5.86,0,0,1-1.89.32,4.41,4.41,0,0,1-3.33-1.24,4.75,4.75,0,0,1-1.21-3.44,5.35,5.35,0,0,1,.54-2.45,4,4,0,0,1,1.51-1.67,4.15,4.15,0,0,1,2.22-.6,3.53,3.53,0,0,1,2.82,1.19,4.72,4.72,0,0,1,1,3.24Zm-3.84-3.56a2.61,2.61,0,0,0-1.85.68,3.33,3.33,0,0,0-.9,1.93h5.27a3.1,3.1,0,0,0-.75-1.95A2.33,2.33,0,0,0,410.86,610.94Zm10.26-1.14a3.09,3.09,0,0,1,.83.11l0,1.33a3,3,0,0,0-1-.14,2.33,2.33,0,0,0-2,.83,3.13,3.13,0,0,0-.63,2v5.16h-1.46v-6.51a21.58,21.58,0,0,0-.14-2.54h1.38l.15,1.67a2.7,2.7,0,0,1,1.09-1.4A3.18,3.18,0,0,1,421.12,609.8Zm10.11.22v9.05h-1.44v-1.63a2.89,2.89,0,0,1-1.21,1.31,3.65,3.65,0,0,1-1.85.45,3.75,3.75,0,0,1-3.53-2.2,5.9,5.9,0,0,1-.48-2.46,5.65,5.65,0,0,1,.5-2.47,3.92,3.92,0,0,1,1.4-1.67,3.8,3.8,0,0,1,2.11-.6,3.56,3.56,0,0,1,1.85.47,3,3,0,0,1,1.21,1.32V610ZM427,618a2.47,2.47,0,0,0,2.05-.9,4.09,4.09,0,0,0,.72-2.59,4,4,0,0,0-.72-2.57A2.47,2.47,0,0,0,427,611a2.54,2.54,0,0,0-2.09.93,4,4,0,0,0-.74,2.58,3.93,3.93,0,0,0,.74,2.55A2.55,2.55,0,0,0,427,618Zm14.09,0a4.29,4.29,0,0,1-1.35.83,5.17,5.17,0,0,1-1.66.34l-.07.65a2.82,2.82,0,0,1,.43,0,1.46,1.46,0,0,1,1,.33,1.09,1.09,0,0,1,.42.93,1.28,1.28,0,0,1-.56,1.08,2.46,2.46,0,0,1-1.55.43,4.28,4.28,0,0,1-.83-.09,2.9,2.9,0,0,1-.77-.25l.23-.79a3.7,3.7,0,0,0,1.37.25,1.38,1.38,0,0,0,.74-.16.51.51,0,0,0,.27-.47.47.47,0,0,0-.16-.36.8.8,0,0,0-.47-.12,2.22,2.22,0,0,0-.83.16l-.36-.29.14-1.31a3.91,3.91,0,0,1-2.61-1.46,5.06,5.06,0,0,1-.95-3.15,5.38,5.38,0,0,1,.54-2.47,3.93,3.93,0,0,1,1.53-1.67,4.48,4.48,0,0,1,2.34-.6,4.78,4.78,0,0,1,1.76.33,3.77,3.77,0,0,1,1.43.86l-.49,1.08a5.4,5.4,0,0,0-1.33-.79A3.42,3.42,0,0,0,438,611a2.72,2.72,0,0,0-2.18.93,3.88,3.88,0,0,0-.79,2.58,3.81,3.81,0,0,0,.78,2.55,2.76,2.76,0,0,0,2.19.9,3.42,3.42,0,0,0,1.3-.25,5.4,5.4,0,0,0,1.33-.79Zm9.83-8v9.05H449.5v-1.63a3,3,0,0,1-1.21,1.31,3.7,3.7,0,0,1-1.85.45,3.86,3.86,0,0,1-2.13-.58,3.77,3.77,0,0,1-1.4-1.62,5.75,5.75,0,0,1-.49-2.46,5.65,5.65,0,0,1,.51-2.47,3.85,3.85,0,0,1,1.4-1.67,3.75,3.75,0,0,1,2.11-.6,3.61,3.61,0,0,1,1.85.47,3,3,0,0,1,1.21,1.32V610Zm-4.22,8a2.49,2.49,0,0,0,2.06-.9,4.09,4.09,0,0,0,.72-2.59,4,4,0,0,0-.72-2.57,2.49,2.49,0,0,0-2.06-.9,2.53,2.53,0,0,0-2.08.93,4,4,0,0,0-.74,2.58,3.88,3.88,0,0,0,.74,2.55A2.53,2.53,0,0,0,446.72,618ZM444,608a2.44,2.44,0,0,1,.43-1.53,1.48,1.48,0,0,1,1.19-.54,1.65,1.65,0,0,1,.72.17,5.48,5.48,0,0,1,.81.43c.25.15.45.27.6.34a1.06,1.06,0,0,0,.45.11.74.74,0,0,0,.61-.29,1.11,1.11,0,0,0,.23-.7h.81a2.33,2.33,0,0,1-.45,1.53,1.42,1.42,0,0,1-1.17.54,1.79,1.79,0,0,1-.72-.15,5.85,5.85,0,0,1-.81-.45,6.14,6.14,0,0,0-.61-.34,1,1,0,0,0-.43-.11.76.76,0,0,0-.63.29,1.1,1.1,0,0,0-.22.7Zm13.46,11.2a4.29,4.29,0,0,1-2.25-.58,3.91,3.91,0,0,1-1.51-1.63,6.09,6.09,0,0,1,0-5,3.87,3.87,0,0,1,1.51-1.64,4.65,4.65,0,0,1,4.5,0,3.77,3.77,0,0,1,1.49,1.64,6,6,0,0,1,0,5,3.8,3.8,0,0,1-1.49,1.63A4.29,4.29,0,0,1,457.5,619.2Zm0-1.21a2.51,2.51,0,0,0,2.07-.88,4.1,4.1,0,0,0,.72-2.61,3.93,3.93,0,0,0-.74-2.55,2.77,2.77,0,0,0-4.12,0,3.93,3.93,0,0,0-.74,2.55,4.1,4.1,0,0,0,.72,2.61A2.57,2.57,0,0,0,457.5,618Z"/><path class="cls-7" d="M392.88,543.26v12.81h-1.15L384,545.76v10.31H382.6V543.26h1.14l7.74,10.31V543.26ZM403.83,547v9.05h-1.44v-1.63a3,3,0,0,1-1.21,1.31,3.7,3.7,0,0,1-1.85.45,3.86,3.86,0,0,1-2.13-.58,3.77,3.77,0,0,1-1.4-1.62,5.75,5.75,0,0,1-.49-2.46,5.65,5.65,0,0,1,.51-2.47,3.85,3.85,0,0,1,1.4-1.67,3.75,3.75,0,0,1,2.11-.6,3.61,3.61,0,0,1,1.85.47,3,3,0,0,1,1.21,1.32V547Zm-4.22,8a2.49,2.49,0,0,0,2.06-.9,4.09,4.09,0,0,0,.72-2.59,4,4,0,0,0-.72-2.57,2.49,2.49,0,0,0-2.06-.9,2.53,2.53,0,0,0-2.08.93,4,4,0,0,0-.74,2.58,3.88,3.88,0,0,0,.74,2.55A2.53,2.53,0,0,0,399.61,555Zm-2.68-10a2.44,2.44,0,0,1,.43-1.53,1.48,1.48,0,0,1,1.19-.54,1.65,1.65,0,0,1,.72.17,5.48,5.48,0,0,1,.81.43c.25.15.45.27.6.34a1.06,1.06,0,0,0,.45.11.74.74,0,0,0,.61-.29,1.11,1.11,0,0,0,.23-.7h.81a2.33,2.33,0,0,1-.45,1.53,1.42,1.42,0,0,1-1.17.54,1.79,1.79,0,0,1-.72-.15,5.85,5.85,0,0,1-.81-.45,6.14,6.14,0,0,0-.61-.34,1,1,0,0,0-.43-.11.76.76,0,0,0-.63.29,1.1,1.1,0,0,0-.22.7Zm13.46,11.2a4.29,4.29,0,0,1-2.25-.58,3.91,3.91,0,0,1-1.51-1.63,6.2,6.2,0,0,1,0-5,3.87,3.87,0,0,1,1.51-1.64,4.65,4.65,0,0,1,4.5,0,3.71,3.71,0,0,1,1.49,1.64,6,6,0,0,1,0,5,3.74,3.74,0,0,1-1.49,1.63A4.29,4.29,0,0,1,410.39,556.2Zm0-1.21a2.51,2.51,0,0,0,2.07-.88,4.1,4.1,0,0,0,.72-2.61,3.93,3.93,0,0,0-.74-2.55,2.45,2.45,0,0,0-2.05-.92,2.48,2.48,0,0,0-2.07.92,3.93,3.93,0,0,0-.74,2.55,4.1,4.1,0,0,0,.72,2.61A2.57,2.57,0,0,0,410.39,555Zm18.83-3.49h-6.64a3.89,3.89,0,0,0,.79,2.61,2.9,2.9,0,0,0,2.28.88,4.57,4.57,0,0,0,2.92-1.06l.49,1.06a4.23,4.23,0,0,1-1.53.89,5.86,5.86,0,0,1-1.89.32,4.41,4.41,0,0,1-3.33-1.24,4.75,4.75,0,0,1-1.21-3.44,5.35,5.35,0,0,1,.54-2.45,4,4,0,0,1,1.51-1.67,4.15,4.15,0,0,1,2.22-.6,3.53,3.53,0,0,1,2.82,1.19,4.72,4.72,0,0,1,1,3.24Zm-3.84-3.56a2.61,2.61,0,0,0-1.85.68,3.33,3.33,0,0,0-.9,1.93h5.27a3.1,3.1,0,0,0-.75-1.95A2.33,2.33,0,0,0,425.38,547.94Zm13.94,8.13h-1.75l-2.86-3.56-2.83,3.56H430.1l3.76-4.66L430.32,547h1.76l2.63,3.33,2.63-3.33h1.78l-3.53,4.39Zm1.62-9.05h1.46v9.05h-1.46Zm1.64-3.83v1.65H440.8v-1.65Zm5.71,13a5.31,5.31,0,0,1-3.62-1.17l.49-1.08a5.18,5.18,0,0,0,1.49.83,5.31,5.31,0,0,0,1.69.25,2.83,2.83,0,0,0,1.55-.34,1.16,1.16,0,0,0,.54-1,1.09,1.09,0,0,0-.36-.86,2.55,2.55,0,0,0-1.19-.51l-1.53-.36a3.32,3.32,0,0,1-1.76-.9,2.14,2.14,0,0,1-.61-1.54,2.33,2.33,0,0,1,.95-1.93,4,4,0,0,1,2.52-.76,5.32,5.32,0,0,1,1.8.31,3.72,3.72,0,0,1,1.42.88l-.48,1.06a4.26,4.26,0,0,0-2.74-1.06,2.61,2.61,0,0,0-1.51.38,1.17,1.17,0,0,0-.52,1,1.22,1.22,0,0,0,.32.88,2.47,2.47,0,0,0,1.08.5l1.53.38a3.72,3.72,0,0,1,1.87.9,2.09,2.09,0,0,1,.62,1.57,2.2,2.2,0,0,1-1,1.87A4.26,4.26,0,0,1,448.29,556.2Zm7.72-8v5a1.94,1.94,0,0,0,.42,1.42,1.58,1.58,0,0,0,1.17.4,2.9,2.9,0,0,0,1-.16V556a4.08,4.08,0,0,1-1.26.18,2.78,2.78,0,0,1-2-.72,3,3,0,0,1-.72-2.16v-5.15h-1.77V547h1.77V544.7l1.45-.52V547h2.6v1.15Zm11.93,3.33H461.3a4,4,0,0,0,.79,2.61,2.91,2.91,0,0,0,2.29.88,4.54,4.54,0,0,0,2.91-1.06l.49,1.06a4.23,4.23,0,0,1-1.53.89,5.77,5.77,0,0,1-1.89.32A4.41,4.41,0,0,1,461,555a4.79,4.79,0,0,1-1.21-3.44,5.35,5.35,0,0,1,.54-2.45,4,4,0,0,1,1.52-1.67,4.09,4.09,0,0,1,2.21-.6,3.56,3.56,0,0,1,2.83,1.19,4.77,4.77,0,0,1,1,3.24Zm-3.83-3.56a2.61,2.61,0,0,0-1.86.68,3.45,3.45,0,0,0-.9,1.93h5.28a3.11,3.11,0,0,0-.76-1.95A2.32,2.32,0,0,0,464.11,547.94Z"/><path class="cls-7" d="M382.6,739.26h1.48v12.81H382.6Zm9,3.54q3.26,0,3.26,3.59v5.68h-1.46v-5.61a2.81,2.81,0,0,0-.5-1.84,2,2,0,0,0-1.59-.59,2.69,2.69,0,0,0-2,.77,2.84,2.84,0,0,0-.76,2.09v5.18h-1.46v-6.51a19.62,19.62,0,0,0-.14-2.54h1.39l.14,1.62a3,3,0,0,1,1.24-1.35A3.69,3.69,0,0,1,391.58,742.8Zm9.07,9.4A5.31,5.31,0,0,1,397,751l.49-1.08a5.18,5.18,0,0,0,1.49.83,5.33,5.33,0,0,0,1.7.25,2.79,2.79,0,0,0,1.54-.34,1.16,1.16,0,0,0,.54-1,1.09,1.09,0,0,0-.36-.86,2.55,2.55,0,0,0-1.18-.51l-1.53-.36A3.32,3.32,0,0,1,398,747a2.14,2.14,0,0,1-.61-1.54,2.33,2.33,0,0,1,1-1.93,4,4,0,0,1,2.52-.76,5.32,5.32,0,0,1,1.8.31A3.84,3.84,0,0,1,404,744l-.49,1.06a4.24,4.24,0,0,0-2.74-1.06,2.63,2.63,0,0,0-1.51.38,1.17,1.17,0,0,0-.52,1,1.22,1.22,0,0,0,.32.88,2.36,2.36,0,0,0,1.08.5l1.53.38a3.8,3.8,0,0,1,1.88.9,2.12,2.12,0,0,1,.61,1.57,2.2,2.2,0,0,1-1,1.87A4.26,4.26,0,0,1,400.65,752.2Zm7.73-8v5a2,2,0,0,0,.41,1.42,1.61,1.61,0,0,0,1.17.4,2.86,2.86,0,0,0,1-.16V752a4.08,4.08,0,0,1-1.26.18,2.78,2.78,0,0,1-2-.72,3,3,0,0,1-.72-2.16v-5.15h-1.76V743h1.76V740.7l1.46-.52V743H411v1.15ZM420.7,743v9.05h-1.44v-1.63a2.87,2.87,0,0,1-1.2,1.31,3.71,3.71,0,0,1-1.86.45,3.75,3.75,0,0,1-3.53-2.2,5.9,5.9,0,0,1-.48-2.46,5.79,5.79,0,0,1,.5-2.47,3.94,3.94,0,0,1,1.41-1.67,3.74,3.74,0,0,1,2.1-.6,3.62,3.62,0,0,1,1.86.47,3,3,0,0,1,1.2,1.32V743Zm-4.21,8a2.48,2.48,0,0,0,2.05-.91,4.09,4.09,0,0,0,.72-2.59,4,4,0,0,0-.72-2.57,2.47,2.47,0,0,0-2.05-.9,2.53,2.53,0,0,0-2.09.94,4,4,0,0,0-.74,2.57,3.91,3.91,0,0,0,.74,2.55A2.56,2.56,0,0,0,416.49,751Zm7-12.17H425v13.24h-1.46ZM435.78,743v9.05h-1.44v-1.63a2.87,2.87,0,0,1-1.2,1.31,3.71,3.71,0,0,1-1.86.45,3.85,3.85,0,0,1-2.12-.58,3.77,3.77,0,0,1-1.4-1.62,6.39,6.39,0,0,1,0-4.93,3.94,3.94,0,0,1,1.41-1.67,3.74,3.74,0,0,1,2.1-.6,3.62,3.62,0,0,1,1.86.47,3,3,0,0,1,1.2,1.32V743Zm-4.21,8a2.48,2.48,0,0,0,2.05-.91,4.09,4.09,0,0,0,.72-2.59,4,4,0,0,0-.72-2.57,2.47,2.47,0,0,0-2.05-.9,2.53,2.53,0,0,0-2.09.94,4,4,0,0,0-.73,2.57,3.91,3.91,0,0,0,.73,2.55A2.57,2.57,0,0,0,431.57,751Zm14.09,0a4.29,4.29,0,0,1-1.35.83,5.17,5.17,0,0,1-1.66.34l-.07.65a2.93,2.93,0,0,1,.43,0,1.44,1.44,0,0,1,1,.33,1.09,1.09,0,0,1,.42.93,1.28,1.28,0,0,1-.56,1.08,2.46,2.46,0,0,1-1.55.43,5.15,5.15,0,0,1-.83-.08,3.47,3.47,0,0,1-.77-.26l.23-.79a3.74,3.74,0,0,0,1.37.25,1.36,1.36,0,0,0,.74-.16.51.51,0,0,0,.27-.47.44.44,0,0,0-.16-.36.8.8,0,0,0-.47-.12,2.22,2.22,0,0,0-.83.16l-.36-.29.15-1.31a3.87,3.87,0,0,1-2.61-1.46,5,5,0,0,1-1-3.15,5.38,5.38,0,0,1,.54-2.47,3.93,3.93,0,0,1,1.53-1.67,4.48,4.48,0,0,1,2.34-.6,4.87,4.87,0,0,1,1.77.33,3.73,3.73,0,0,1,1.42.86l-.49,1.08a5.22,5.22,0,0,0-1.33-.79,3.42,3.42,0,0,0-1.3-.25,2.66,2.66,0,0,0-2.17.94,4.54,4.54,0,0,0,0,5.12,2.78,2.78,0,0,0,2.19.91,3.43,3.43,0,0,0,1.3-.26,5.22,5.22,0,0,0,1.33-.79Zm9.83-8v9.05h-1.44v-1.63a3,3,0,0,1-1.21,1.31,3.67,3.67,0,0,1-1.85.45,3.89,3.89,0,0,1-2.13-.58,3.84,3.84,0,0,1-1.4-1.62,5.9,5.9,0,0,1-.49-2.46,5.65,5.65,0,0,1,.51-2.47,3.85,3.85,0,0,1,1.4-1.67,3.78,3.78,0,0,1,2.11-.6,3.58,3.58,0,0,1,1.85.47,3,3,0,0,1,1.21,1.32V743Zm-4.21,8a2.49,2.49,0,0,0,2.05-.91,4.09,4.09,0,0,0,.72-2.59,4,4,0,0,0-.72-2.57,2.48,2.48,0,0,0-2.05-.9,2.52,2.52,0,0,0-2.09.94,4,4,0,0,0-.74,2.57,3.91,3.91,0,0,0,.74,2.55A2.56,2.56,0,0,0,451.28,751Zm-2.69-10a2.38,2.38,0,0,1,.44-1.53,1.46,1.46,0,0,1,1.18-.54,1.59,1.59,0,0,1,.72.17,5.48,5.48,0,0,1,.81.43c.26.15.45.27.6.34a1.06,1.06,0,0,0,.45.11.72.72,0,0,0,.61-.29,1.06,1.06,0,0,0,.23-.7h.81a2.33,2.33,0,0,1-.45,1.53,1.4,1.4,0,0,1-1.17.54,1.79,1.79,0,0,1-.72-.15,8.94,8.94,0,0,1-.81-.44,4.88,4.88,0,0,0-.61-.35,1,1,0,0,0-.43-.11.79.79,0,0,0-.63.29,1.19,1.19,0,0,0-.22.7Zm13.46,11.2a4.29,4.29,0,0,1-2.25-.58,3.91,3.91,0,0,1-1.51-1.63,6.2,6.2,0,0,1,0-5,3.87,3.87,0,0,1,1.51-1.64,4.65,4.65,0,0,1,4.5,0,3.79,3.79,0,0,1,1.5,1.64,6,6,0,0,1,0,5,3.82,3.82,0,0,1-1.5,1.63A4.29,4.29,0,0,1,462.05,752.2Zm0-1.2a2.52,2.52,0,0,0,2.07-.89,4.1,4.1,0,0,0,.72-2.61,3.88,3.88,0,0,0-.74-2.55,2.45,2.45,0,0,0-2.05-.92A2.48,2.48,0,0,0,460,745a3.93,3.93,0,0,0-.74,2.55,4.1,4.1,0,0,0,.72,2.61A2.59,2.59,0,0,0,462.05,751Z"/></svg>