<svg id="Layer_1" data-name="Layer 1" xmlns="http://www.w3.org/2000/svg" viewBox="0 0 248.43 238.98"><defs><style>.cls-1{fill:#fff;}.cls-1,.cls-2,.cls-3,.cls-4,.cls-5,.cls-6{fill-rule:evenodd;}.cls-3{fill:#636262;}.cls-4{fill:#ffc91f;}.cls-5{fill:#80650f;}.cls-6{fill:#997614;}</style></defs><path class="cls-1" d="M105.3,125.5l14.78-2.92a5.52,5.52,0,0,0,4.26-6.44l-10.4-54.82a5.4,5.4,0,0,0-6.24-4.39h0l-14.77,3a5.52,5.52,0,0,0-4.25,6.45L99,121.2a5.39,5.39,0,0,0,6.29,4.31Z"/><path class="cls-1" d="M113.87,146.87l6-1.2a2.24,2.24,0,0,0,1.74-2.63l-11.53-61.2a2.22,2.22,0,0,0-2.57-1.78h0l-6,1.2a2.25,2.25,0,0,0-1.81,2.61s0,0,0,.07l11.58,61.2A2.19,2.19,0,0,0,113.87,146.87Z"/><path class="cls-1" d="M112.52,147.75l9-1.77A1.66,1.66,0,0,0,122.8,144l-.68-3.56a1.6,1.6,0,0,0-1.85-1.3h0l-9,1.77a1.67,1.67,0,0,0-1.28,1.94l.68,3.56A1.61,1.61,0,0,0,112.52,147.75Z"/><path class="cls-1" d="M117,146.86l4.48-.88a1.67,1.67,0,0,0,1.28-1.94l-.68-3.56a1.6,1.6,0,0,0-1.85-1.3h0l-4.48.89Z"/><path class="cls-1" d="M143.6,63.1l13.69,6.35A5.58,5.58,0,0,1,160,76.73l-22.55,50.84a5.33,5.33,0,0,1-7,2.79l-.1-.05-13.7-6.37a5.56,5.56,0,0,1-2.67-7.28l22.54-50.83a5.34,5.34,0,0,1,7-2.77Z"/><path class="cls-1" d="M156.79,44.35l5.59,2.59a2.29,2.29,0,0,1,1.1,3L138.3,106.71a2.18,2.18,0,0,1-2.87,1.14l0,0-5.6-2.6a2.27,2.27,0,0,1-1.09-3l25.18-56.77a2.18,2.18,0,0,1,2.87-1.12Z"/><path class="cls-1" d="M155.67,43.17,164,47a1.67,1.67,0,0,1,.8,2.18l-1.46,3.31a1.63,1.63,0,0,1-2.14.83h0l-8.31-3.86a1.66,1.66,0,0,1-.8-2.19l1.46-3.3a1.61,1.61,0,0,1,2.12-.82Z"/><path class="cls-1" d="M82.94,105.87,95.4,97.26a5.59,5.59,0,0,0,1.45-7.63l-18-27.28L80.78,75l-9.91-6,1,6.29L66.48,72l1.77,11.66L57.47,77.11l18,27.28A5.31,5.31,0,0,0,82.81,106Z"/><path class="cls-1" d="M99,122.09l5.09-3.52a2.28,2.28,0,0,0,.59-3.11L76.15,72.21,70.86,69l1,6.29L66.48,72l.94,6.22L96,121.48a2.14,2.14,0,0,0,3,.65Z"/><path class="cls-1" d="M98.08,123.44l7.57-5.22a1.69,1.69,0,0,0,.43-2.28l-2-3a1.59,1.59,0,0,0-2.19-.47l0,0-7.57,5.23a1.68,1.68,0,0,0-.44,2.29l2,3a1.57,1.57,0,0,0,2.18.46Z"/><path class="cls-1" d="M101.89,120.83l3.78-2.61a1.68,1.68,0,0,0,.41-2.28l-2-3a1.59,1.59,0,0,0-2.19-.47l0,0-3.77,2.59Z"/><path class="cls-1" d="M74.57,98.52h77.8c5.2,0,10.24,4.41,9.46,9.67l-14.11,94.69c-.78,5.26-4.25,9.67-9.45,9.67H88.68c-5.2,0-8.67-4.41-9.46-9.67L65.08,108.19C64.33,102.94,69.37,98.52,74.57,98.52Z"/><path class="cls-1" d="M114.77,77.67l-2.39,15.19a5.49,5.49,0,0,0,4.45,6.3l31.77,5.23-10.36-7.24,11.08-3.21-5.14-3.59,6-1.76-9.54-6.65,12.05-3.55-31.76-5.22a5.39,5.39,0,0,0-6.16,4.5Z"/><path class="cls-1" d="M92.21,78.56l-1,6.21A2.23,2.23,0,0,0,93,87.34h0l50.36,8.29,5.88-1.69-5.14-3.59,6-1.76L145.08,85,94.72,76.7A2.22,2.22,0,0,0,92.21,78.56Z"/><path class="cls-1" d="M112.74,90.58l-.36,2.28a5.49,5.49,0,0,0,4.45,6.3l31.77,5.23-10.36-7.24,11.08-3.21-5.13-3.58-30.62-5L91.72,81.67l-.48,3.1a2.22,2.22,0,0,0,1.83,2.57h0Z"/><path class="cls-1" d="M91.86,76.94l-1.45,9.22a1.64,1.64,0,0,0,1.34,1.89l3.5.58a1.62,1.62,0,0,0,1.83-1.35l1.46-9.22a1.66,1.66,0,0,0-1.34-1.89l-3.5-.58A1.64,1.64,0,0,0,91.86,76.94Z"/><path class="cls-1" d="M61.6,93.53H165.35a3.79,3.79,0,0,1,3.73,3.81v4.23a3.79,3.79,0,0,1-3.73,3.82H61.6a3.78,3.78,0,0,1-3.73-3.82V97.34A3.78,3.78,0,0,1,61.6,93.53Z"/><path class="cls-1" d="M113.47,93.53h53.16c1.35,0,2.45,1.71,2.45,3.81v4.23c0,2.1-1.1,3.82-2.45,3.82H113.47Z"/><path class="cls-1" d="M115.36,131h1.58v-6l12.2,10.2-12.2,10.19v-7.24c-.52,0-1-.06-1.58-.06a19.77,19.77,0,0,0-14.13,6,20.63,20.63,0,0,0-5.47,10.47l-6.35-3.32a27.76,27.76,0,0,1,6.92-12.15,26.55,26.55,0,0,1,19-8.07Zm25.4,51.44-5.38-5.49a28,28,0,0,0-1-37.87,28.48,28.48,0,0,0-2.65-2.38l-5.56,4.65a20.75,20.75,0,0,1,5.67,28.78,20.13,20.13,0,0,1-1.37,1.82l-3.8-3.89-1.58,16ZM84.67,170.49l4.23-15.55,14,7.34-6.46,2.9A20.32,20.32,0,0,0,101.2,173a19.65,19.65,0,0,0,14.13,6,19.25,19.25,0,0,0,7.26-1.39l-.76,7.67A26.54,26.54,0,0,1,96.3,178a27.54,27.54,0,0,1-6.22-9.93Z"/><path class="cls-1" d="M115.36,131h1.58v-6l12.2,10.2-12.2,10.19v-7.24c-.52,0-1-.06-1.58-.06a13.65,13.65,0,0,0-1.89.09v-7.11c.63,0,1.26-.07,1.89-.07Zm25.4,51.44-5.38-5.49a28,28,0,0,0-1-37.87,28.48,28.48,0,0,0-2.65-2.38l-5.56,4.65a20.75,20.75,0,0,1,5.67,28.78,20.13,20.13,0,0,1-1.37,1.82l-3.8-3.89-1.58,16Zm-27.29-3.55q.93.09,1.89.09a19.25,19.25,0,0,0,7.26-1.39l-.76,7.67a26.42,26.42,0,0,1-6.5.8q-.94,0-1.89-.06Z"/><path class="cls-2" d="M112.22,129.56,127,126.64a5.51,5.51,0,0,0,4.26-6.44l-10.4-54.82A5.39,5.39,0,0,0,114.63,61h-.06L99.8,64a5.52,5.52,0,0,0-4.25,6.45l10.37,54.81a5.39,5.39,0,0,0,6.29,4.3Z"/><path class="cls-2" d="M120.79,150.93l6-1.2a2.24,2.24,0,0,0,1.74-2.63L117,85.9a2.21,2.21,0,0,0-2.57-1.78h0l-6,1.2a2.24,2.24,0,0,0-1.81,2.6s0,0,0,.08l11.58,61.2A2.21,2.21,0,0,0,120.79,150.93Z"/><path class="cls-2" d="M119.44,151.81l9-1.77a1.66,1.66,0,0,0,1.28-1.94l-.68-3.56a1.61,1.61,0,0,0-1.85-1.31h0l-9,1.77a1.66,1.66,0,0,0-1.28,1.94l.68,3.56A1.61,1.61,0,0,0,119.44,151.81Z"/><path class="cls-2" d="M123.92,150.92l4.48-.88a1.66,1.66,0,0,0,1.28-1.94l-.68-3.56a1.61,1.61,0,0,0-1.85-1.31h0l-4.48.89Z"/><path class="cls-3" d="M150.52,67.16l13.69,6.35a5.57,5.57,0,0,1,2.68,7.28l-22.55,50.84a5.33,5.33,0,0,1-7,2.79l-.11,0L123.53,128a5.57,5.57,0,0,1-2.67-7.28L143.4,69.89a5.33,5.33,0,0,1,7-2.77Z"/><path class="cls-3" d="M163.71,48.41,169.3,51a2.29,2.29,0,0,1,1.1,3l-25.18,56.77a2.18,2.18,0,0,1-2.87,1.13h0l-5.6-2.6a2.28,2.28,0,0,1-1.09-3l25.18-56.77a2.17,2.17,0,0,1,2.87-1.12Z"/><path class="cls-4" d="M162.59,47.23l8.32,3.86a1.66,1.66,0,0,1,.8,2.18l-1.46,3.31a1.62,1.62,0,0,1-2.14.82h0l-8.31-3.86a1.67,1.67,0,0,1-.8-2.19l1.46-3.3a1.61,1.61,0,0,1,2.12-.82Z"/><path class="cls-3" d="M89.86,109.93l12.46-8.61a5.59,5.59,0,0,0,1.45-7.63l-18-27.28L87.7,79.09l-9.91-6,1,6.29-5.39-3.3,1.77,11.66L64.39,81.17l18,27.28A5.3,5.3,0,0,0,89.73,110,.57.57,0,0,0,89.86,109.93Z"/><path class="cls-3" d="M105.93,126.15l5.09-3.52a2.26,2.26,0,0,0,.59-3.11L83.07,76.27l-5.29-3.22,1,6.29L73.4,76.08l.94,6.22,28.55,43.24a2.17,2.17,0,0,0,3,.65A.1.1,0,0,1,105.93,126.15Z"/><path class="cls-3" d="M105,127.5l7.57-5.22A1.68,1.68,0,0,0,113,120l-2-3a1.58,1.58,0,0,0-2.18-.47l0,0-7.57,5.23a1.68,1.68,0,0,0-.44,2.29l2,3a1.59,1.59,0,0,0,2.19.46Z"/><path class="cls-3" d="M108.81,124.89l3.78-2.61A1.69,1.69,0,0,0,113,120l-2-3a1.58,1.58,0,0,0-2.18-.47l0,0L105,119.15Z"/><path class="cls-5" d="M81.49,102.58h77.8c5.2,0,10.24,4.41,9.46,9.67l-14.11,94.69c-.78,5.26-4.25,9.67-9.45,9.67H95.6c-5.2,0-8.67-4.41-9.46-9.67L72,112.25C71.25,107,76.29,102.58,81.49,102.58Z"/><path class="cls-6" d="M121.69,81.73,119.3,96.92a5.51,5.51,0,0,0,4.45,6.3l31.77,5.23-10.36-7.24L156.24,98l-5.14-3.59,6-1.76L147.56,86l12.05-3.55-31.76-5.22a5.39,5.39,0,0,0-6.16,4.49Z"/><path class="cls-6" d="M99.13,82.62l-1,6.21A2.22,2.22,0,0,0,100,91.39h0l50.36,8.29L156.24,98l-5.14-3.59,6-1.76L152,89.06l-50.36-8.3A2.2,2.2,0,0,0,99.13,82.62Z"/><path class="cls-6" d="M119.66,94.64l-.36,2.28a5.51,5.51,0,0,0,4.45,6.3l31.77,5.23-10.36-7.24L156.24,98l-5.13-3.58-30.62-5L98.64,85.73l-.48,3.1A2.24,2.24,0,0,0,100,91.4h0Z"/><path class="cls-4" d="M98.78,81l-1.45,9.22a1.65,1.65,0,0,0,1.34,1.89l3.5.58A1.62,1.62,0,0,0,104,91.34l1.46-9.22a1.65,1.65,0,0,0-1.34-1.89l-3.5-.58A1.62,1.62,0,0,0,98.78,81Z"/><path class="cls-5" d="M68.52,97.59H172.27A3.78,3.78,0,0,1,176,101.4v4.23a3.79,3.79,0,0,1-3.73,3.82H68.52a3.79,3.79,0,0,1-3.73-3.82V101.4A3.78,3.78,0,0,1,68.52,97.59Z"/><path class="cls-5" d="M120.39,97.59h53.16c1.35,0,2.45,1.71,2.45,3.81v4.23c0,2.1-1.1,3.82-2.45,3.82H120.39Z"/><path class="cls-4" d="M122.28,135.05h1.58v-6l12.2,10.2-12.2,10.19V142.2c-.52,0-1-.06-1.58-.06a19.71,19.71,0,0,0-14.13,6,20.55,20.55,0,0,0-5.47,10.47l-6.35-3.32a27.64,27.64,0,0,1,6.92-12.15,26.59,26.59,0,0,1,19-8.07Zm25.4,51.44L142.3,181a28,28,0,0,0-1-37.87,27.12,27.12,0,0,0-2.65-2.38l-5.56,4.65a20.74,20.74,0,0,1,5.67,28.78,20.13,20.13,0,0,1-1.37,1.82l-3.8-3.89-1.58,16ZM91.59,174.55,95.82,159l14,7.34-6.46,2.9a20.44,20.44,0,0,0,4.76,7.78,19.64,19.64,0,0,0,21.39,4.61l-.76,7.67A26.57,26.57,0,0,1,103.22,182,27.62,27.62,0,0,1,97,172.11Z"/><path class="cls-4" d="M122.28,135.05h1.58v-6l12.2,10.2-12.2,10.19V142.2c-.52,0-1-.06-1.58-.06a13.65,13.65,0,0,0-1.89.09v-7.11c.63,0,1.26-.07,1.89-.07Zm25.4,51.44L142.3,181a28,28,0,0,0-1-37.87,27.12,27.12,0,0,0-2.65-2.38l-5.56,4.65a20.74,20.74,0,0,1,5.67,28.78,20.13,20.13,0,0,1-1.37,1.82l-3.8-3.89-1.58,16Zm-27.29-3.55q.94.09,1.89.09a19.6,19.6,0,0,0,7.26-1.39l-.76,7.67a26.9,26.9,0,0,1-6.5.8q-.94,0-1.89-.06Z"/></svg>