<svg id="Layer_1" data-name="Layer 1" xmlns="http://www.w3.org/2000/svg" viewBox="0 0 248.43 231.06"><defs><style>.cls-1,.cls-2{fill:#fff;}.cls-1,.cls-3,.cls-4,.cls-5,.cls-6{fill-rule:evenodd;}.cls-3{fill:#80650f;}.cls-4,.cls-7{fill:#ffc91f;}.cls-6,.cls-8{fill:#997614;}</style></defs><path class="cls-1" d="M144.24,96.73c15.2-12.8,37.42-4.83,43.11,16.62,15.6-8.39,33.87,17,32.61,37.49H11.36c1.17-26,15.2-39.21,32.62-37.49C49.67,91.9,71.89,83.93,87.09,96.73,99.71,71.48,131.61,71.48,144.24,96.73Z"/><path class="cls-1" d="M84.34,88.65C73.12,72,92.2,76,90.34,50.3,98.3,74.49,80.38,73.65,84.34,88.65Z"/><path class="cls-1" d="M188.68,103.73c4.62-21.94-17.79-11.46-13.58-41.49C177.79,88.75,199.7,78.25,188.68,103.73Z"/><path class="cls-1" d="M12.27,81.42c12-3.3,16.7-2,22.67,4.44C39.43,78.17,40.78,73,61.88,67,48.1,75.78,41.67,81.39,37.81,97.48,29.49,87.75,23.41,83.22,12.27,81.42Z"/><path class="cls-1" d="M167.35,58.7c-10.8-3-15-1.85-20.36,4-4-6.9-5.25-11.56-24.2-17,12.38,7.93,18.15,13,21.62,27.42C151.89,64.39,157.35,60.31,167.35,58.7Z"/><path class="cls-1" d="M143.72,94.87l7,4.23a3,3,0,0,1,1,4l-15.33,25.55a3,3,0,0,1-4,1l-7-4.24a2.94,2.94,0,0,1-1-4l15.37-25.55A2.94,2.94,0,0,1,143.72,94.87Z"/><path class="cls-1" d="M152,85.76l2.86,1.73a1.19,1.19,0,0,1,.41,1.64l-17.14,28.52a1.19,1.19,0,0,1-1.64.41h0l-2.87-1.73a1.19,1.19,0,0,1-.41-1.63h0l17.16-28.53A1.2,1.2,0,0,1,152,85.76Z"/><rect class="cls-2" x="150.84" y="84.55" width="3.7" height="6.75" rx="0.88" transform="translate(-1.36 173.44) rotate(-58.97)"/><path class="cls-1" d="M79.59,118.45l4-7.15a2.93,2.93,0,0,1,4-1.12l26,14.66a3,3,0,0,1,1.12,4l-4,7.16a2.92,2.92,0,0,1-4,1.11h0l-26-14.66a2.93,2.93,0,0,1-1.12-4Z"/><path class="cls-1" d="M70.25,110.39l1.64-2.92a1.2,1.2,0,0,1,1.63-.46l29,16.37A1.2,1.2,0,0,1,103,125l-1.65,2.92a1.2,1.2,0,0,1-1.63.45L70.69,112a1.19,1.19,0,0,1-.44-1.63Z"/><rect class="cls-2" x="69.04" y="107.82" width="6.75" height="3.7" rx="0.88" transform="translate(-58.69 118.83) rotate(-60.56)"/><path class="cls-1" d="M170.13,114.89c11.34-7.34,27.92-2.77,32.16,9.55,11.6-4.79,25.27,14.64,24.33,26.41H71c-.94-11.78,12.69-31.23,24.33-26.41,4.24-12.32,20.81-16.89,32.15-9.55C136.89,100.4,160.72,100.4,170.13,114.89Z"/><path class="cls-2" d="M42.26,136.76H72.08A2.92,2.92,0,0,1,75,139.65v8.22a2.94,2.94,0,0,1-2.94,2.94H42.25a2.94,2.94,0,0,1-2.94-2.94h0v-8.22A2.94,2.94,0,0,1,42.26,136.76Z"/><rect class="cls-2" x="27.23" y="140.92" width="35.69" height="5.75" rx="1.2"/><rect class="cls-2" x="26.9" y="140.42" width="3.7" height="6.75" rx="0.88"/><path class="cls-3" d="M149.35,104.08c15.2-12.8,37.42-4.83,43.11,16.62,15.6-8.39,33.87,17,32.61,37.49H16.47c1.17-26,15.2-39.21,32.62-37.49C54.78,99.25,77,91.28,92.2,104.08,104.82,78.83,136.72,78.83,149.35,104.08Z"/><path class="cls-4" d="M89.45,96c-11.22-16.63,7.86-12.66,6-38.35C103.41,81.84,85.49,81,89.45,96Z"/><path class="cls-4" d="M193.79,111.08c4.62-21.94-17.79-11.46-13.58-41.49C182.9,96.1,204.81,85.6,193.79,111.08Z"/><path class="cls-5" d="M17.38,88.77c12-3.3,16.7-2,22.67,4.44,4.49-7.69,5.84-12.87,26.94-18.9-13.78,8.82-20.21,14.43-24.07,30.52C34.6,95.1,28.52,90.57,17.38,88.77Z"/><path class="cls-5" d="M172.46,66.05c-10.8-3-15-1.85-20.36,4-4-6.9-5.25-11.56-24.2-17,12.38,7.93,18.15,13,21.62,27.42C157,71.74,162.46,67.66,172.46,66.05Z"/><path class="cls-6" d="M148.83,102.22l7,4.23a3,3,0,0,1,1,4L141.5,136a3,3,0,0,1-4,1l-7-4.24a2.94,2.94,0,0,1-1-4l15.37-25.55A2.94,2.94,0,0,1,148.83,102.22Z"/><path class="cls-6" d="M157.14,93.11,160,94.84a1.2,1.2,0,0,1,.41,1.64L143.27,125a1.2,1.2,0,0,1-1.65.41h0l-2.87-1.73a1.19,1.19,0,0,1-.42-1.63h0L155.5,93.51A1.2,1.2,0,0,1,157.14,93.11Z"/><rect class="cls-7" x="155.94" y="91.9" width="3.7" height="6.75" rx="0.88" transform="translate(-5.19 181.38) rotate(-58.97)"/><path class="cls-6" d="M84.7,125.8l4-7.15a3,3,0,0,1,4-1.12l26,14.66a3,3,0,0,1,1.12,4l-4,7.16a2.93,2.93,0,0,1-4,1.12h0l-26-14.66a2.94,2.94,0,0,1-1.13-4Z"/><path class="cls-6" d="M75.36,117.74,77,114.82a1.2,1.2,0,0,1,1.63-.46l29,16.37a1.22,1.22,0,0,1,.45,1.64l-1.65,2.92a1.21,1.21,0,0,1-1.63.45l-29-16.37a1.18,1.18,0,0,1-.44-1.62Z"/><rect class="cls-7" x="74.14" y="115.18" width="6.75" height="3.7" rx="0.88" transform="translate(-62.5 127.01) rotate(-60.56)"/><path class="cls-4" d="M175.24,122.24c11.34-7.34,27.92-2.77,32.16,9.55,11.6-4.79,25.27,14.64,24.33,26.41H76.13c-.94-11.78,12.69-31.23,24.33-26.41,4.24-12.32,20.81-16.89,32.15-9.55C142,107.75,165.83,107.75,175.24,122.24Z"/><path class="cls-8" d="M47.37,144.11H77.19A2.93,2.93,0,0,1,80.12,147v8.22a2.94,2.94,0,0,1-2.94,2.94H47.36a2.94,2.94,0,0,1-2.94-2.94h0V147A2.94,2.94,0,0,1,47.37,144.11Z"/><rect class="cls-8" x="32.34" y="148.27" width="35.69" height="5.75" rx="1.2"/><rect class="cls-7" x="32.01" y="147.77" width="3.7" height="6.75" rx="0.88"/></svg>