<svg id="Layer_1" data-name="Layer 1" xmlns="http://www.w3.org/2000/svg" viewBox="0 0 242.81 238.98"><defs><style>.cls-1,.cls-2{fill:#fff;}.cls-1,.cls-3,.cls-4,.cls-5,.cls-6{fill-rule:evenodd;}.cls-3{fill:#997614;}.cls-4{fill:#80650f;}.cls-5{fill:#ffc91f;}.cls-7{fill:#636262;}</style></defs><path class="cls-1" d="M111,59.46l11.09-9.68c.73-1.37,19.16-1.85,13.93,2.62l-5.79,5c-2.39,2-2.28,1.66-3,4.77l-2.56,11.52c-.37,1.66-8,7.21-9.73,7.2a3.27,3.27,0,0,1-3.22-3.12Z"/><path class="cls-1" d="M108.84,75.57l-.29-18.81c-.08-4.81,7.25-4.92,7.32-.11l.3,18.8a3.66,3.66,0,0,1-3.61,3.72h0A3.69,3.69,0,0,1,108.84,75.57Z"/><path class="cls-1" d="M109.47,54.22,121,37.7l18.6-7.55c7-2.83,35.64-12.3,43-14.15l-.06,28.85-18.86.54c-.25,0-2.77,6.9-5,8.39l-17,11.5a.59.59,0,0,1-.45.09L125,78.58a4.54,4.54,0,0,1-6.17,0h0a4.37,4.37,0,0,1,0-6.17c5.34-5.35,11-10.66,16-16.27l.67-3.09c.58-2.68.5-3.25-2-3.58l-3.19-.41c-2.88-.38-2.15-.43-4.29,1.61l-10.54,10-6-1.89C107.77,58.3,108.45,55.68,109.47,54.22Z"/><path class="cls-1" d="M83.2,65.3l40.33.24c10.17,24.36,5.18,40.81,0,57.16l-40.33-.24C92.37,103.14,93.83,84,83.2,65.3Z"/><path class="cls-1" d="M158.65,53.78l-17,11.5a.59.59,0,0,1-.45.09L125,78.58a4.54,4.54,0,0,1-6.17,0h0a4.37,4.37,0,0,1,0-6.17c5.34-5.35,11-10.66,16-16.27l.67-3.09Z"/><path class="cls-1" d="M148.55,106.3h13.37a9.23,9.23,0,0,1,9.22,9.21v11.55a9.23,9.23,0,0,1-9.22,9.21H148.55a9.25,9.25,0,0,1-9.22-9.21V115.47a9.25,9.25,0,0,1,9.22-9.21Zm13.37,3.83H148.55a5.4,5.4,0,0,0-5.38,5.38v11.55a5.4,5.4,0,0,0,5.38,5.38h13.37a5.39,5.39,0,0,0,5.38-5.38V115.47a5.39,5.39,0,0,0-5.38-5.38Z"/><path class="cls-1" d="M57.61,106.3H71a9.22,9.22,0,0,1,9.21,9.21v11.55A9.22,9.22,0,0,1,71,136.27H57.61a9.23,9.23,0,0,1-9.21-9.21V115.47A9.23,9.23,0,0,1,57.61,106.3ZM71,110.13H57.61a5.4,5.4,0,0,0-5.38,5.38v11.55a5.4,5.4,0,0,0,5.38,5.38H71a5.39,5.39,0,0,0,5.38-5.38V115.47A5.39,5.39,0,0,0,71,110.09Z"/><path class="cls-1" d="M69.43,96.17H150c5.38,0,10.6,4.47,9.79,9.79l-14.6,95.83c-.82,5.32-4.41,9.79-9.79,9.79H84.07c-5.38,0-9-4.47-9.79-9.79L59.68,106C58.83,100.64,64.07,96.17,69.43,96.17Z"/><rect class="cls-2" x="52.13" y="91.12" width="115.14" height="12" rx="3.86"/><path class="cls-3" d="M116.91,65.16,128,55.48c.73-1.37,19.16-1.85,13.93,2.62l-5.79,5c-2.39,2-2.28,1.66-3,4.77l-2.56,11.52c-.37,1.66-8,7.21-9.73,7.2a3.27,3.27,0,0,1-3.22-3.12Z"/><path class="cls-4" d="M114.77,81.27l-.29-18.81c-.08-4.81,7.25-4.92,7.32-.11l.3,18.8a3.67,3.67,0,0,1-3.61,3.72h0A3.68,3.68,0,0,1,114.77,81.27Z"/><path class="cls-4" d="M115.4,59.92,126.93,43.4l18.6-7.55c7-2.83,35.64-12.3,42.95-14.15l-.06,28.85-18.86.54c-.25,0-2.77,6.9-5,8.39l-17,11.5a.59.59,0,0,1-.45.09l-16.2,13.21a4.54,4.54,0,0,1-6.17,0h0a4.37,4.37,0,0,1,0-6.17c5.34-5.35,11-10.66,16-16.27l.67-3.09c.58-2.68.5-3.25-2-3.58l-3.19-.41c-2.88-.38-2.15-.43-4.29,1.61l-10.54,10-6-1.89C113.7,64,114.38,61.38,115.4,59.92Z"/><path class="cls-5" d="M89.13,71l40.33.24c10.17,24.36,5.18,40.81,0,57.16l-40.33-.24C98.3,108.84,99.76,89.74,89.13,71Z"/><path class="cls-4" d="M164.58,59.48l-17,11.5a.59.59,0,0,1-.45.09L130.91,84.28a4.54,4.54,0,0,1-6.17,0h0a4.37,4.37,0,0,1,0-6.17c5.34-5.35,11-10.66,16-16.27l.67-3.09Z"/><path class="cls-6" d="M154.48,112h13.37a9.25,9.25,0,0,1,9.22,9.21v11.55a9.25,9.25,0,0,1-9.22,9.21H154.48a9.25,9.25,0,0,1-9.22-9.21V121.17a9.25,9.25,0,0,1,9.22-9.21Zm13.37,3.83H154.48a5.39,5.39,0,0,0-5.38,5.38v11.55a5.39,5.39,0,0,0,5.38,5.38h13.37a5.39,5.39,0,0,0,5.38-5.38V121.17a5.39,5.39,0,0,0-5.38-5.38Z"/><path class="cls-6" d="M63.54,112H76.92a9.23,9.23,0,0,1,9.21,9.21v11.55A9.23,9.23,0,0,1,76.92,142H63.54a9.23,9.23,0,0,1-9.21-9.21V121.17A9.22,9.22,0,0,1,63.54,112Zm13.38,3.83H63.54a5.39,5.39,0,0,0-5.38,5.38v11.55a5.39,5.39,0,0,0,5.38,5.38H76.92a5.39,5.39,0,0,0,5.38-5.38V121.17a5.39,5.39,0,0,0-5.38-5.38Z"/><path class="cls-4" d="M75.36,101.87h80.55c5.38,0,10.6,4.47,9.79,9.79l-14.6,95.83c-.82,5.32-4.41,9.79-9.79,9.79H90c-5.38,0-9-4.47-9.79-9.79l-14.6-95.83C64.76,106.34,70,101.87,75.36,101.87Z"/><rect class="cls-7" x="58.06" y="96.82" width="115.14" height="12" rx="3.86"/></svg>