<svg id="Layer_1" data-name="Layer 1" xmlns="http://www.w3.org/2000/svg" viewBox="0 0 242.81 231.06"><defs><style>.cls-1,.cls-2{fill:#fff;}.cls-1,.cls-10,.cls-3,.cls-4,.cls-5,.cls-6,.cls-7,.cls-8,.cls-9{fill-rule:evenodd;}.cls-3{fill:#80650f;}.cls-4{fill:#ffc91f;}.cls-5{fill:#db5500;}.cls-6{fill:#997614;}.cls-8{fill:#dcecfa;}.cls-11,.cls-9{fill:#636262;}.cls-10{fill:#4a4a4a;}</style></defs><path class="cls-1" d="M134.86,72a11.34,11.34,0,0,1-7.2,14.08,10.55,10.55,0,0,1-8.3-.81,10.69,10.69,0,0,1-14.94-3.91,11.52,11.52,0,0,1,3.25-15.11,11.39,11.39,0,0,1,6.25-14.57,10.58,10.58,0,0,1,5.88-.58,11,11,0,0,1,11.26-10.87,10.62,10.62,0,0,1,5.34,1.67,10.69,10.69,0,0,1,15,3.75,11.48,11.48,0,0,1-3.63,15.48,8.92,8.92,0,0,1-1.25.68A11,11,0,0,1,135.65,72Z"/><path class="cls-1" d="M56.72,91.59H75a5.82,5.82,0,0,1,5.7,5.9v39.56A5.82,5.82,0,0,1,75,143H54.6a5.44,5.44,0,0,1-1.55-.23V143a5.51,5.51,0,0,1-5.39,5.58H19.8A5.51,5.51,0,0,1,14.41,143V125.49c0-3.1,2.46-5.12,5.39-5.58l27.86-4.39a3.94,3.94,0,0,1,.77,0l2.59-18C51.48,94.28,53.58,91.59,56.72,91.59Z"/><path class="cls-2" d="M16.53,142.49h172.8A3.75,3.75,0,0,1,193,146.3v5.62a3.76,3.76,0,0,1-3.69,3.82H16.53a3.76,3.76,0,0,1-3.69-3.82V146.3A3.75,3.75,0,0,1,16.53,142.49Z"/><polygon class="cls-1" points="179.17 81.45 203.75 144.16 79.32 144.16 79.32 81.45 179.17 81.45"/><polygon class="cls-1" points="179.17 81.45 203.75 144.16 79.32 144.16 79.32 81.45 179.17 81.45"/><polygon class="cls-1" points="179.17 81.45 203.75 144.16 189.4 144.16 164.64 81.45 179.17 81.45"/><polygon class="cls-1" points="179.17 81.45 189.51 107.82 175.05 107.82 164.64 81.45 179.17 81.45"/><path class="cls-1" d="M35.78,135.34c10.58,0,19.15,8.87,19.15,19.81v.58H16.63v-.58C16.63,144.21,25.2,135.34,35.78,135.34Z"/><path class="cls-1" d="M58.86,96.12H67a5.32,5.32,0,0,1,5.2,5.38v11.92A5.31,5.31,0,0,1,67,118.8H58c-2.77,0-6.35-2.16-5.81-6.21l1.49-11.13C54,98.6,56,96.12,58.86,96.12Z"/><path class="cls-1" d="M35.78,170.84a15.7,15.7,0,0,0,0-31.38,15.43,15.43,0,0,0-15.18,15.68h0A15.47,15.47,0,0,0,35.78,170.84Z"/><path class="cls-1" d="M35.78,161.85a6.7,6.7,0,1,0-6.48-6.7h0A6.59,6.59,0,0,0,35.78,161.85Z"/><ellipse class="cls-2" cx="168.45" cy="155.15" rx="15.17" ry="15.69"/><path class="cls-1" d="M168.45,161.85a6.7,6.7,0,1,0-6.48-6.7h0A6.6,6.6,0,0,0,168.45,161.85Z"/><path class="cls-1" d="M145.34,71.7l9.75-22a6.91,6.91,0,0,1,9.19-3.52l39,18.51a7.34,7.34,0,0,1,3.41,9.51l-6.67,15a10.8,10.8,0,0,0-14-6.68,11.35,11.35,0,0,0-6.84,13.1L148.72,81.17A7.35,7.35,0,0,1,145.34,71.7Z"/><path class="cls-1" d="M150.22,60.69l4.87-11a6.91,6.91,0,0,1,9.19-3.52l39,18.51a7.34,7.34,0,0,1,3.41,9.5l-4.83,11Z"/><path class="cls-1" d="M181.86,89.29a8.68,8.68,0,0,1,11.68-4.48,9.25,9.25,0,0,1,4.33,12.09,8.69,8.69,0,0,1-11.67,4.48,9.25,9.25,0,0,1-4.35-12.08Z"/><path class="cls-1" d="M181.86,89.29a8.68,8.68,0,0,1,11.84-4,9.26,9.26,0,0,1,4.16,11.62Z"/><path class="cls-1" d="M158.93,41.79l14.68,7a3.57,3.57,0,0,1,1.67,4.66l-14,31.66a3.36,3.36,0,0,1-4.51,1.73l-14.71-7Q150.51,60.82,158.93,41.79Z"/><path class="cls-1" d="M137.86,78.28l17.2-38.78a1.13,1.13,0,0,1,1.52-.59h0l2.87,1.36a1.22,1.22,0,0,1,.56,1.58L142.86,80.64a1.14,1.14,0,0,1-1.53.59l-2.87-1.37a1.2,1.2,0,0,1-.6-1.57Z"/><path class="cls-1" d="M157.2,135.69,189,73.08a9,9,0,0,0-3.59-11.93h0a8.43,8.43,0,0,0-11.53,3.72l-31.78,62.61a9,9,0,0,0,3.59,11.92h0A8.41,8.41,0,0,0,157.2,135.69Z"/><path class="cls-1" d="M149.57,120.52a10.72,10.72,0,1,1-10.36,10.71,10.54,10.54,0,0,1,10.36-10.71Z"/><path class="cls-1" d="M149.57,120.52a10.72,10.72,0,0,1,.64,21.42h-.64Z"/><path class="cls-1" d="M149.57,126.59a4.65,4.65,0,1,1-4.48,4.65h0a4.55,4.55,0,0,1,4.47-4.64Z"/><path class="cls-1" d="M149.57,126.59a4.66,4.66,0,0,1,0,9.31h0Z"/><path class="cls-3" d="M142,78.29a10.89,10.89,0,0,1-15.5,12.83,10.9,10.9,0,0,1-11.69-18.39A10.9,10.9,0,0,1,125,57.91a11.47,11.47,0,0,1,1.94.17,10.9,10.9,0,0,1,16.6-8.89,10.89,10.89,0,1,1,11.34,18.59,9.94,9.94,0,0,1-1.25.66,10.88,10.88,0,0,1-10.84,9.87Z"/><path class="cls-4" d="M63.86,97.23H82.12a5.71,5.71,0,0,1,5.7,5.7v38.24a5.72,5.72,0,0,1-5.7,5.71H61.74a5.43,5.43,0,0,1-1.55-.22v.22a5.41,5.41,0,0,1-5.39,5.39H26.94a5.41,5.41,0,0,1-5.39-5.39V130c0-3,2.46-5,5.39-5.4l27.86-4.24a3.94,3.94,0,0,1,.77,0l2.59-17.39C58.62,99.83,60.72,97.23,63.86,97.23Z"/><rect x="19.98" y="146.43" width="180.18" height="12.81" rx="3.69"/><polygon class="cls-5" points="186.31 87.42 210.89 148.05 86.46 148.05 86.46 87.42 186.31 87.42"/><polygon class="cls-6" points="186.31 87.42 210.89 148.05 86.46 148.05 86.46 87.42 186.31 87.42"/><polygon class="cls-3" points="186.31 87.42 210.89 148.05 196.54 148.05 171.78 87.42 186.31 87.42"/><polygon class="cls-3" points="186.31 87.42 196.65 112.92 182.19 112.92 171.78 87.42 186.31 87.42"/><path class="cls-7" d="M42.92,139.52a19.15,19.15,0,0,1,19.15,19.15v.56H23.77v-.56A19.15,19.15,0,0,1,42.92,139.52Z"/><path class="cls-8" d="M66,101.61h8.15a5.22,5.22,0,0,1,5.2,5.2v11.52a5.22,5.22,0,0,1-5.2,5.2h-9c-2.77,0-6.35-2.09-5.81-6l1.49-10.76C61.17,104,63.12,101.61,66,101.61Z"/><path class="cls-9" d="M42.92,173.84a15.17,15.17,0,1,0-15.16-15.18h0A15.2,15.2,0,0,0,42.92,173.84Z"/><path class="cls-10" d="M42.92,165.15a6.48,6.48,0,1,0-6.48-6.48h0A6.48,6.48,0,0,0,42.92,165.15Z"/><circle class="cls-11" cx="175.59" cy="158.67" r="15.17"/><path class="cls-10" d="M175.59,165.15a6.48,6.48,0,1,0-6.48-6.48h0A6.49,6.49,0,0,0,175.59,165.15Z"/><path class="cls-4" d="M152.48,78l9.75-21.27a7,7,0,0,1,9.19-3.4l39,17.89a7,7,0,0,1,3.41,9.19l-6.67,14.53a10.89,10.89,0,0,0-20.83,6.21l-30.47-14A7,7,0,0,1,152.48,78Z"/><path class="cls-4" d="M157.36,67.35l4.87-10.64a7,7,0,0,1,9.19-3.4l39,17.89a7,7,0,0,1,3.41,9.19L209,91Z"/><path class="cls-4" d="M189,95a8.81,8.81,0,1,1,4.34,11.69A8.81,8.81,0,0,1,189,95Z"/><path class="cls-4" d="M189,95a8.81,8.81,0,0,1,16,7.35Z"/><path class="cls-4" d="M166.07,49.08l14.68,6.73a3.41,3.41,0,0,1,1.67,4.51l-14,30.6a3.4,3.4,0,0,1-4.51,1.68L149.2,85.87Q157.65,67.48,166.07,49.08Z"/><path class="cls-4" d="M145,84.36l17.2-37.49a1.14,1.14,0,0,1,1.52-.57h0l2.87,1.31a1.16,1.16,0,0,1,.56,1.53L150,86.64a1.16,1.16,0,0,1-1.53.57l-2.87-1.32a1.16,1.16,0,0,1-.6-1.53Z"/><path class="cls-3" d="M164.34,139.86l31.78-60.53a8.56,8.56,0,0,0-3.59-11.53h0A8.56,8.56,0,0,0,181,71.39l-31.78,60.53a8.56,8.56,0,0,0,3.59,11.53h0A8.56,8.56,0,0,0,164.34,139.86Z"/><path class="cls-3" d="M156.71,125.19a10.36,10.36,0,1,1-10.36,10.36,10.36,10.36,0,0,1,10.36-10.36Z"/><path class="cls-3" d="M156.71,125.19a10.36,10.36,0,1,1,.64,20.71h-.64Z"/><path class="cls-3" d="M156.71,131.06a4.49,4.49,0,1,1-4.48,4.5h0a4.49,4.49,0,0,1,4.47-4.49Z"/><path class="cls-3" d="M156.71,131.06a4.5,4.5,0,0,1,0,9h0Z"/></svg>