<?xml version="1.0" encoding="utf-8"?>
<!-- Generator: Adobe Illustrator 25.4.1, SVG Export Plug-In . SVG Version: 6.00 Build 0)  -->
<svg version="1.1" id="Layer_1" xmlns="http://www.w3.org/2000/svg" xmlns:xlink="http://www.w3.org/1999/xlink" x="0px" y="0px"
	 viewBox="0 0 840 865" style="enable-background:new 0 0 840 865;" xml:space="preserve">
<style type="text/css">
	.st0{fill-rule:evenodd;clip-rule:evenodd;fill:#FFFFFF;}
</style>
<g>
	<path class="st0" d="M136.8,629.2c-38.5-48.8-41.1-121-23.1-180.5c16.8-55.7,77.9-80.8,115.5-125.2c41.7-49.4,53-136.5,116.4-149.1
		c63.1-12.6,106.3,64.2,163.7,93.2c56.4,28.5,143.4,17.2,168.9,75C704,401.2,632.7,458,621,521c-10.9,58.6,31.1,129.5-8.3,174.3
		c-39.1,44.6-111.7,31.3-171.1,30.1c-49-1-91.9-21.9-138.7-36.7C245.4,670.5,174.1,676.5,136.8,629.2z"/>
	<g>
		<defs>
			<path id="SVGID_1_" d="M145.8,587.8c-38.5-48.8-41.1-121-23.1-180.5c16.8-55.7,77.9-80.8,115.5-125.2
				c41.7-49.4,53-136.5,116.4-149.1c63.1-12.6,106.3,64.2,163.7,93.2c56.4,28.5,143.4,17.2,168.9,75
				c25.8,58.6-45.6,115.4-57.3,178.4c-10.9,58.6,31.1,129.5-8.3,174.3C582.6,698.5,510,685.2,450.6,684c-49-1-91.9-21.9-138.7-36.7
				C254.4,629.1,183.1,635.1,145.8,587.8z"/>
		</defs>
		<clipPath id="SVGID_00000148653717533178464920000010178294356151556792_">
			<use xlink:href="#SVGID_1_"  style="overflow:visible;"/>
		</clipPath>
		
			<g transform="matrix(1 0 0 1 1.907349e-06 0)" style="clip-path:url(#SVGID_00000148653717533178464920000010178294356151556792_);">
			
				<image style="overflow:visible;" width="5616" height="3744" xlink:href="../Ãrea de Trabalho/Trilhas Desafio/Banco de imagens/jasmin-sessler-CIItgnBEOgw-unsplash.jpg"  transform="matrix(0.1649 0 0 0.1649 -24.7447 113.3617)">
			</image>
		</g>
	</g>
</g>
</svg>
