<svg width="376" height="418" viewBox="0 0 376 418" fill="none" xmlns="http://www.w3.org/2000/svg">
<path d="M161.715 1.51538C160.895 1.39706 160.134 1.96583 160.016 2.78576C159.898 3.6057 160.466 4.3663 161.286 4.48462L161.715 1.51538ZM372.5 91.5L371.037 91.8293L372.5 91.5ZM4.00049 303L2.535 303.32L4.00049 303ZM264.884 399.712C265.553 399.223 265.7 398.285 265.212 397.616L257.254 386.71C256.766 386.041 255.828 385.894 255.159 386.383C254.489 386.871 254.343 387.809 254.831 388.479L261.904 398.172L252.21 405.246C251.541 405.734 251.394 406.672 251.883 407.341C252.371 408.011 253.309 408.157 253.979 407.669L264.884 399.712ZM161.286 4.48462C163.171 4.75654 165.111 5.04615 167.104 5.35337L167.561 2.38839C165.559 2.07975 163.609 1.78871 161.715 1.51538L161.286 4.48462ZM178.726 7.24786C182.48 7.8918 186.365 8.58778 190.357 9.33524L190.909 6.38649C186.903 5.63624 183.003 4.93756 179.233 4.29102L178.726 7.24786ZM201.94 11.5921C205.731 12.3591 209.591 13.1682 213.502 14.0189L214.14 11.0874C210.214 10.2336 206.34 9.42152 202.535 8.65166L201.94 11.5921ZM225.011 16.6103C228.813 17.4961 232.646 18.4192 236.495 19.3791L237.221 16.4683C233.356 15.5044 229.508 14.5777 225.692 13.6886L225.011 16.6103ZM247.92 22.3274C251.715 23.3407 255.511 24.3892 259.293 25.4725L260.119 22.5885C256.318 21.5 252.505 20.4467 248.694 19.429L247.92 22.3274ZM270.599 28.8301C274.378 29.9945 278.13 31.194 281.837 32.4281L282.785 29.5817C279.054 28.34 275.282 27.1337 271.482 25.9631L270.599 28.8301ZM292.973 36.2911C296.713 37.6441 300.39 39.0339 303.987 40.4599L305.093 37.6711C301.465 36.2331 297.76 34.8326 293.994 33.47L292.973 36.2911ZM314.862 44.9957C318.53 46.6073 322.085 48.2598 325.508 49.9526L326.838 47.2635C323.371 45.5488 319.775 43.8773 316.069 42.2491L314.862 44.9957ZM335.891 55.4535C339.418 57.4626 342.746 59.5208 345.846 61.6268L347.532 59.1453C344.359 56.9895 340.963 54.8899 337.376 52.8467L335.891 55.4535ZM355.121 68.6699C358.235 71.3452 360.961 74.0811 363.254 76.8744L365.573 74.9707C363.151 72.0211 360.298 69.1626 357.076 66.3943L355.121 68.6699ZM369.284 86.5018C370.046 88.2595 370.633 90.0352 371.037 91.8293L373.964 91.1707C373.516 89.1816 372.868 87.227 372.036 85.3078L369.284 86.5018ZM371.037 91.8293C371.438 93.6105 371.434 95.4182 371.041 97.2672L373.976 97.8907C374.453 95.6428 374.465 93.3971 373.964 91.1707L371.037 91.8293ZM365.591 107.234C363.338 109.887 360.451 112.599 356.977 115.367L358.846 117.713C362.426 114.861 365.465 112.015 367.877 109.177L365.591 107.234ZM347.166 122.354C343.966 124.425 340.492 126.515 336.768 128.622L338.245 131.233C342.012 129.101 345.538 126.981 348.796 124.873L347.166 122.354ZM326.039 134.398C322.541 136.198 318.885 138.008 315.085 139.828L316.381 142.534C320.203 140.703 323.885 138.88 327.411 137.066L326.039 134.398ZM303.96 145.007C300.364 146.637 296.667 148.274 292.881 149.917L294.076 152.669C297.875 151.02 301.586 149.376 305.198 147.739L303.96 145.007ZM281.672 154.697C277.965 156.252 274.188 157.812 270.351 159.377L271.484 162.155C275.329 160.586 279.115 159.022 282.832 157.464L281.672 154.697ZM259.006 163.951C255.275 165.44 251.496 166.934 247.68 168.431L248.775 171.224C252.597 169.725 256.38 168.229 260.118 166.738L259.006 163.951ZM236.272 172.875C232.495 174.338 228.689 175.804 224.86 177.273L225.935 180.074C229.766 178.604 233.575 177.137 237.355 175.673L236.272 172.875ZM213.457 181.635C209.657 183.084 205.842 184.537 202.019 185.992L203.086 188.796C206.91 187.341 210.725 185.888 214.526 184.438L213.457 181.635ZM190.596 190.34C186.786 191.792 182.973 193.245 179.165 194.701L180.236 197.503C184.043 196.048 187.854 194.595 191.664 193.144L190.596 190.34ZM167.753 199.078C163.934 200.548 160.126 202.02 156.336 203.494L157.423 206.29C161.209 204.818 165.014 203.347 168.831 201.878L167.753 199.078ZM144.933 207.956C141.129 209.456 137.35 210.956 133.603 212.459L134.719 215.243C138.46 213.743 142.234 212.245 146.033 210.747L144.933 207.956ZM122.218 217.07C118.401 218.633 114.626 220.197 110.901 221.762L112.063 224.528C115.779 222.967 119.545 221.406 123.355 219.846L122.218 217.07ZM99.697 226.541C95.8789 228.195 92.1254 229.851 88.4458 231.506L89.6767 234.242C93.3426 232.593 97.0833 230.943 100.89 229.293L99.697 226.541ZM77.2833 236.64C73.5115 238.416 69.8351 240.193 66.2656 241.969L67.602 244.654C71.1503 242.889 74.8071 241.122 78.5613 239.355L77.2833 236.64ZM55.4179 247.546C51.6843 249.535 48.0988 251.523 44.6777 253.511L46.1848 256.105C49.5704 254.138 53.1233 252.168 56.8281 250.194L55.4179 247.546ZM34.165 259.964C30.5398 262.327 27.1685 264.691 24.08 267.055L25.9034 269.437C28.9227 267.126 32.2309 264.806 35.8033 262.477L34.165 259.964ZM14.7105 275.09C11.4133 278.322 8.6844 281.572 6.61559 284.84L9.15047 286.445C11.0664 283.418 13.6343 280.346 16.8103 277.233L14.7105 275.09ZM2.17158 296.742C1.94396 298.939 2.05787 301.134 2.535 303.32L5.46597 302.68C5.05813 300.812 4.96022 298.938 5.15561 297.051L2.17158 296.742ZM2.535 303.32C2.9723 305.323 3.68012 307.291 4.63149 309.222L7.32259 307.896C6.46786 306.161 5.84644 304.423 5.46597 302.68L2.535 303.32ZM11.831 319.13C14.4184 321.818 17.4629 324.441 20.8976 326.998L22.6891 324.592C19.358 322.112 16.4434 319.596 13.9925 317.05L11.831 319.13ZM30.9221 333.654C34.1918 335.612 37.6839 337.533 41.3679 339.416L42.7335 336.745C39.1008 334.888 35.6682 332.999 32.4634 331.08L30.9221 333.654ZM52.0827 344.555C55.603 346.144 59.2518 347.705 63.0091 349.236L64.1413 346.458C60.4149 344.939 56.8005 343.393 53.3172 341.821L52.0827 344.555ZM74.0801 353.552C77.7333 354.916 81.4641 356.255 85.2568 357.568L86.238 354.733C82.4664 353.427 78.7585 352.097 75.1297 350.741L74.0801 353.552ZM96.5149 361.333C100.251 362.541 104.03 363.725 107.838 364.884L108.711 362.014C104.918 360.86 101.156 359.681 97.4381 358.479L96.5149 361.333ZM119.214 368.249C123.01 369.34 126.821 370.408 130.635 371.449L131.425 368.555C127.624 367.517 123.825 366.453 120.044 365.366L119.214 368.249ZM142.092 374.504C145.937 375.504 149.771 376.478 153.581 377.425L154.305 374.514C150.505 373.569 146.681 372.598 142.848 371.6L142.092 374.504ZM165.099 380.226C168.992 381.153 172.845 382.05 176.643 382.916L177.311 379.992C173.521 379.127 169.677 378.232 165.793 377.308L165.099 380.226ZM188.213 385.503C192.167 386.369 196.038 387.199 199.808 387.993L200.426 385.057C196.664 384.265 192.8 383.437 188.855 382.573L188.213 385.503ZM211.419 390.388C215.451 391.204 219.326 391.97 223.016 392.686L223.588 389.741C219.906 389.026 216.038 388.261 212.013 387.448L211.419 390.388ZM234.655 394.9C238.943 395.698 242.852 396.406 246.315 397.021L246.84 394.067C243.384 393.453 239.484 392.747 235.204 391.95L234.655 394.9ZM257.963 399.033C259.835 399.347 261.285 399.584 262.268 399.742C262.759 399.822 263.134 399.882 263.386 399.922C263.512 399.942 263.607 399.957 263.671 399.967C263.703 399.972 263.727 399.976 263.743 399.978C263.752 399.979 263.758 399.98 263.762 399.981C263.764 399.981 263.766 399.982 263.767 399.982C263.767 399.982 263.768 399.982 263.768 399.982C263.768 399.982 263.768 399.982 263.768 399.982C263.768 399.982 263.768 399.982 263.768 399.982C263.768 399.982 263.768 399.982 264 398.5C264.232 397.018 264.232 397.018 264.232 397.018C264.232 397.018 264.232 397.018 264.232 397.018C264.232 397.018 264.231 397.018 264.231 397.018C264.231 397.018 264.231 397.018 264.23 397.018C264.229 397.018 264.228 397.017 264.226 397.017C264.222 397.017 264.216 397.016 264.209 397.014C264.193 397.012 264.169 397.008 264.138 397.003C264.075 396.993 263.981 396.979 263.856 396.959C263.607 396.919 263.235 396.86 262.747 396.781C261.769 396.623 260.325 396.387 258.459 396.074L257.963 399.033ZM161.929 0.0307558C160.289 -0.205883 158.768 0.931659 158.531 2.57153C158.295 4.2114 159.432 5.7326 161.072 5.96924L161.929 0.0307558ZM372.5 91.5L369.574 92.1585L372.5 91.5ZM4.00049 303L1.06952 303.64L4.00049 303ZM265.768 400.923C267.107 399.947 267.4 398.07 266.423 396.732L250.509 374.921C249.532 373.582 247.656 373.289 246.317 374.265C244.979 375.242 244.685 377.119 245.662 378.457L259.808 397.845L240.421 411.991C239.082 412.968 238.789 414.844 239.765 416.183C240.742 417.521 242.619 417.815 243.957 416.838L265.768 400.923ZM161.072 5.96924C162.951 6.24045 164.888 6.52936 166.876 6.83586L167.79 0.905901C165.783 0.596546 163.828 0.304792 161.929 0.0307558L161.072 5.96924ZM178.472 8.72627C182.219 9.36893 186.097 10.0636 190.081 10.8096L191.185 4.91212C187.171 4.16047 183.264 3.46044 179.486 2.81261L178.472 8.72627ZM201.643 13.0623C205.426 13.8279 209.279 14.6355 213.184 15.4846L214.459 9.62164C210.525 8.76625 206.644 7.95272 202.833 7.18146L201.643 13.0623ZM224.671 18.0712C228.465 18.9553 232.291 19.8765 236.132 20.8345L237.584 15.0128C233.711 14.0471 229.856 13.1186 226.032 12.2277L224.671 18.0712ZM247.533 23.7766C251.319 24.7878 255.107 25.8339 258.88 26.9146L260.532 21.1464C256.722 20.0554 252.9 18.9997 249.081 17.9797L247.533 23.7766ZM270.157 30.2636C273.927 31.4249 277.667 32.621 281.364 33.8514L283.259 28.1584C279.517 26.913 275.734 25.7033 271.923 24.5296L270.157 30.2636ZM292.463 37.7016C296.19 39.0498 299.852 40.4343 303.434 41.8544L305.645 36.2767C302.003 34.8327 298.284 33.4268 294.504 32.0595L292.463 37.7016ZM314.259 46.3689C317.908 47.9723 321.442 49.6153 324.843 51.2971L327.503 45.919C324.014 44.1933 320.397 42.5122 316.673 40.8759L314.259 46.3689ZM335.149 56.7569C338.646 58.749 341.94 60.7864 345.003 62.8676L348.375 57.9045C345.165 55.7239 341.735 53.6036 338.118 51.5433L335.149 56.7569ZM354.143 69.8077C357.203 72.4366 359.865 75.1111 362.095 77.8262L366.732 74.0188C364.246 70.9911 361.329 68.0713 358.053 65.2565L354.143 69.8077ZM367.908 87.0988C368.635 88.7758 369.192 90.462 369.574 92.1585L375.427 90.8415C374.958 88.7549 374.28 86.7107 373.412 84.7107L367.908 87.0988ZM369.574 92.1585C369.924 93.7172 369.925 95.3059 369.574 96.9554L375.443 98.2025C375.963 95.7551 375.978 93.2904 375.427 90.8415L369.574 92.1585ZM364.448 106.263C362.274 108.822 359.463 111.468 356.042 114.193L359.781 118.886C363.414 115.992 366.529 113.08 369.02 110.148L364.448 106.263ZM346.351 121.095C343.18 123.147 339.731 125.221 336.029 127.317L338.984 132.539C342.772 130.395 346.324 128.259 349.611 126.132L346.351 121.095ZM325.353 133.064C321.869 134.857 318.225 136.661 314.437 138.475L317.029 143.887C320.862 142.05 324.557 140.221 328.098 138.4L325.353 133.064ZM303.34 143.641C299.753 145.267 296.063 146.9 292.284 148.541L294.673 154.045C298.479 152.393 302.197 150.746 305.817 149.105L303.34 143.641ZM281.092 153.314C277.39 154.866 273.618 156.424 269.784 157.988L272.05 163.544C275.9 161.973 279.69 160.408 283.412 158.847L281.092 153.314ZM258.45 162.558C254.722 164.046 250.946 165.538 247.132 167.034L249.323 172.62C253.147 171.12 256.933 169.624 260.674 168.131L258.45 162.558ZM235.73 171.477C231.955 172.938 228.15 174.404 224.323 175.872L226.472 181.474C230.304 180.004 234.115 178.536 237.897 177.072L235.73 171.477ZM212.922 180.233C209.123 181.683 205.309 183.135 201.485 184.59L203.619 190.198C207.443 188.743 211.259 187.29 215.061 185.839L212.922 180.233ZM190.062 188.938C186.251 190.39 182.438 191.844 178.629 193.3L180.772 198.905C184.577 197.45 188.388 195.997 192.198 194.546L190.062 188.938ZM167.214 197.678C163.394 199.149 159.584 200.621 155.792 202.096L157.967 207.688C161.751 206.216 165.554 204.746 169.37 203.278L167.214 197.678ZM144.383 206.561C140.577 208.061 136.795 209.563 133.045 211.066L135.277 216.635C139.015 215.137 142.786 213.639 146.583 212.143L144.383 206.561ZM121.649 215.682C117.828 217.246 114.049 218.812 110.32 220.379L112.644 225.911C116.355 224.351 120.117 222.792 123.923 221.234L121.649 215.682ZM99.1006 225.164C95.2767 226.821 91.5168 228.48 87.8303 230.138L90.2922 235.61C93.9511 233.964 97.6855 232.317 101.486 230.67L99.1006 225.164ZM76.6444 235.283C72.8637 237.063 69.1775 238.844 65.5974 240.626L68.2702 245.997C71.8078 244.237 75.4549 242.475 79.2003 240.712L76.6444 235.283ZM54.7127 246.222C50.9648 248.219 47.363 250.216 43.9241 252.214L46.9384 257.402C50.3061 255.445 53.8428 253.484 57.5333 251.518L54.7127 246.222ZM33.3459 258.707C29.6942 261.088 26.2914 263.473 23.1684 265.864L26.8151 270.628C29.7998 268.344 33.0765 266.045 36.6224 263.734L33.3459 258.707ZM13.6606 274.019C10.3028 277.31 7.49342 280.649 5.34816 284.038L10.4179 287.247C12.2573 284.341 14.7448 281.358 17.8602 278.304L13.6606 274.019ZM0.679565 296.588C0.435835 298.94 0.557738 301.296 1.06952 303.64L6.93146 302.36C6.55826 300.651 6.46835 298.937 6.64763 297.206L0.679565 296.588ZM1.06952 303.64C1.53524 305.773 2.28625 307.856 3.28595 309.885L8.66813 307.233C7.86173 305.596 7.28351 303.973 6.93146 302.36L1.06952 303.64ZM10.7503 320.17C13.4058 322.929 16.5154 325.605 20.0019 328.201L23.5849 323.388C20.3055 320.947 17.456 318.485 15.0732 316.009L10.7503 320.17ZM30.1514 334.94C33.4536 336.918 36.9754 338.855 40.6852 340.752L43.4163 335.409C39.8093 333.566 36.4064 331.693 33.2341 329.793L30.1514 334.94ZM51.4654 345.922C55.0043 347.52 58.6702 349.088 62.443 350.625L64.7074 345.069C60.9965 343.557 57.3992 342.018 53.9345 340.453L51.4654 345.922ZM73.5553 354.957C77.2207 356.326 80.9629 357.669 84.7662 358.985L86.7286 353.315C82.9676 352.014 79.2711 350.687 75.6545 349.336L73.5553 354.957ZM96.0533 362.76C99.7978 363.971 103.585 365.158 107.401 366.319L109.148 360.579C105.363 359.427 101.609 358.251 97.8998 357.051L96.0533 362.76ZM118.8 369.69C122.602 370.784 126.42 371.853 130.24 372.896L131.821 367.108C128.025 366.072 124.233 365.01 120.459 363.924L118.8 369.69ZM141.714 375.955C145.565 376.957 149.404 377.933 153.219 378.881L154.667 373.058C150.872 372.115 147.053 371.145 143.225 370.149L141.714 375.955ZM164.752 381.686C168.65 382.613 172.507 383.511 176.309 384.379L177.644 378.529C173.859 377.665 170.02 376.772 166.141 375.849L164.752 381.686ZM187.892 386.968C191.85 387.835 195.725 388.666 199.499 389.461L200.735 383.589C196.976 382.798 193.117 381.971 189.176 381.107L187.892 386.968ZM211.121 391.858C215.158 392.675 219.037 393.442 222.73 394.159L223.874 388.269C220.195 387.555 216.331 386.79 212.31 385.977L211.121 391.858ZM234.381 396.374C238.673 397.173 242.586 397.882 246.053 398.498L247.102 392.59C243.65 391.977 239.754 391.271 235.479 390.476L234.381 396.374ZM257.716 400.513C259.591 400.826 261.043 401.064 262.029 401.223C262.521 401.303 262.897 401.363 263.15 401.403C263.277 401.423 263.373 401.438 263.438 401.448C263.47 401.454 263.494 401.457 263.511 401.46C263.519 401.461 263.526 401.462 263.53 401.463C263.532 401.463 263.534 401.464 263.535 401.464C263.535 401.464 263.536 401.464 263.536 401.464C263.536 401.464 263.536 401.464 263.537 401.464C263.537 401.464 263.537 401.464 263.537 401.464C263.537 401.464 263.537 401.464 264 398.5C264.463 395.536 264.463 395.536 264.463 395.536C264.463 395.536 264.463 395.536 264.463 395.536C264.463 395.536 264.463 395.536 264.463 395.536C264.463 395.536 264.463 395.536 264.462 395.536C264.461 395.536 264.46 395.535 264.458 395.535C264.454 395.535 264.449 395.534 264.441 395.533C264.426 395.53 264.403 395.526 264.372 395.522C264.309 395.512 264.216 395.497 264.092 395.477C263.844 395.438 263.473 395.379 262.986 395.3C262.011 395.142 260.569 394.907 258.706 394.595L257.716 400.513Z" fill="#80650F"/>
</svg>
